G75*
G70*
%OFA0B0*%
%FSLAX24Y24*%
%IPPOS*%
%LPD*%
%AMOC8*
5,1,8,0,0,1.08239X$1,22.5*
%
%ADD10C,0.0000*%
%ADD11R,0.0157X0.0886*%
%ADD12R,0.0748X0.0748*%
%ADD13R,0.0197X0.0591*%
%ADD14R,0.0591X0.0197*%
%ADD15R,0.0760X0.2100*%
%ADD16R,0.0394X0.0433*%
%ADD17R,0.0433X0.0394*%
D10*
X000655Y002655D02*
X000655Y017655D01*
X002025Y017655D02*
X002027Y017705D01*
X002033Y017755D01*
X002043Y017804D01*
X002057Y017852D01*
X002074Y017899D01*
X002095Y017944D01*
X002120Y017988D01*
X002148Y018029D01*
X002180Y018068D01*
X002214Y018105D01*
X002251Y018139D01*
X002291Y018169D01*
X002333Y018196D01*
X002377Y018220D01*
X002423Y018241D01*
X002470Y018257D01*
X002518Y018270D01*
X002568Y018279D01*
X002617Y018284D01*
X002668Y018285D01*
X002718Y018282D01*
X002767Y018275D01*
X002816Y018264D01*
X002864Y018249D01*
X002910Y018231D01*
X002955Y018209D01*
X002998Y018183D01*
X003039Y018154D01*
X003078Y018122D01*
X003114Y018087D01*
X003146Y018049D01*
X003176Y018009D01*
X003203Y017966D01*
X003226Y017922D01*
X003245Y017876D01*
X003261Y017828D01*
X003273Y017779D01*
X003281Y017730D01*
X003285Y017680D01*
X003285Y017630D01*
X003281Y017580D01*
X003273Y017531D01*
X003261Y017482D01*
X003245Y017434D01*
X003226Y017388D01*
X003203Y017344D01*
X003176Y017301D01*
X003146Y017261D01*
X003114Y017223D01*
X003078Y017188D01*
X003039Y017156D01*
X002998Y017127D01*
X002955Y017101D01*
X002910Y017079D01*
X002864Y017061D01*
X002816Y017046D01*
X002767Y017035D01*
X002718Y017028D01*
X002668Y017025D01*
X002617Y017026D01*
X002568Y017031D01*
X002518Y017040D01*
X002470Y017053D01*
X002423Y017069D01*
X002377Y017090D01*
X002333Y017114D01*
X002291Y017141D01*
X002251Y017171D01*
X002214Y017205D01*
X002180Y017242D01*
X002148Y017281D01*
X002120Y017322D01*
X002095Y017366D01*
X002074Y017411D01*
X002057Y017458D01*
X002043Y017506D01*
X002033Y017555D01*
X002027Y017605D01*
X002025Y017655D01*
X000655Y017655D02*
X000657Y017750D01*
X000664Y017845D01*
X000675Y017940D01*
X000691Y018034D01*
X000711Y018127D01*
X000736Y018218D01*
X000765Y018309D01*
X000798Y018398D01*
X000836Y018486D01*
X000877Y018571D01*
X000923Y018655D01*
X000972Y018736D01*
X001026Y018815D01*
X001083Y018891D01*
X001144Y018965D01*
X001208Y019035D01*
X001275Y019102D01*
X001345Y019166D01*
X001419Y019227D01*
X001495Y019284D01*
X001574Y019338D01*
X001655Y019387D01*
X001739Y019433D01*
X001824Y019474D01*
X001912Y019512D01*
X002001Y019545D01*
X002092Y019574D01*
X002183Y019599D01*
X002276Y019619D01*
X002370Y019635D01*
X002465Y019646D01*
X002560Y019653D01*
X002655Y019655D01*
X017655Y019655D01*
X017025Y017655D02*
X017027Y017705D01*
X017033Y017755D01*
X017043Y017804D01*
X017057Y017852D01*
X017074Y017899D01*
X017095Y017944D01*
X017120Y017988D01*
X017148Y018029D01*
X017180Y018068D01*
X017214Y018105D01*
X017251Y018139D01*
X017291Y018169D01*
X017333Y018196D01*
X017377Y018220D01*
X017423Y018241D01*
X017470Y018257D01*
X017518Y018270D01*
X017568Y018279D01*
X017617Y018284D01*
X017668Y018285D01*
X017718Y018282D01*
X017767Y018275D01*
X017816Y018264D01*
X017864Y018249D01*
X017910Y018231D01*
X017955Y018209D01*
X017998Y018183D01*
X018039Y018154D01*
X018078Y018122D01*
X018114Y018087D01*
X018146Y018049D01*
X018176Y018009D01*
X018203Y017966D01*
X018226Y017922D01*
X018245Y017876D01*
X018261Y017828D01*
X018273Y017779D01*
X018281Y017730D01*
X018285Y017680D01*
X018285Y017630D01*
X018281Y017580D01*
X018273Y017531D01*
X018261Y017482D01*
X018245Y017434D01*
X018226Y017388D01*
X018203Y017344D01*
X018176Y017301D01*
X018146Y017261D01*
X018114Y017223D01*
X018078Y017188D01*
X018039Y017156D01*
X017998Y017127D01*
X017955Y017101D01*
X017910Y017079D01*
X017864Y017061D01*
X017816Y017046D01*
X017767Y017035D01*
X017718Y017028D01*
X017668Y017025D01*
X017617Y017026D01*
X017568Y017031D01*
X017518Y017040D01*
X017470Y017053D01*
X017423Y017069D01*
X017377Y017090D01*
X017333Y017114D01*
X017291Y017141D01*
X017251Y017171D01*
X017214Y017205D01*
X017180Y017242D01*
X017148Y017281D01*
X017120Y017322D01*
X017095Y017366D01*
X017074Y017411D01*
X017057Y017458D01*
X017043Y017506D01*
X017033Y017555D01*
X017027Y017605D01*
X017025Y017655D01*
X017655Y019655D02*
X017750Y019653D01*
X017845Y019646D01*
X017940Y019635D01*
X018034Y019619D01*
X018127Y019599D01*
X018218Y019574D01*
X018309Y019545D01*
X018398Y019512D01*
X018486Y019474D01*
X018571Y019433D01*
X018655Y019387D01*
X018736Y019338D01*
X018815Y019284D01*
X018891Y019227D01*
X018965Y019166D01*
X019035Y019102D01*
X019102Y019035D01*
X019166Y018965D01*
X019227Y018891D01*
X019284Y018815D01*
X019338Y018736D01*
X019387Y018655D01*
X019433Y018571D01*
X019474Y018486D01*
X019512Y018398D01*
X019545Y018309D01*
X019574Y018218D01*
X019599Y018127D01*
X019619Y018034D01*
X019635Y017940D01*
X019646Y017845D01*
X019653Y017750D01*
X019655Y017655D01*
X019655Y002655D01*
X017025Y002655D02*
X017027Y002705D01*
X017033Y002755D01*
X017043Y002804D01*
X017057Y002852D01*
X017074Y002899D01*
X017095Y002944D01*
X017120Y002988D01*
X017148Y003029D01*
X017180Y003068D01*
X017214Y003105D01*
X017251Y003139D01*
X017291Y003169D01*
X017333Y003196D01*
X017377Y003220D01*
X017423Y003241D01*
X017470Y003257D01*
X017518Y003270D01*
X017568Y003279D01*
X017617Y003284D01*
X017668Y003285D01*
X017718Y003282D01*
X017767Y003275D01*
X017816Y003264D01*
X017864Y003249D01*
X017910Y003231D01*
X017955Y003209D01*
X017998Y003183D01*
X018039Y003154D01*
X018078Y003122D01*
X018114Y003087D01*
X018146Y003049D01*
X018176Y003009D01*
X018203Y002966D01*
X018226Y002922D01*
X018245Y002876D01*
X018261Y002828D01*
X018273Y002779D01*
X018281Y002730D01*
X018285Y002680D01*
X018285Y002630D01*
X018281Y002580D01*
X018273Y002531D01*
X018261Y002482D01*
X018245Y002434D01*
X018226Y002388D01*
X018203Y002344D01*
X018176Y002301D01*
X018146Y002261D01*
X018114Y002223D01*
X018078Y002188D01*
X018039Y002156D01*
X017998Y002127D01*
X017955Y002101D01*
X017910Y002079D01*
X017864Y002061D01*
X017816Y002046D01*
X017767Y002035D01*
X017718Y002028D01*
X017668Y002025D01*
X017617Y002026D01*
X017568Y002031D01*
X017518Y002040D01*
X017470Y002053D01*
X017423Y002069D01*
X017377Y002090D01*
X017333Y002114D01*
X017291Y002141D01*
X017251Y002171D01*
X017214Y002205D01*
X017180Y002242D01*
X017148Y002281D01*
X017120Y002322D01*
X017095Y002366D01*
X017074Y002411D01*
X017057Y002458D01*
X017043Y002506D01*
X017033Y002555D01*
X017027Y002605D01*
X017025Y002655D01*
X017655Y000655D02*
X017750Y000657D01*
X017845Y000664D01*
X017940Y000675D01*
X018034Y000691D01*
X018127Y000711D01*
X018218Y000736D01*
X018309Y000765D01*
X018398Y000798D01*
X018486Y000836D01*
X018571Y000877D01*
X018655Y000923D01*
X018736Y000972D01*
X018815Y001026D01*
X018891Y001083D01*
X018965Y001144D01*
X019035Y001208D01*
X019102Y001275D01*
X019166Y001345D01*
X019227Y001419D01*
X019284Y001495D01*
X019338Y001574D01*
X019387Y001655D01*
X019433Y001739D01*
X019474Y001824D01*
X019512Y001912D01*
X019545Y002001D01*
X019574Y002092D01*
X019599Y002183D01*
X019619Y002276D01*
X019635Y002370D01*
X019646Y002465D01*
X019653Y002560D01*
X019655Y002655D01*
X017655Y000655D02*
X002655Y000655D01*
X002025Y002655D02*
X002027Y002705D01*
X002033Y002755D01*
X002043Y002804D01*
X002057Y002852D01*
X002074Y002899D01*
X002095Y002944D01*
X002120Y002988D01*
X002148Y003029D01*
X002180Y003068D01*
X002214Y003105D01*
X002251Y003139D01*
X002291Y003169D01*
X002333Y003196D01*
X002377Y003220D01*
X002423Y003241D01*
X002470Y003257D01*
X002518Y003270D01*
X002568Y003279D01*
X002617Y003284D01*
X002668Y003285D01*
X002718Y003282D01*
X002767Y003275D01*
X002816Y003264D01*
X002864Y003249D01*
X002910Y003231D01*
X002955Y003209D01*
X002998Y003183D01*
X003039Y003154D01*
X003078Y003122D01*
X003114Y003087D01*
X003146Y003049D01*
X003176Y003009D01*
X003203Y002966D01*
X003226Y002922D01*
X003245Y002876D01*
X003261Y002828D01*
X003273Y002779D01*
X003281Y002730D01*
X003285Y002680D01*
X003285Y002630D01*
X003281Y002580D01*
X003273Y002531D01*
X003261Y002482D01*
X003245Y002434D01*
X003226Y002388D01*
X003203Y002344D01*
X003176Y002301D01*
X003146Y002261D01*
X003114Y002223D01*
X003078Y002188D01*
X003039Y002156D01*
X002998Y002127D01*
X002955Y002101D01*
X002910Y002079D01*
X002864Y002061D01*
X002816Y002046D01*
X002767Y002035D01*
X002718Y002028D01*
X002668Y002025D01*
X002617Y002026D01*
X002568Y002031D01*
X002518Y002040D01*
X002470Y002053D01*
X002423Y002069D01*
X002377Y002090D01*
X002333Y002114D01*
X002291Y002141D01*
X002251Y002171D01*
X002214Y002205D01*
X002180Y002242D01*
X002148Y002281D01*
X002120Y002322D01*
X002095Y002366D01*
X002074Y002411D01*
X002057Y002458D01*
X002043Y002506D01*
X002033Y002555D01*
X002027Y002605D01*
X002025Y002655D01*
X000655Y002655D02*
X000657Y002560D01*
X000664Y002465D01*
X000675Y002370D01*
X000691Y002276D01*
X000711Y002183D01*
X000736Y002092D01*
X000765Y002001D01*
X000798Y001912D01*
X000836Y001824D01*
X000877Y001739D01*
X000923Y001655D01*
X000972Y001574D01*
X001026Y001495D01*
X001083Y001419D01*
X001144Y001345D01*
X001208Y001275D01*
X001275Y001208D01*
X001345Y001144D01*
X001419Y001083D01*
X001495Y001026D01*
X001574Y000972D01*
X001655Y000923D01*
X001739Y000877D01*
X001824Y000836D01*
X001912Y000798D01*
X002001Y000765D01*
X002092Y000736D01*
X002183Y000711D01*
X002276Y000691D01*
X002370Y000675D01*
X002465Y000664D01*
X002560Y000657D01*
X002655Y000655D01*
X009260Y017934D02*
X009262Y017954D01*
X009268Y017974D01*
X009277Y017992D01*
X009290Y018009D01*
X009305Y018022D01*
X009323Y018032D01*
X009343Y018039D01*
X009363Y018042D01*
X009383Y018041D01*
X009403Y018036D01*
X009422Y018028D01*
X009439Y018016D01*
X009453Y018001D01*
X009464Y017983D01*
X009472Y017964D01*
X009476Y017944D01*
X009476Y017924D01*
X009472Y017904D01*
X009464Y017885D01*
X009453Y017867D01*
X009439Y017852D01*
X009422Y017840D01*
X009403Y017832D01*
X009383Y017827D01*
X009363Y017826D01*
X009343Y017829D01*
X009323Y017836D01*
X009305Y017846D01*
X009290Y017859D01*
X009277Y017876D01*
X009268Y017894D01*
X009262Y017914D01*
X009260Y017934D01*
X010835Y017934D02*
X010837Y017954D01*
X010843Y017974D01*
X010852Y017992D01*
X010865Y018009D01*
X010880Y018022D01*
X010898Y018032D01*
X010918Y018039D01*
X010938Y018042D01*
X010958Y018041D01*
X010978Y018036D01*
X010997Y018028D01*
X011014Y018016D01*
X011028Y018001D01*
X011039Y017983D01*
X011047Y017964D01*
X011051Y017944D01*
X011051Y017924D01*
X011047Y017904D01*
X011039Y017885D01*
X011028Y017867D01*
X011014Y017852D01*
X010997Y017840D01*
X010978Y017832D01*
X010958Y017827D01*
X010938Y017826D01*
X010918Y017829D01*
X010898Y017836D01*
X010880Y017846D01*
X010865Y017859D01*
X010852Y017876D01*
X010843Y017894D01*
X010837Y017914D01*
X010835Y017934D01*
D11*
X010667Y017629D03*
X010411Y017629D03*
X010155Y017629D03*
X009899Y017629D03*
X009643Y017629D03*
D12*
X010155Y018780D03*
D13*
X010155Y012439D03*
X010470Y012439D03*
X010785Y012439D03*
X011100Y012439D03*
X011415Y012439D03*
X011730Y012439D03*
X009840Y012439D03*
X009525Y012439D03*
X009210Y012439D03*
X008895Y012439D03*
X008580Y012439D03*
X008580Y007872D03*
X008895Y007872D03*
X009210Y007872D03*
X009525Y007872D03*
X009840Y007872D03*
X010155Y007872D03*
X010470Y007872D03*
X010785Y007872D03*
X011100Y007872D03*
X011415Y007872D03*
X011730Y007872D03*
D14*
X012439Y008580D03*
X012439Y008895D03*
X012439Y009210D03*
X012439Y009525D03*
X012439Y009840D03*
X012439Y010155D03*
X012439Y010470D03*
X012439Y010785D03*
X012439Y011100D03*
X012439Y011415D03*
X012439Y011730D03*
X007872Y011730D03*
X007872Y011415D03*
X007872Y011100D03*
X007872Y010785D03*
X007872Y010470D03*
X007872Y010155D03*
X007872Y009840D03*
X007872Y009525D03*
X007872Y009210D03*
X007872Y008895D03*
X007872Y008580D03*
D15*
X005655Y008255D03*
X005655Y012055D03*
D16*
X005655Y013820D03*
X005655Y014490D03*
X008655Y014490D03*
X008655Y013820D03*
X009655Y013820D03*
X009655Y014490D03*
X011655Y015320D03*
X011655Y015990D03*
X017820Y010155D03*
X018490Y010155D03*
X018490Y007155D03*
X017820Y007155D03*
X008655Y006490D03*
X008655Y005820D03*
X005655Y005820D03*
X005655Y006490D03*
X002490Y010155D03*
X001820Y010155D03*
X001820Y013155D03*
X002490Y013155D03*
D17*
X007655Y013820D03*
X007655Y014490D03*
X009655Y015320D03*
X009655Y015990D03*
X010655Y015990D03*
X010655Y015320D03*
X013820Y011655D03*
X014490Y011655D03*
X014490Y010655D03*
X013820Y010655D03*
X013820Y008655D03*
X014490Y008655D03*
X013655Y002490D03*
X013655Y001820D03*
X006655Y001820D03*
X006655Y002490D03*
M02*
