%
M48
M72
T01C0.0197
T02C0.0217
T03C0.0394
T04C0.0400
T05C0.1260
%
T01
X4655Y14655
X4655Y14155
X7155Y11655
X8655Y10655
X9155Y9655
X9155Y9155
X8655Y9155
X8155Y7655
X10155Y5155
X10655Y5655
X9155Y3655
X5655Y4155
X4655Y4155
X3155Y5155
X3655Y5655
X1155Y10155
X8155Y15155
X8655Y15155
X9155Y17405
X12155Y15905
X10655Y11655
X11155Y11155
X11655Y11155
X11655Y9155
X11155Y9155
X19155Y7155
T02
X9368Y17934
X10943Y17934
T03
X9043Y18780
X11267Y18780
X15655Y13655
X15655Y12655
X15655Y11655
X15655Y10655
X15655Y9655
X15655Y8655
X15655Y7655
X15655Y6655
X18155Y8155
X18155Y9155
X18155Y11155
X18155Y12155
X12655Y2155
X11655Y2155
X10655Y2155
X8655Y2155
X7655Y2155
X2155Y8155
X2155Y9155
X2155Y11155
X2155Y12155
T04
X5155Y18155
X5155Y17155
X6155Y17155
X6155Y18155
X7155Y18155
X7155Y17155
T05
X2655Y2655
X17655Y2655
X17655Y17655
X2655Y17655
M30
