G75*
G70*
%OFA0B0*%
%FSLAX24Y24*%
%IPPOS*%
%LPD*%
%AMOC8*
5,1,8,0,0,1.08239X$1,22.5*
%
%ADD10C,0.0000*%
%ADD11C,0.0594*%
%ADD12R,0.0600X0.0600*%
%ADD13OC8,0.0600*%
%ADD14C,0.0594*%
%ADD15C,0.0660*%
%ADD16C,0.0100*%
%ADD17C,0.0357*%
D10*
X000655Y002655D02*
X000655Y017655D01*
X002025Y017655D02*
X002027Y017705D01*
X002033Y017755D01*
X002043Y017804D01*
X002057Y017852D01*
X002074Y017899D01*
X002095Y017944D01*
X002120Y017988D01*
X002148Y018029D01*
X002180Y018068D01*
X002214Y018105D01*
X002251Y018139D01*
X002291Y018169D01*
X002333Y018196D01*
X002377Y018220D01*
X002423Y018241D01*
X002470Y018257D01*
X002518Y018270D01*
X002568Y018279D01*
X002617Y018284D01*
X002668Y018285D01*
X002718Y018282D01*
X002767Y018275D01*
X002816Y018264D01*
X002864Y018249D01*
X002910Y018231D01*
X002955Y018209D01*
X002998Y018183D01*
X003039Y018154D01*
X003078Y018122D01*
X003114Y018087D01*
X003146Y018049D01*
X003176Y018009D01*
X003203Y017966D01*
X003226Y017922D01*
X003245Y017876D01*
X003261Y017828D01*
X003273Y017779D01*
X003281Y017730D01*
X003285Y017680D01*
X003285Y017630D01*
X003281Y017580D01*
X003273Y017531D01*
X003261Y017482D01*
X003245Y017434D01*
X003226Y017388D01*
X003203Y017344D01*
X003176Y017301D01*
X003146Y017261D01*
X003114Y017223D01*
X003078Y017188D01*
X003039Y017156D01*
X002998Y017127D01*
X002955Y017101D01*
X002910Y017079D01*
X002864Y017061D01*
X002816Y017046D01*
X002767Y017035D01*
X002718Y017028D01*
X002668Y017025D01*
X002617Y017026D01*
X002568Y017031D01*
X002518Y017040D01*
X002470Y017053D01*
X002423Y017069D01*
X002377Y017090D01*
X002333Y017114D01*
X002291Y017141D01*
X002251Y017171D01*
X002214Y017205D01*
X002180Y017242D01*
X002148Y017281D01*
X002120Y017322D01*
X002095Y017366D01*
X002074Y017411D01*
X002057Y017458D01*
X002043Y017506D01*
X002033Y017555D01*
X002027Y017605D01*
X002025Y017655D01*
X000655Y017655D02*
X000657Y017750D01*
X000664Y017845D01*
X000675Y017940D01*
X000691Y018034D01*
X000711Y018127D01*
X000736Y018218D01*
X000765Y018309D01*
X000798Y018398D01*
X000836Y018486D01*
X000877Y018571D01*
X000923Y018655D01*
X000972Y018736D01*
X001026Y018815D01*
X001083Y018891D01*
X001144Y018965D01*
X001208Y019035D01*
X001275Y019102D01*
X001345Y019166D01*
X001419Y019227D01*
X001495Y019284D01*
X001574Y019338D01*
X001655Y019387D01*
X001739Y019433D01*
X001824Y019474D01*
X001912Y019512D01*
X002001Y019545D01*
X002092Y019574D01*
X002183Y019599D01*
X002276Y019619D01*
X002370Y019635D01*
X002465Y019646D01*
X002560Y019653D01*
X002655Y019655D01*
X017655Y019655D01*
X017025Y017655D02*
X017027Y017705D01*
X017033Y017755D01*
X017043Y017804D01*
X017057Y017852D01*
X017074Y017899D01*
X017095Y017944D01*
X017120Y017988D01*
X017148Y018029D01*
X017180Y018068D01*
X017214Y018105D01*
X017251Y018139D01*
X017291Y018169D01*
X017333Y018196D01*
X017377Y018220D01*
X017423Y018241D01*
X017470Y018257D01*
X017518Y018270D01*
X017568Y018279D01*
X017617Y018284D01*
X017668Y018285D01*
X017718Y018282D01*
X017767Y018275D01*
X017816Y018264D01*
X017864Y018249D01*
X017910Y018231D01*
X017955Y018209D01*
X017998Y018183D01*
X018039Y018154D01*
X018078Y018122D01*
X018114Y018087D01*
X018146Y018049D01*
X018176Y018009D01*
X018203Y017966D01*
X018226Y017922D01*
X018245Y017876D01*
X018261Y017828D01*
X018273Y017779D01*
X018281Y017730D01*
X018285Y017680D01*
X018285Y017630D01*
X018281Y017580D01*
X018273Y017531D01*
X018261Y017482D01*
X018245Y017434D01*
X018226Y017388D01*
X018203Y017344D01*
X018176Y017301D01*
X018146Y017261D01*
X018114Y017223D01*
X018078Y017188D01*
X018039Y017156D01*
X017998Y017127D01*
X017955Y017101D01*
X017910Y017079D01*
X017864Y017061D01*
X017816Y017046D01*
X017767Y017035D01*
X017718Y017028D01*
X017668Y017025D01*
X017617Y017026D01*
X017568Y017031D01*
X017518Y017040D01*
X017470Y017053D01*
X017423Y017069D01*
X017377Y017090D01*
X017333Y017114D01*
X017291Y017141D01*
X017251Y017171D01*
X017214Y017205D01*
X017180Y017242D01*
X017148Y017281D01*
X017120Y017322D01*
X017095Y017366D01*
X017074Y017411D01*
X017057Y017458D01*
X017043Y017506D01*
X017033Y017555D01*
X017027Y017605D01*
X017025Y017655D01*
X017655Y019655D02*
X017750Y019653D01*
X017845Y019646D01*
X017940Y019635D01*
X018034Y019619D01*
X018127Y019599D01*
X018218Y019574D01*
X018309Y019545D01*
X018398Y019512D01*
X018486Y019474D01*
X018571Y019433D01*
X018655Y019387D01*
X018736Y019338D01*
X018815Y019284D01*
X018891Y019227D01*
X018965Y019166D01*
X019035Y019102D01*
X019102Y019035D01*
X019166Y018965D01*
X019227Y018891D01*
X019284Y018815D01*
X019338Y018736D01*
X019387Y018655D01*
X019433Y018571D01*
X019474Y018486D01*
X019512Y018398D01*
X019545Y018309D01*
X019574Y018218D01*
X019599Y018127D01*
X019619Y018034D01*
X019635Y017940D01*
X019646Y017845D01*
X019653Y017750D01*
X019655Y017655D01*
X019655Y002655D01*
X017025Y002655D02*
X017027Y002705D01*
X017033Y002755D01*
X017043Y002804D01*
X017057Y002852D01*
X017074Y002899D01*
X017095Y002944D01*
X017120Y002988D01*
X017148Y003029D01*
X017180Y003068D01*
X017214Y003105D01*
X017251Y003139D01*
X017291Y003169D01*
X017333Y003196D01*
X017377Y003220D01*
X017423Y003241D01*
X017470Y003257D01*
X017518Y003270D01*
X017568Y003279D01*
X017617Y003284D01*
X017668Y003285D01*
X017718Y003282D01*
X017767Y003275D01*
X017816Y003264D01*
X017864Y003249D01*
X017910Y003231D01*
X017955Y003209D01*
X017998Y003183D01*
X018039Y003154D01*
X018078Y003122D01*
X018114Y003087D01*
X018146Y003049D01*
X018176Y003009D01*
X018203Y002966D01*
X018226Y002922D01*
X018245Y002876D01*
X018261Y002828D01*
X018273Y002779D01*
X018281Y002730D01*
X018285Y002680D01*
X018285Y002630D01*
X018281Y002580D01*
X018273Y002531D01*
X018261Y002482D01*
X018245Y002434D01*
X018226Y002388D01*
X018203Y002344D01*
X018176Y002301D01*
X018146Y002261D01*
X018114Y002223D01*
X018078Y002188D01*
X018039Y002156D01*
X017998Y002127D01*
X017955Y002101D01*
X017910Y002079D01*
X017864Y002061D01*
X017816Y002046D01*
X017767Y002035D01*
X017718Y002028D01*
X017668Y002025D01*
X017617Y002026D01*
X017568Y002031D01*
X017518Y002040D01*
X017470Y002053D01*
X017423Y002069D01*
X017377Y002090D01*
X017333Y002114D01*
X017291Y002141D01*
X017251Y002171D01*
X017214Y002205D01*
X017180Y002242D01*
X017148Y002281D01*
X017120Y002322D01*
X017095Y002366D01*
X017074Y002411D01*
X017057Y002458D01*
X017043Y002506D01*
X017033Y002555D01*
X017027Y002605D01*
X017025Y002655D01*
X017655Y000655D02*
X017750Y000657D01*
X017845Y000664D01*
X017940Y000675D01*
X018034Y000691D01*
X018127Y000711D01*
X018218Y000736D01*
X018309Y000765D01*
X018398Y000798D01*
X018486Y000836D01*
X018571Y000877D01*
X018655Y000923D01*
X018736Y000972D01*
X018815Y001026D01*
X018891Y001083D01*
X018965Y001144D01*
X019035Y001208D01*
X019102Y001275D01*
X019166Y001345D01*
X019227Y001419D01*
X019284Y001495D01*
X019338Y001574D01*
X019387Y001655D01*
X019433Y001739D01*
X019474Y001824D01*
X019512Y001912D01*
X019545Y002001D01*
X019574Y002092D01*
X019599Y002183D01*
X019619Y002276D01*
X019635Y002370D01*
X019646Y002465D01*
X019653Y002560D01*
X019655Y002655D01*
X017655Y000655D02*
X002655Y000655D01*
X002025Y002655D02*
X002027Y002705D01*
X002033Y002755D01*
X002043Y002804D01*
X002057Y002852D01*
X002074Y002899D01*
X002095Y002944D01*
X002120Y002988D01*
X002148Y003029D01*
X002180Y003068D01*
X002214Y003105D01*
X002251Y003139D01*
X002291Y003169D01*
X002333Y003196D01*
X002377Y003220D01*
X002423Y003241D01*
X002470Y003257D01*
X002518Y003270D01*
X002568Y003279D01*
X002617Y003284D01*
X002668Y003285D01*
X002718Y003282D01*
X002767Y003275D01*
X002816Y003264D01*
X002864Y003249D01*
X002910Y003231D01*
X002955Y003209D01*
X002998Y003183D01*
X003039Y003154D01*
X003078Y003122D01*
X003114Y003087D01*
X003146Y003049D01*
X003176Y003009D01*
X003203Y002966D01*
X003226Y002922D01*
X003245Y002876D01*
X003261Y002828D01*
X003273Y002779D01*
X003281Y002730D01*
X003285Y002680D01*
X003285Y002630D01*
X003281Y002580D01*
X003273Y002531D01*
X003261Y002482D01*
X003245Y002434D01*
X003226Y002388D01*
X003203Y002344D01*
X003176Y002301D01*
X003146Y002261D01*
X003114Y002223D01*
X003078Y002188D01*
X003039Y002156D01*
X002998Y002127D01*
X002955Y002101D01*
X002910Y002079D01*
X002864Y002061D01*
X002816Y002046D01*
X002767Y002035D01*
X002718Y002028D01*
X002668Y002025D01*
X002617Y002026D01*
X002568Y002031D01*
X002518Y002040D01*
X002470Y002053D01*
X002423Y002069D01*
X002377Y002090D01*
X002333Y002114D01*
X002291Y002141D01*
X002251Y002171D01*
X002214Y002205D01*
X002180Y002242D01*
X002148Y002281D01*
X002120Y002322D01*
X002095Y002366D01*
X002074Y002411D01*
X002057Y002458D01*
X002043Y002506D01*
X002033Y002555D01*
X002027Y002605D01*
X002025Y002655D01*
X000655Y002655D02*
X000657Y002560D01*
X000664Y002465D01*
X000675Y002370D01*
X000691Y002276D01*
X000711Y002183D01*
X000736Y002092D01*
X000765Y002001D01*
X000798Y001912D01*
X000836Y001824D01*
X000877Y001739D01*
X000923Y001655D01*
X000972Y001574D01*
X001026Y001495D01*
X001083Y001419D01*
X001144Y001345D01*
X001208Y001275D01*
X001275Y001208D01*
X001345Y001144D01*
X001419Y001083D01*
X001495Y001026D01*
X001574Y000972D01*
X001655Y000923D01*
X001739Y000877D01*
X001824Y000836D01*
X001912Y000798D01*
X002001Y000765D01*
X002092Y000736D01*
X002183Y000711D01*
X002276Y000691D01*
X002370Y000675D01*
X002465Y000664D01*
X002560Y000657D01*
X002655Y000655D01*
X009260Y017934D02*
X009262Y017954D01*
X009268Y017974D01*
X009277Y017992D01*
X009290Y018009D01*
X009305Y018022D01*
X009323Y018032D01*
X009343Y018039D01*
X009363Y018042D01*
X009383Y018041D01*
X009403Y018036D01*
X009422Y018028D01*
X009439Y018016D01*
X009453Y018001D01*
X009464Y017983D01*
X009472Y017964D01*
X009476Y017944D01*
X009476Y017924D01*
X009472Y017904D01*
X009464Y017885D01*
X009453Y017867D01*
X009439Y017852D01*
X009422Y017840D01*
X009403Y017832D01*
X009383Y017827D01*
X009363Y017826D01*
X009343Y017829D01*
X009323Y017836D01*
X009305Y017846D01*
X009290Y017859D01*
X009277Y017876D01*
X009268Y017894D01*
X009262Y017914D01*
X009260Y017934D01*
X010835Y017934D02*
X010837Y017954D01*
X010843Y017974D01*
X010852Y017992D01*
X010865Y018009D01*
X010880Y018022D01*
X010898Y018032D01*
X010918Y018039D01*
X010938Y018042D01*
X010958Y018041D01*
X010978Y018036D01*
X010997Y018028D01*
X011014Y018016D01*
X011028Y018001D01*
X011039Y017983D01*
X011047Y017964D01*
X011051Y017944D01*
X011051Y017924D01*
X011047Y017904D01*
X011039Y017885D01*
X011028Y017867D01*
X011014Y017852D01*
X010997Y017840D01*
X010978Y017832D01*
X010958Y017827D01*
X010938Y017826D01*
X010918Y017829D01*
X010898Y017836D01*
X010880Y017846D01*
X010865Y017859D01*
X010852Y017876D01*
X010843Y017894D01*
X010837Y017914D01*
X010835Y017934D01*
D11*
X011267Y018780D03*
X009043Y018780D03*
D12*
X005155Y017155D03*
D13*
X005155Y018155D03*
X006155Y018155D03*
X006155Y017155D03*
X007155Y017155D03*
X007155Y018155D03*
D14*
X002452Y012155D02*
X001858Y012155D01*
X001858Y011155D02*
X002452Y011155D01*
X002452Y009155D02*
X001858Y009155D01*
X001858Y008155D02*
X002452Y008155D01*
X007655Y002452D02*
X007655Y001858D01*
X008655Y001858D02*
X008655Y002452D01*
X010655Y002452D02*
X010655Y001858D01*
X011655Y001858D02*
X011655Y002452D01*
X012655Y002452D02*
X012655Y001858D01*
X017858Y008155D02*
X018452Y008155D01*
X018452Y009155D02*
X017858Y009155D01*
X017858Y011155D02*
X018452Y011155D01*
X018452Y012155D02*
X017858Y012155D01*
D15*
X015655Y011655D03*
X015655Y010655D03*
X015655Y009655D03*
X015655Y008655D03*
X015655Y007655D03*
X015655Y006655D03*
X015655Y012655D03*
X015655Y013655D03*
D16*
X001089Y001671D02*
X001347Y001347D01*
X001671Y001089D01*
X002044Y000909D01*
X002448Y000817D01*
X002655Y000805D01*
X017655Y000805D01*
X017862Y000817D01*
X018266Y000909D01*
X018639Y001089D01*
X018963Y001347D01*
X019222Y001671D01*
X019401Y002044D01*
X019494Y002448D01*
X019505Y002655D01*
X019505Y017593D01*
X019505Y017623D01*
X019505Y017655D01*
X019494Y017862D01*
X019401Y018266D01*
X019222Y018639D01*
X018963Y018963D01*
X018639Y019222D01*
X018266Y019401D01*
X017862Y019494D01*
X017655Y019505D01*
X002717Y019505D01*
X002702Y019505D01*
X002655Y019505D01*
X002448Y019494D01*
X002044Y019401D01*
X001671Y019222D01*
X001347Y018963D01*
X001089Y018639D01*
X000909Y018266D01*
X000817Y017862D01*
X000805Y017655D01*
X000805Y002717D01*
X000805Y002707D01*
X000805Y002655D01*
X000817Y002448D01*
X000909Y002044D01*
X001089Y001671D01*
X001113Y001641D02*
X001372Y001641D01*
X001305Y001739D02*
X001056Y001739D01*
X001008Y001838D02*
X001238Y001838D01*
X001171Y001936D02*
X000961Y001936D01*
X000913Y002035D02*
X001139Y002035D01*
X001169Y001939D02*
X001446Y001533D01*
X001830Y001226D01*
X002288Y001046D01*
X002778Y001010D01*
X002778Y001010D01*
X003258Y001119D01*
X003684Y001365D01*
X004018Y001726D01*
X004232Y002169D01*
X004305Y002655D01*
X004232Y003141D01*
X004232Y003141D01*
X004018Y003585D01*
X003684Y003945D01*
X003258Y004191D01*
X003258Y004191D01*
X002778Y004300D01*
X002288Y004264D01*
X001830Y004084D01*
X001446Y003777D01*
X001169Y003371D01*
X001024Y002901D01*
X001024Y002409D01*
X001169Y001939D01*
X001169Y001939D01*
X001109Y002133D02*
X000889Y002133D01*
X000866Y002232D02*
X001078Y002232D01*
X001048Y002330D02*
X000844Y002330D01*
X000821Y002429D02*
X001024Y002429D01*
X001024Y002527D02*
X000812Y002527D01*
X000807Y002626D02*
X001024Y002626D01*
X001024Y002725D02*
X000805Y002725D01*
X000805Y002823D02*
X001024Y002823D01*
X001030Y002922D02*
X000805Y002922D01*
X000805Y003020D02*
X001060Y003020D01*
X001091Y003119D02*
X000805Y003119D01*
X000805Y003217D02*
X001121Y003217D01*
X001151Y003316D02*
X000805Y003316D01*
X000805Y003414D02*
X001198Y003414D01*
X001169Y003371D02*
X001169Y003371D01*
X001265Y003513D02*
X000805Y003513D01*
X000805Y003611D02*
X001332Y003611D01*
X001400Y003710D02*
X000805Y003710D01*
X000805Y003809D02*
X001485Y003809D01*
X001446Y003777D02*
X001446Y003777D01*
X001608Y003907D02*
X000805Y003907D01*
X000805Y004006D02*
X001732Y004006D01*
X001830Y004084D02*
X001830Y004084D01*
X001881Y004104D02*
X000805Y004104D01*
X000805Y004203D02*
X002132Y004203D01*
X002288Y004264D02*
X002288Y004264D01*
X002778Y004300D02*
X002778Y004300D01*
X003207Y004203D02*
X017132Y004203D01*
X017288Y004264D02*
X016830Y004084D01*
X016446Y003777D01*
X016169Y003371D01*
X016024Y002901D01*
X016024Y002409D01*
X016169Y001939D01*
X016446Y001533D01*
X016830Y001226D01*
X017288Y001046D01*
X017778Y001010D01*
X017778Y001010D01*
X018258Y001119D01*
X018684Y001365D01*
X019018Y001726D01*
X019232Y002169D01*
X019305Y002655D01*
X019232Y003141D01*
X019232Y003141D01*
X019018Y003585D01*
X018684Y003945D01*
X018258Y004191D01*
X018258Y004191D01*
X017778Y004300D01*
X017288Y004264D01*
X017288Y004264D01*
X016881Y004104D02*
X003408Y004104D01*
X003579Y004006D02*
X016732Y004006D01*
X016830Y004084D02*
X016830Y004084D01*
X016608Y003907D02*
X009339Y003907D01*
X009330Y003917D02*
X009411Y003835D01*
X012081Y003835D01*
X012230Y003835D01*
X012730Y003335D01*
X012835Y003230D01*
X012835Y002839D01*
X012897Y002814D01*
X013017Y002694D01*
X013082Y002537D01*
X013082Y001773D01*
X013017Y001616D01*
X012897Y001496D01*
X012740Y001431D01*
X012570Y001431D01*
X012413Y001496D01*
X012293Y001616D01*
X012228Y001773D01*
X012228Y002537D01*
X012293Y002694D01*
X012413Y002814D01*
X012475Y002839D01*
X012475Y003081D01*
X012081Y003475D01*
X009411Y003475D01*
X009330Y003394D01*
X009216Y003347D01*
X009094Y003347D01*
X008980Y003394D01*
X008894Y003480D01*
X008847Y003594D01*
X008847Y003716D01*
X008894Y003830D01*
X008980Y003917D01*
X009094Y003964D01*
X009216Y003964D01*
X009330Y003917D01*
X008971Y003907D02*
X003719Y003907D01*
X003684Y003945D02*
X003684Y003945D01*
X003811Y003809D02*
X008885Y003809D01*
X008847Y003710D02*
X003902Y003710D01*
X003994Y003611D02*
X008847Y003611D01*
X008880Y003513D02*
X004053Y003513D01*
X004018Y003585D02*
X004018Y003585D01*
X004100Y003414D02*
X008960Y003414D01*
X009155Y003655D02*
X012155Y003655D01*
X012655Y003155D01*
X012655Y002155D01*
X012228Y002133D02*
X011704Y002133D01*
X011704Y002107D02*
X011704Y002204D01*
X012102Y002204D01*
X012102Y002487D01*
X012091Y002557D01*
X012069Y002624D01*
X012037Y002686D01*
X011996Y002743D01*
X011946Y002793D01*
X011889Y002834D01*
X011827Y002866D01*
X011760Y002888D01*
X011704Y002897D01*
X011704Y002204D01*
X011607Y002204D01*
X011607Y002897D01*
X011550Y002888D01*
X011484Y002866D01*
X011421Y002834D01*
X011364Y002793D01*
X011314Y002743D01*
X011273Y002686D01*
X011241Y002624D01*
X011219Y002557D01*
X011208Y002487D01*
X011208Y002204D01*
X011606Y002204D01*
X011606Y002107D01*
X011208Y002107D01*
X011208Y001823D01*
X011219Y001754D01*
X011241Y001687D01*
X011273Y001624D01*
X011314Y001567D01*
X011364Y001517D01*
X011421Y001476D01*
X011484Y001444D01*
X011550Y001422D01*
X011607Y001414D01*
X011607Y002106D01*
X011704Y002106D01*
X011704Y001414D01*
X011760Y001422D01*
X011827Y001444D01*
X011889Y001476D01*
X011946Y001517D01*
X011996Y001567D01*
X012037Y001624D01*
X012069Y001687D01*
X012091Y001754D01*
X012102Y001823D01*
X012102Y002107D01*
X011704Y002107D01*
X011704Y002035D02*
X011607Y002035D01*
X011606Y002133D02*
X011082Y002133D01*
X011082Y002035D02*
X011208Y002035D01*
X011208Y001936D02*
X011082Y001936D01*
X011082Y001838D02*
X011208Y001838D01*
X011224Y001739D02*
X011068Y001739D01*
X011082Y001773D02*
X011082Y002537D01*
X011017Y002694D01*
X010897Y002814D01*
X010740Y002879D01*
X010570Y002879D01*
X010413Y002814D01*
X010293Y002694D01*
X010228Y002537D01*
X010228Y001773D01*
X010293Y001616D01*
X010413Y001496D01*
X010570Y001431D01*
X010740Y001431D01*
X010897Y001496D01*
X011017Y001616D01*
X011082Y001773D01*
X011027Y001641D02*
X011264Y001641D01*
X011339Y001542D02*
X010943Y001542D01*
X010769Y001443D02*
X011486Y001443D01*
X011607Y001443D02*
X011704Y001443D01*
X011704Y001542D02*
X011607Y001542D01*
X011607Y001641D02*
X011704Y001641D01*
X011704Y001739D02*
X011607Y001739D01*
X011607Y001838D02*
X011704Y001838D01*
X011704Y001936D02*
X011607Y001936D01*
X011607Y002232D02*
X011704Y002232D01*
X011704Y002330D02*
X011607Y002330D01*
X011607Y002429D02*
X011704Y002429D01*
X011704Y002527D02*
X011607Y002527D01*
X011607Y002626D02*
X011704Y002626D01*
X011704Y002725D02*
X011607Y002725D01*
X011607Y002823D02*
X011704Y002823D01*
X011905Y002823D02*
X012436Y002823D01*
X012475Y002922D02*
X004265Y002922D01*
X004250Y003020D02*
X012475Y003020D01*
X012437Y003119D02*
X004235Y003119D01*
X004195Y003217D02*
X012338Y003217D01*
X012240Y003316D02*
X004148Y003316D01*
X004280Y002823D02*
X007436Y002823D01*
X007413Y002814D02*
X007293Y002694D01*
X007228Y002537D01*
X007228Y001773D01*
X007293Y001616D01*
X007413Y001496D01*
X007570Y001431D01*
X007740Y001431D01*
X007897Y001496D01*
X008017Y001616D01*
X008082Y001773D01*
X008082Y002537D01*
X008017Y002694D01*
X007897Y002814D01*
X007740Y002879D01*
X007570Y002879D01*
X007413Y002814D01*
X007324Y002725D02*
X004295Y002725D01*
X004301Y002626D02*
X007265Y002626D01*
X007228Y002527D02*
X004286Y002527D01*
X004271Y002429D02*
X007228Y002429D01*
X007228Y002330D02*
X004256Y002330D01*
X004241Y002232D02*
X007228Y002232D01*
X007228Y002133D02*
X004215Y002133D01*
X004232Y002169D02*
X004232Y002169D01*
X004167Y002035D02*
X007228Y002035D01*
X007228Y001936D02*
X004120Y001936D01*
X004072Y001838D02*
X007228Y001838D01*
X007242Y001739D02*
X004025Y001739D01*
X004018Y001726D02*
X004018Y001726D01*
X003939Y001641D02*
X007283Y001641D01*
X007368Y001542D02*
X003848Y001542D01*
X003757Y001443D02*
X007541Y001443D01*
X007769Y001443D02*
X008486Y001443D01*
X008484Y001444D02*
X008550Y001422D01*
X008607Y001414D01*
X008607Y002106D01*
X008704Y002106D01*
X008704Y001414D01*
X008760Y001422D01*
X008827Y001444D01*
X008889Y001476D01*
X008946Y001517D01*
X008996Y001567D01*
X009037Y001624D01*
X009069Y001687D01*
X009091Y001754D01*
X009102Y001823D01*
X009102Y002107D01*
X008704Y002107D01*
X008704Y002204D01*
X009102Y002204D01*
X009102Y002487D01*
X009091Y002557D01*
X009069Y002624D01*
X009037Y002686D01*
X008996Y002743D01*
X008946Y002793D01*
X008889Y002834D01*
X008827Y002866D01*
X008760Y002888D01*
X008704Y002897D01*
X008704Y002204D01*
X008607Y002204D01*
X008607Y002897D01*
X008550Y002888D01*
X008484Y002866D01*
X008421Y002834D01*
X008364Y002793D01*
X008314Y002743D01*
X008273Y002686D01*
X008241Y002624D01*
X008219Y002557D01*
X008208Y002487D01*
X008208Y002204D01*
X008606Y002204D01*
X008606Y002107D01*
X008208Y002107D01*
X008208Y001823D01*
X008219Y001754D01*
X008241Y001687D01*
X008273Y001624D01*
X008314Y001567D01*
X008364Y001517D01*
X008421Y001476D01*
X008484Y001444D01*
X008607Y001443D02*
X008704Y001443D01*
X008704Y001542D02*
X008607Y001542D01*
X008607Y001641D02*
X008704Y001641D01*
X008704Y001739D02*
X008607Y001739D01*
X008607Y001838D02*
X008704Y001838D01*
X008704Y001936D02*
X008607Y001936D01*
X008607Y002035D02*
X008704Y002035D01*
X008704Y002133D02*
X010228Y002133D01*
X010228Y002035D02*
X009102Y002035D01*
X009102Y001936D02*
X010228Y001936D01*
X010228Y001838D02*
X009102Y001838D01*
X009086Y001739D02*
X010242Y001739D01*
X010283Y001641D02*
X009046Y001641D01*
X008971Y001542D02*
X010368Y001542D01*
X010541Y001443D02*
X008825Y001443D01*
X008339Y001542D02*
X007943Y001542D01*
X008027Y001641D02*
X008264Y001641D01*
X008224Y001739D02*
X008068Y001739D01*
X008082Y001838D02*
X008208Y001838D01*
X008208Y001936D02*
X008082Y001936D01*
X008082Y002035D02*
X008208Y002035D01*
X008082Y002133D02*
X008606Y002133D01*
X008607Y002232D02*
X008704Y002232D01*
X008704Y002330D02*
X008607Y002330D01*
X008607Y002429D02*
X008704Y002429D01*
X008704Y002527D02*
X008607Y002527D01*
X008607Y002626D02*
X008704Y002626D01*
X008704Y002725D02*
X008607Y002725D01*
X008607Y002823D02*
X008704Y002823D01*
X008905Y002823D02*
X010436Y002823D01*
X010324Y002725D02*
X009009Y002725D01*
X009068Y002626D02*
X010265Y002626D01*
X010228Y002527D02*
X009096Y002527D01*
X009102Y002429D02*
X010228Y002429D01*
X010228Y002330D02*
X009102Y002330D01*
X009102Y002232D02*
X010228Y002232D01*
X010875Y002823D02*
X011406Y002823D01*
X011301Y002725D02*
X010986Y002725D01*
X011045Y002626D02*
X011242Y002626D01*
X011215Y002527D02*
X011082Y002527D01*
X011082Y002429D02*
X011208Y002429D01*
X011208Y002330D02*
X011082Y002330D01*
X011082Y002232D02*
X011208Y002232D01*
X011825Y001443D02*
X012541Y001443D01*
X012368Y001542D02*
X011971Y001542D01*
X012046Y001641D02*
X012283Y001641D01*
X012242Y001739D02*
X012086Y001739D01*
X012102Y001838D02*
X012228Y001838D01*
X012228Y001936D02*
X012102Y001936D01*
X012102Y002035D02*
X012228Y002035D01*
X012228Y002232D02*
X012102Y002232D01*
X012102Y002330D02*
X012228Y002330D01*
X012228Y002429D02*
X012102Y002429D01*
X012096Y002527D02*
X012228Y002527D01*
X012265Y002626D02*
X012068Y002626D01*
X012009Y002725D02*
X012324Y002725D01*
X012835Y002922D02*
X016030Y002922D01*
X016024Y002901D02*
X016024Y002901D01*
X016024Y002823D02*
X012875Y002823D01*
X012986Y002725D02*
X016024Y002725D01*
X016024Y002626D02*
X013045Y002626D01*
X013082Y002527D02*
X016024Y002527D01*
X016024Y002429D02*
X013082Y002429D01*
X013082Y002330D02*
X016048Y002330D01*
X016024Y002409D02*
X016024Y002409D01*
X016078Y002232D02*
X013082Y002232D01*
X013082Y002133D02*
X016109Y002133D01*
X016139Y002035D02*
X013082Y002035D01*
X013082Y001936D02*
X016171Y001936D01*
X016169Y001939D02*
X016169Y001939D01*
X016238Y001838D02*
X013082Y001838D01*
X013068Y001739D02*
X016305Y001739D01*
X016372Y001641D02*
X013027Y001641D01*
X012943Y001542D02*
X016439Y001542D01*
X016446Y001533D02*
X016446Y001533D01*
X016446Y001533D01*
X016558Y001443D02*
X012769Y001443D01*
X012835Y003020D02*
X016060Y003020D01*
X016091Y003119D02*
X012835Y003119D01*
X012835Y003217D02*
X016121Y003217D01*
X016151Y003316D02*
X012749Y003316D01*
X012650Y003414D02*
X016198Y003414D01*
X016169Y003371D02*
X016169Y003371D01*
X016265Y003513D02*
X012552Y003513D01*
X012453Y003611D02*
X016332Y003611D01*
X016400Y003710D02*
X012355Y003710D01*
X012256Y003809D02*
X016485Y003809D01*
X016446Y003777D02*
X016446Y003777D01*
X016446Y003777D01*
X017778Y004300D02*
X017778Y004300D01*
X018207Y004203D02*
X019505Y004203D01*
X019505Y004301D02*
X000805Y004301D01*
X000805Y004400D02*
X019505Y004400D01*
X019505Y004498D02*
X000805Y004498D01*
X000805Y004597D02*
X019505Y004597D01*
X019505Y004695D02*
X000805Y004695D01*
X000805Y004794D02*
X019505Y004794D01*
X019505Y004892D02*
X010327Y004892D01*
X010330Y004894D02*
X010417Y004980D01*
X010464Y005094D01*
X010464Y005216D01*
X010417Y005330D01*
X010330Y005417D01*
X010216Y005464D01*
X010094Y005464D01*
X009980Y005417D01*
X009899Y005335D01*
X003411Y005335D01*
X003330Y005417D01*
X003216Y005464D01*
X003094Y005464D01*
X002980Y005417D01*
X002894Y005330D01*
X002847Y005216D01*
X002847Y005094D01*
X002894Y004980D01*
X002980Y004894D01*
X003094Y004847D01*
X003216Y004847D01*
X003330Y004894D01*
X003411Y004975D01*
X009899Y004975D01*
X009980Y004894D01*
X010094Y004847D01*
X010216Y004847D01*
X010330Y004894D01*
X010421Y004991D02*
X019505Y004991D01*
X019505Y005090D02*
X010462Y005090D01*
X010464Y005188D02*
X019505Y005188D01*
X019505Y005287D02*
X010434Y005287D01*
X010480Y005394D02*
X010594Y005347D01*
X010716Y005347D01*
X010830Y005394D01*
X010917Y005480D01*
X010964Y005594D01*
X010964Y005716D01*
X010917Y005830D01*
X010830Y005917D01*
X010716Y005964D01*
X010594Y005964D01*
X010480Y005917D01*
X010399Y005835D01*
X003911Y005835D01*
X003830Y005917D01*
X003716Y005964D01*
X003594Y005964D01*
X003480Y005917D01*
X003394Y005830D01*
X003347Y005716D01*
X003347Y005594D01*
X003394Y005480D01*
X003480Y005394D01*
X003594Y005347D01*
X003716Y005347D01*
X003830Y005394D01*
X003911Y005475D01*
X010399Y005475D01*
X010480Y005394D01*
X010501Y005385D02*
X010361Y005385D01*
X010155Y005155D02*
X003155Y005155D01*
X002876Y005287D02*
X000805Y005287D01*
X000805Y005385D02*
X002949Y005385D01*
X002847Y005188D02*
X000805Y005188D01*
X000805Y005090D02*
X002848Y005090D01*
X002889Y004991D02*
X000805Y004991D01*
X000805Y004892D02*
X002983Y004892D01*
X003327Y004892D02*
X009983Y004892D01*
X009949Y005385D02*
X003809Y005385D01*
X003501Y005385D02*
X003361Y005385D01*
X003392Y005484D02*
X000805Y005484D01*
X000805Y005582D02*
X003351Y005582D01*
X003347Y005681D02*
X000805Y005681D01*
X000805Y005779D02*
X003373Y005779D01*
X003442Y005878D02*
X000805Y005878D01*
X000805Y005976D02*
X001579Y005976D01*
X001581Y005975D02*
X006081Y005975D01*
X006230Y005975D01*
X009101Y008847D01*
X009216Y008847D01*
X009330Y008894D01*
X009417Y008980D01*
X009464Y009094D01*
X009464Y009216D01*
X009417Y009330D01*
X009341Y009405D01*
X009411Y009475D01*
X015232Y009475D01*
X015265Y009395D01*
X015395Y009265D01*
X015564Y009195D01*
X015747Y009195D01*
X015916Y009265D01*
X016045Y009395D01*
X016115Y009564D01*
X016115Y009747D01*
X016045Y009916D01*
X015916Y010045D01*
X015747Y010115D01*
X015564Y010115D01*
X015395Y010045D01*
X015265Y009916D01*
X015232Y009835D01*
X009411Y009835D01*
X009330Y009917D01*
X009218Y009963D01*
X009730Y010475D01*
X015232Y010475D01*
X015265Y010395D01*
X015395Y010265D01*
X015564Y010195D01*
X015747Y010195D01*
X015916Y010265D01*
X016045Y010395D01*
X016115Y010564D01*
X016115Y010747D01*
X016045Y010916D01*
X015916Y011045D01*
X015747Y011115D01*
X015564Y011115D01*
X015395Y011045D01*
X015265Y010916D01*
X015232Y010835D01*
X009581Y010835D01*
X009475Y010730D01*
X008475Y009730D01*
X008475Y009581D01*
X008475Y009411D01*
X008394Y009330D01*
X008347Y009216D01*
X008347Y009094D01*
X008394Y008980D01*
X008480Y008894D01*
X008593Y008847D01*
X006081Y006335D01*
X001730Y006335D01*
X001335Y006730D01*
X001335Y009899D01*
X001417Y009980D01*
X001464Y010094D01*
X001464Y010216D01*
X001417Y010330D01*
X001330Y010417D01*
X001216Y010464D01*
X001094Y010464D01*
X000980Y010417D01*
X000894Y010330D01*
X000847Y010216D01*
X000847Y010094D01*
X000894Y009980D01*
X000975Y009899D01*
X000975Y006730D01*
X000975Y006581D01*
X001475Y006081D01*
X001581Y005975D01*
X001481Y006075D02*
X000805Y006075D01*
X000805Y006174D02*
X001382Y006174D01*
X001284Y006272D02*
X000805Y006272D01*
X000805Y006371D02*
X001185Y006371D01*
X001086Y006469D02*
X000805Y006469D01*
X000805Y006568D02*
X000988Y006568D01*
X000975Y006666D02*
X000805Y006666D01*
X000805Y006765D02*
X000975Y006765D01*
X000975Y006863D02*
X000805Y006863D01*
X000805Y006962D02*
X000975Y006962D01*
X000975Y007060D02*
X000805Y007060D01*
X000805Y007159D02*
X000975Y007159D01*
X000975Y007258D02*
X000805Y007258D01*
X000805Y007356D02*
X000975Y007356D01*
X000975Y007455D02*
X000805Y007455D01*
X000805Y007553D02*
X000975Y007553D01*
X000975Y007652D02*
X000805Y007652D01*
X000805Y007750D02*
X000975Y007750D01*
X000975Y007849D02*
X000805Y007849D01*
X000805Y007947D02*
X000975Y007947D01*
X000975Y008046D02*
X000805Y008046D01*
X000805Y008144D02*
X000975Y008144D01*
X000975Y008243D02*
X000805Y008243D01*
X000805Y008341D02*
X000975Y008341D01*
X000975Y008440D02*
X000805Y008440D01*
X000805Y008539D02*
X000975Y008539D01*
X000975Y008637D02*
X000805Y008637D01*
X000805Y008736D02*
X000975Y008736D01*
X000975Y008834D02*
X000805Y008834D01*
X000805Y008933D02*
X000975Y008933D01*
X000975Y009031D02*
X000805Y009031D01*
X000805Y009130D02*
X000975Y009130D01*
X000975Y009228D02*
X000805Y009228D01*
X000805Y009327D02*
X000975Y009327D01*
X000975Y009425D02*
X000805Y009425D01*
X000805Y009524D02*
X000975Y009524D01*
X000975Y009623D02*
X000805Y009623D01*
X000805Y009721D02*
X000975Y009721D01*
X000975Y009820D02*
X000805Y009820D01*
X000805Y009918D02*
X000956Y009918D01*
X000879Y010017D02*
X000805Y010017D01*
X000805Y010115D02*
X000847Y010115D01*
X000847Y010214D02*
X000805Y010214D01*
X000805Y010312D02*
X000886Y010312D01*
X000805Y010411D02*
X000975Y010411D01*
X000805Y010509D02*
X009255Y010509D01*
X009156Y010411D02*
X001335Y010411D01*
X001424Y010312D02*
X009058Y010312D01*
X008959Y010214D02*
X001464Y010214D01*
X001464Y010115D02*
X008861Y010115D01*
X008762Y010017D02*
X001432Y010017D01*
X001354Y009918D02*
X008664Y009918D01*
X008565Y009820D02*
X001335Y009820D01*
X001335Y009721D02*
X008475Y009721D01*
X008475Y009623D02*
X001335Y009623D01*
X001335Y009524D02*
X001634Y009524D01*
X001616Y009517D02*
X001773Y009582D01*
X002537Y009582D01*
X002694Y009517D01*
X002814Y009397D01*
X002879Y009240D01*
X002879Y009070D01*
X002814Y008913D01*
X002694Y008793D01*
X002537Y008728D01*
X001773Y008728D01*
X001616Y008793D01*
X001496Y008913D01*
X001431Y009070D01*
X001431Y009240D01*
X001496Y009397D01*
X001616Y009517D01*
X001525Y009425D02*
X001335Y009425D01*
X001335Y009327D02*
X001467Y009327D01*
X001431Y009228D02*
X001335Y009228D01*
X001335Y009130D02*
X001431Y009130D01*
X001448Y009031D02*
X001335Y009031D01*
X001335Y008933D02*
X001488Y008933D01*
X001575Y008834D02*
X001335Y008834D01*
X001335Y008736D02*
X001755Y008736D01*
X001754Y008591D02*
X001687Y008569D01*
X001624Y008537D01*
X001567Y008496D01*
X001517Y008446D01*
X001476Y008389D01*
X001444Y008327D01*
X001422Y008260D01*
X001414Y008204D01*
X002106Y008204D01*
X002106Y008107D01*
X001414Y008107D01*
X001422Y008050D01*
X001444Y007984D01*
X001476Y007921D01*
X001517Y007864D01*
X001567Y007814D01*
X001624Y007773D01*
X001687Y007741D01*
X001754Y007719D01*
X001823Y007708D01*
X002107Y007708D01*
X002107Y008106D01*
X002204Y008106D01*
X002204Y007708D01*
X002487Y007708D01*
X002557Y007719D01*
X002624Y007741D01*
X002686Y007773D01*
X002743Y007814D01*
X002793Y007864D01*
X002834Y007921D01*
X002866Y007984D01*
X002888Y008050D01*
X002897Y008107D01*
X002204Y008107D01*
X002204Y008204D01*
X002107Y008204D01*
X002107Y008602D01*
X001823Y008602D01*
X001754Y008591D01*
X001627Y008539D02*
X001335Y008539D01*
X001335Y008637D02*
X008383Y008637D01*
X008481Y008736D02*
X002555Y008736D01*
X002557Y008591D02*
X002487Y008602D01*
X002204Y008602D01*
X002204Y008204D01*
X002897Y008204D01*
X002888Y008260D01*
X002866Y008327D01*
X002834Y008389D01*
X002793Y008446D01*
X002743Y008496D01*
X002686Y008537D01*
X002624Y008569D01*
X002557Y008591D01*
X002684Y008539D02*
X008284Y008539D01*
X008186Y008440D02*
X002797Y008440D01*
X002859Y008341D02*
X008087Y008341D01*
X007988Y008243D02*
X002890Y008243D01*
X002886Y008046D02*
X007791Y008046D01*
X007693Y007947D02*
X002848Y007947D01*
X002778Y007849D02*
X007594Y007849D01*
X007496Y007750D02*
X002642Y007750D01*
X002204Y007750D02*
X002107Y007750D01*
X002107Y007849D02*
X002204Y007849D01*
X002204Y007947D02*
X002107Y007947D01*
X002107Y008046D02*
X002204Y008046D01*
X002204Y008144D02*
X007890Y008144D01*
X008103Y007849D02*
X012207Y007849D01*
X012108Y007947D02*
X008202Y007947D01*
X008300Y008046D02*
X012010Y008046D01*
X011911Y008144D02*
X008399Y008144D01*
X008497Y008243D02*
X011813Y008243D01*
X011714Y008341D02*
X008596Y008341D01*
X008695Y008440D02*
X011616Y008440D01*
X011517Y008539D02*
X008793Y008539D01*
X008892Y008637D02*
X011419Y008637D01*
X011320Y008736D02*
X008990Y008736D01*
X009089Y008834D02*
X011221Y008834D01*
X011209Y008847D02*
X013581Y006475D01*
X013730Y006475D01*
X015232Y006475D01*
X015265Y006395D01*
X015395Y006265D01*
X015564Y006195D01*
X015747Y006195D01*
X015916Y006265D01*
X016045Y006395D01*
X016078Y006475D01*
X018581Y006475D01*
X018730Y006475D01*
X019101Y006847D01*
X019216Y006847D01*
X019330Y006894D01*
X019417Y006980D01*
X019464Y007094D01*
X019464Y007216D01*
X019417Y007330D01*
X019330Y007417D01*
X019216Y007464D01*
X019094Y007464D01*
X018980Y007417D01*
X018894Y007330D01*
X018847Y007216D01*
X018847Y007101D01*
X018581Y006835D01*
X016078Y006835D01*
X016045Y006916D01*
X015916Y007045D01*
X015747Y007115D01*
X015564Y007115D01*
X015395Y007045D01*
X015265Y006916D01*
X015232Y006835D01*
X013730Y006835D01*
X011464Y009101D01*
X011464Y009216D01*
X011417Y009330D01*
X011330Y009417D01*
X011216Y009464D01*
X011094Y009464D01*
X010980Y009417D01*
X010894Y009330D01*
X010847Y009216D01*
X010847Y009094D01*
X010894Y008980D01*
X010980Y008894D01*
X011094Y008847D01*
X011209Y008847D01*
X011533Y009031D02*
X015356Y009031D01*
X015342Y009021D02*
X015289Y008968D01*
X015245Y008907D01*
X015210Y008839D01*
X015187Y008768D01*
X015177Y008704D01*
X015606Y008704D01*
X015606Y008607D01*
X015177Y008607D01*
X015187Y008543D01*
X015210Y008471D01*
X015245Y008404D01*
X015289Y008342D01*
X015342Y008289D01*
X015404Y008245D01*
X015471Y008210D01*
X015543Y008187D01*
X015607Y008177D01*
X015607Y008606D01*
X015704Y008606D01*
X015704Y008177D01*
X015768Y008187D01*
X015839Y008210D01*
X015907Y008245D01*
X015968Y008289D01*
X016021Y008342D01*
X016066Y008404D01*
X016100Y008471D01*
X016123Y008543D01*
X016133Y008607D01*
X015704Y008607D01*
X015704Y008704D01*
X015607Y008704D01*
X015607Y009133D01*
X015543Y009123D01*
X015471Y009100D01*
X015404Y009066D01*
X015342Y009021D01*
X015264Y008933D02*
X011632Y008933D01*
X011731Y008834D02*
X015209Y008834D01*
X015182Y008736D02*
X011829Y008736D01*
X011928Y008637D02*
X015606Y008637D01*
X015704Y008637D02*
X019505Y008637D01*
X019505Y008539D02*
X018642Y008539D01*
X018694Y008517D02*
X018537Y008582D01*
X017773Y008582D01*
X017616Y008517D01*
X017496Y008397D01*
X017431Y008240D01*
X017431Y008070D01*
X017496Y007913D01*
X017616Y007793D01*
X017773Y007728D01*
X018537Y007728D01*
X018694Y007793D01*
X018814Y007913D01*
X018879Y008070D01*
X018879Y008240D01*
X018814Y008397D01*
X018694Y008517D01*
X018771Y008440D02*
X019505Y008440D01*
X019505Y008341D02*
X018837Y008341D01*
X018878Y008243D02*
X019505Y008243D01*
X019505Y008144D02*
X018879Y008144D01*
X018869Y008046D02*
X019505Y008046D01*
X019505Y007947D02*
X018828Y007947D01*
X018749Y007849D02*
X019505Y007849D01*
X019505Y007750D02*
X018590Y007750D01*
X018920Y007356D02*
X016007Y007356D01*
X016045Y007395D02*
X015916Y007265D01*
X015747Y007195D01*
X015564Y007195D01*
X015395Y007265D01*
X015265Y007395D01*
X015195Y007564D01*
X015195Y007747D01*
X015265Y007916D01*
X015395Y008045D01*
X015564Y008115D01*
X015747Y008115D01*
X015916Y008045D01*
X016045Y007916D01*
X016115Y007747D01*
X016115Y007564D01*
X016045Y007395D01*
X016070Y007455D02*
X019072Y007455D01*
X019238Y007455D02*
X019505Y007455D01*
X019505Y007553D02*
X016111Y007553D01*
X016115Y007652D02*
X019505Y007652D01*
X019505Y007356D02*
X019390Y007356D01*
X019446Y007258D02*
X019505Y007258D01*
X019505Y007159D02*
X019464Y007159D01*
X019450Y007060D02*
X019505Y007060D01*
X019505Y006962D02*
X019398Y006962D01*
X019505Y006863D02*
X019257Y006863D01*
X019019Y006765D02*
X019505Y006765D01*
X019505Y006666D02*
X018921Y006666D01*
X018822Y006568D02*
X019505Y006568D01*
X019505Y006469D02*
X016076Y006469D01*
X016021Y006371D02*
X019505Y006371D01*
X019505Y006272D02*
X015923Y006272D01*
X015655Y006655D02*
X018655Y006655D01*
X019155Y007155D01*
X018847Y007159D02*
X013406Y007159D01*
X013504Y007060D02*
X015432Y007060D01*
X015311Y006962D02*
X013603Y006962D01*
X013701Y006863D02*
X015244Y006863D01*
X015234Y006469D02*
X006724Y006469D01*
X006822Y006568D02*
X013488Y006568D01*
X013389Y006666D02*
X006921Y006666D01*
X007019Y006765D02*
X013291Y006765D01*
X013192Y006863D02*
X007118Y006863D01*
X007216Y006962D02*
X013094Y006962D01*
X012995Y007060D02*
X007315Y007060D01*
X007414Y007159D02*
X012897Y007159D01*
X012798Y007258D02*
X007512Y007258D01*
X007611Y007356D02*
X012700Y007356D01*
X012601Y007455D02*
X007709Y007455D01*
X007808Y007553D02*
X012503Y007553D01*
X012404Y007652D02*
X007906Y007652D01*
X008005Y007750D02*
X012305Y007750D01*
X012519Y008046D02*
X015397Y008046D01*
X015297Y007947D02*
X012617Y007947D01*
X012716Y007849D02*
X015237Y007849D01*
X015197Y007750D02*
X012814Y007750D01*
X012913Y007652D02*
X015195Y007652D01*
X015199Y007553D02*
X013012Y007553D01*
X013110Y007455D02*
X015240Y007455D01*
X015304Y007356D02*
X013209Y007356D01*
X013307Y007258D02*
X015413Y007258D01*
X015897Y007258D02*
X018864Y007258D01*
X018806Y007060D02*
X015879Y007060D01*
X015999Y006962D02*
X018707Y006962D01*
X018609Y006863D02*
X016067Y006863D01*
X015655Y006655D02*
X013655Y006655D01*
X011155Y009155D01*
X010873Y009031D02*
X009438Y009031D01*
X009464Y009130D02*
X010847Y009130D01*
X010852Y009228D02*
X009459Y009228D01*
X009418Y009327D02*
X010892Y009327D01*
X011002Y009425D02*
X009362Y009425D01*
X009155Y009655D02*
X015655Y009655D01*
X016043Y009918D02*
X019505Y009918D01*
X019505Y009820D02*
X016085Y009820D01*
X016115Y009721D02*
X019505Y009721D01*
X019505Y009623D02*
X016115Y009623D01*
X016099Y009524D02*
X017606Y009524D01*
X017624Y009537D02*
X017567Y009496D01*
X017517Y009446D01*
X017476Y009389D01*
X017444Y009327D01*
X015977Y009327D01*
X016058Y009425D02*
X017502Y009425D01*
X017444Y009327D02*
X017422Y009260D01*
X017414Y009204D01*
X018106Y009204D01*
X018106Y009107D01*
X017414Y009107D01*
X017422Y009050D01*
X017444Y008984D01*
X017476Y008921D01*
X017517Y008864D01*
X017567Y008814D01*
X017624Y008773D01*
X017687Y008741D01*
X017754Y008719D01*
X017823Y008708D01*
X018107Y008708D01*
X018107Y009106D01*
X018204Y009106D01*
X018204Y008708D01*
X018487Y008708D01*
X018557Y008719D01*
X018624Y008741D01*
X018686Y008773D01*
X018743Y008814D01*
X018793Y008864D01*
X018834Y008921D01*
X018866Y008984D01*
X018888Y009050D01*
X018897Y009107D01*
X018204Y009107D01*
X018204Y009204D01*
X018107Y009204D01*
X018107Y009602D01*
X017823Y009602D01*
X017754Y009591D01*
X017687Y009569D01*
X017624Y009537D01*
X017417Y009228D02*
X015827Y009228D01*
X015768Y009123D02*
X015704Y009133D01*
X015704Y008704D01*
X016133Y008704D01*
X016123Y008768D01*
X016100Y008839D01*
X016066Y008907D01*
X016021Y008968D01*
X015968Y009021D01*
X015907Y009066D01*
X015839Y009100D01*
X015768Y009123D01*
X015726Y009130D02*
X018106Y009130D01*
X018204Y009130D02*
X019505Y009130D01*
X019505Y009228D02*
X018893Y009228D01*
X018897Y009204D02*
X018888Y009260D01*
X018866Y009327D01*
X019505Y009327D01*
X019505Y009425D02*
X018808Y009425D01*
X018793Y009446D02*
X018743Y009496D01*
X018686Y009537D01*
X018624Y009569D01*
X018557Y009591D01*
X018487Y009602D01*
X018204Y009602D01*
X018204Y009204D01*
X018897Y009204D01*
X018866Y009327D02*
X018834Y009389D01*
X018793Y009446D01*
X018704Y009524D02*
X019505Y009524D01*
X019505Y009031D02*
X018882Y009031D01*
X018840Y008933D02*
X019505Y008933D01*
X019505Y008834D02*
X018763Y008834D01*
X018607Y008736D02*
X019505Y008736D01*
X019505Y010017D02*
X015944Y010017D01*
X015792Y010214D02*
X019505Y010214D01*
X019505Y010312D02*
X015963Y010312D01*
X016052Y010411D02*
X019505Y010411D01*
X019505Y010509D02*
X016093Y010509D01*
X016115Y010608D02*
X019505Y010608D01*
X019505Y010707D02*
X016115Y010707D01*
X016091Y010805D02*
X017605Y010805D01*
X017616Y010793D02*
X017773Y010728D01*
X018537Y010728D01*
X018694Y010793D01*
X018814Y010913D01*
X018879Y011070D01*
X018879Y011240D01*
X018814Y011397D01*
X018694Y011517D01*
X018537Y011582D01*
X017773Y011582D01*
X017616Y011517D01*
X017496Y011397D01*
X017431Y011240D01*
X017431Y011070D01*
X017496Y010913D01*
X017616Y010793D01*
X017506Y010904D02*
X016050Y010904D01*
X015959Y011002D02*
X017460Y011002D01*
X017431Y011101D02*
X015781Y011101D01*
X015747Y011195D02*
X015564Y011195D01*
X015395Y011265D01*
X015265Y011395D01*
X015195Y011564D01*
X015195Y011747D01*
X015265Y011916D01*
X015395Y012045D01*
X015564Y012115D01*
X015747Y012115D01*
X015916Y012045D01*
X016045Y011916D01*
X016115Y011747D01*
X016115Y011564D01*
X016045Y011395D01*
X015916Y011265D01*
X015747Y011195D01*
X015757Y011199D02*
X017431Y011199D01*
X017455Y011298D02*
X015948Y011298D01*
X016046Y011396D02*
X017496Y011396D01*
X017594Y011495D02*
X016087Y011495D01*
X016115Y011593D02*
X019505Y011593D01*
X019505Y011495D02*
X018716Y011495D01*
X018814Y011396D02*
X019505Y011396D01*
X019505Y011298D02*
X018855Y011298D01*
X018879Y011199D02*
X019505Y011199D01*
X019505Y011101D02*
X018879Y011101D01*
X018851Y011002D02*
X019505Y011002D01*
X019505Y010904D02*
X018804Y010904D01*
X018706Y010805D02*
X019505Y010805D01*
X019505Y010115D02*
X009370Y010115D01*
X009271Y010017D02*
X015366Y010017D01*
X015268Y009918D02*
X009326Y009918D01*
X009468Y010214D02*
X015518Y010214D01*
X015347Y010312D02*
X009567Y010312D01*
X009665Y010411D02*
X015258Y010411D01*
X015655Y010655D02*
X009655Y010655D01*
X008655Y009655D01*
X008655Y009155D01*
X008373Y009031D02*
X002863Y009031D01*
X002879Y009130D02*
X008347Y009130D01*
X008352Y009228D02*
X002879Y009228D01*
X002843Y009327D02*
X008392Y009327D01*
X008475Y009425D02*
X002785Y009425D01*
X002677Y009524D02*
X008475Y009524D01*
X008441Y008933D02*
X002822Y008933D01*
X002735Y008834D02*
X008580Y008834D01*
X009155Y009155D02*
X006155Y006155D01*
X001655Y006155D01*
X001155Y006655D01*
X001155Y010155D01*
X000805Y010608D02*
X009353Y010608D01*
X009452Y010707D02*
X000805Y010707D01*
X000805Y010805D02*
X001580Y010805D01*
X001567Y010814D02*
X001624Y010773D01*
X001687Y010741D01*
X001754Y010719D01*
X001823Y010708D01*
X002107Y010708D01*
X002107Y011106D01*
X002204Y011106D01*
X002204Y010708D01*
X002487Y010708D01*
X002557Y010719D01*
X002624Y010741D01*
X002686Y010773D01*
X002743Y010814D01*
X002793Y010864D01*
X002834Y010921D01*
X002866Y010984D01*
X002888Y011050D01*
X002897Y011107D01*
X002204Y011107D01*
X002204Y011204D01*
X002107Y011204D01*
X002107Y011602D01*
X001823Y011602D01*
X001754Y011591D01*
X001687Y011569D01*
X001624Y011537D01*
X001567Y011496D01*
X001517Y011446D01*
X001476Y011389D01*
X001444Y011327D01*
X001422Y011260D01*
X001414Y011204D01*
X002106Y011204D01*
X002106Y011107D01*
X001414Y011107D01*
X001422Y011050D01*
X001444Y010984D01*
X001476Y010921D01*
X001517Y010864D01*
X001567Y010814D01*
X001489Y010904D02*
X000805Y010904D01*
X000805Y011002D02*
X001438Y011002D01*
X001414Y011101D02*
X000805Y011101D01*
X000805Y011199D02*
X002106Y011199D01*
X002204Y011204D02*
X002204Y011602D01*
X002487Y011602D01*
X002557Y011591D01*
X002624Y011569D01*
X002686Y011537D01*
X002743Y011496D01*
X002793Y011446D01*
X002834Y011389D01*
X002866Y011327D01*
X002888Y011260D01*
X002897Y011204D01*
X002204Y011204D01*
X002204Y011199D02*
X010847Y011199D01*
X010847Y011216D02*
X010847Y011094D01*
X010894Y010980D01*
X010980Y010894D01*
X011094Y010847D01*
X011216Y010847D01*
X011330Y010894D01*
X011417Y010980D01*
X011464Y011094D01*
X011464Y011209D01*
X012335Y012081D01*
X012335Y012230D01*
X012335Y015649D01*
X012417Y015730D01*
X012464Y015844D01*
X012464Y015966D01*
X012417Y016080D01*
X012330Y016167D01*
X012216Y016214D01*
X012094Y016214D01*
X011980Y016167D01*
X011894Y016080D01*
X011847Y015966D01*
X011847Y015844D01*
X011894Y015730D01*
X011975Y015649D01*
X011975Y012230D01*
X011209Y011464D01*
X011094Y011464D01*
X010980Y011417D01*
X010894Y011330D01*
X010847Y011216D01*
X010880Y011298D02*
X002875Y011298D01*
X002829Y011396D02*
X006978Y011396D01*
X006980Y011394D02*
X007094Y011347D01*
X007216Y011347D01*
X007330Y011394D01*
X007417Y011480D01*
X007464Y011594D01*
X007464Y011716D01*
X007417Y011830D01*
X007335Y011911D01*
X007335Y016727D01*
X007585Y016977D01*
X007585Y017333D01*
X007333Y017585D01*
X006977Y017585D01*
X006725Y017333D01*
X006725Y016977D01*
X006975Y016727D01*
X006975Y011911D01*
X006894Y011830D01*
X006847Y011716D01*
X006847Y011594D01*
X006894Y011480D01*
X006980Y011394D01*
X006888Y011495D02*
X002744Y011495D01*
X002541Y011593D02*
X006847Y011593D01*
X006847Y011692D02*
X000805Y011692D01*
X000805Y011791D02*
X001623Y011791D01*
X001616Y011793D02*
X001773Y011728D01*
X002537Y011728D01*
X002694Y011793D01*
X002814Y011913D01*
X002879Y012070D01*
X002879Y012240D01*
X002814Y012397D01*
X002694Y012517D01*
X002537Y012582D01*
X001773Y012582D01*
X001616Y012517D01*
X001496Y012397D01*
X001431Y012240D01*
X001431Y012070D01*
X001496Y011913D01*
X001616Y011793D01*
X001521Y011889D02*
X000805Y011889D01*
X000805Y011988D02*
X001466Y011988D01*
X001431Y012086D02*
X000805Y012086D01*
X000805Y012185D02*
X001431Y012185D01*
X001449Y012283D02*
X000805Y012283D01*
X000805Y012382D02*
X001490Y012382D01*
X001580Y012480D02*
X000805Y012480D01*
X000805Y012579D02*
X001766Y012579D01*
X002544Y012579D02*
X006975Y012579D01*
X006975Y012677D02*
X000805Y012677D01*
X000805Y012776D02*
X006975Y012776D01*
X006975Y012874D02*
X000805Y012874D01*
X000805Y012973D02*
X006975Y012973D01*
X006975Y013072D02*
X000805Y013072D01*
X000805Y013170D02*
X006975Y013170D01*
X006975Y013269D02*
X000805Y013269D01*
X000805Y013367D02*
X006975Y013367D01*
X006975Y013466D02*
X000805Y013466D01*
X000805Y013564D02*
X006975Y013564D01*
X006975Y013663D02*
X000805Y013663D01*
X000805Y013761D02*
X006975Y013761D01*
X006975Y013860D02*
X000805Y013860D01*
X000805Y013958D02*
X006975Y013958D01*
X006975Y014057D02*
X000805Y014057D01*
X000805Y014156D02*
X006975Y014156D01*
X006975Y014254D02*
X000805Y014254D01*
X000805Y014353D02*
X006975Y014353D01*
X006975Y014451D02*
X000805Y014451D01*
X000805Y014550D02*
X006975Y014550D01*
X006975Y014648D02*
X000805Y014648D01*
X000805Y014747D02*
X006975Y014747D01*
X006975Y014845D02*
X000805Y014845D01*
X000805Y014944D02*
X006975Y014944D01*
X006975Y015042D02*
X000805Y015042D01*
X000805Y015141D02*
X006975Y015141D01*
X006975Y015240D02*
X000805Y015240D01*
X000805Y015338D02*
X006975Y015338D01*
X006975Y015437D02*
X000805Y015437D01*
X000805Y015535D02*
X006975Y015535D01*
X006975Y015634D02*
X000805Y015634D01*
X000805Y015732D02*
X006975Y015732D01*
X006975Y015831D02*
X000805Y015831D01*
X000805Y015929D02*
X006975Y015929D01*
X006975Y016028D02*
X002858Y016028D01*
X002778Y016010D02*
X003258Y016119D01*
X003684Y016365D01*
X003684Y016365D01*
X004018Y016726D01*
X004232Y017169D01*
X004305Y017655D01*
X004232Y018141D01*
X004232Y018141D01*
X004018Y018585D01*
X003684Y018945D01*
X003258Y019191D01*
X003258Y019191D01*
X002778Y019300D01*
X002288Y019264D01*
X001830Y019084D01*
X001446Y018777D01*
X001169Y018371D01*
X001024Y017901D01*
X001024Y017409D01*
X001169Y016939D01*
X001446Y016533D01*
X001830Y016226D01*
X002288Y016046D01*
X002778Y016010D01*
X002778Y016010D01*
X002536Y016028D02*
X000805Y016028D01*
X000805Y016126D02*
X002084Y016126D01*
X002288Y016046D02*
X002288Y016046D01*
X001833Y016225D02*
X000805Y016225D01*
X000805Y016324D02*
X001708Y016324D01*
X001830Y016226D02*
X001830Y016226D01*
X001584Y016422D02*
X000805Y016422D01*
X000805Y016521D02*
X001461Y016521D01*
X001446Y016533D02*
X001446Y016533D01*
X001446Y016533D01*
X001387Y016619D02*
X000805Y016619D01*
X000805Y016718D02*
X001320Y016718D01*
X001252Y016816D02*
X000805Y016816D01*
X000805Y016915D02*
X001185Y016915D01*
X001169Y016939D02*
X001169Y016939D01*
X001146Y017013D02*
X000805Y017013D01*
X000805Y017112D02*
X001115Y017112D01*
X001085Y017210D02*
X000805Y017210D01*
X000805Y017309D02*
X001054Y017309D01*
X001024Y017407D02*
X000805Y017407D01*
X000805Y017506D02*
X001024Y017506D01*
X001024Y017409D02*
X001024Y017409D01*
X001024Y017605D02*
X000805Y017605D01*
X000808Y017703D02*
X001024Y017703D01*
X001024Y017802D02*
X000813Y017802D01*
X000825Y017900D02*
X001024Y017900D01*
X001024Y017901D02*
X001024Y017901D01*
X001054Y017999D02*
X000848Y017999D01*
X000870Y018097D02*
X001084Y018097D01*
X001114Y018196D02*
X000893Y018196D01*
X000922Y018294D02*
X001145Y018294D01*
X001169Y018371D02*
X001169Y018371D01*
X001183Y018393D02*
X000970Y018393D01*
X001017Y018491D02*
X001251Y018491D01*
X001318Y018590D02*
X001065Y018590D01*
X001128Y018689D02*
X001385Y018689D01*
X001446Y018777D02*
X001446Y018777D01*
X001458Y018787D02*
X001206Y018787D01*
X001285Y018886D02*
X001581Y018886D01*
X001705Y018984D02*
X001373Y018984D01*
X001497Y019083D02*
X001828Y019083D01*
X001830Y019084D02*
X001830Y019084D01*
X001792Y019280D02*
X002503Y019280D01*
X002288Y019264D02*
X002288Y019264D01*
X002078Y019181D02*
X001620Y019181D01*
X001996Y019378D02*
X018314Y019378D01*
X018258Y019191D02*
X017778Y019300D01*
X017288Y019264D01*
X016830Y019084D01*
X016446Y018777D01*
X016169Y018371D01*
X016024Y017901D01*
X016024Y017409D01*
X016169Y016939D01*
X016446Y016533D01*
X016830Y016226D01*
X017288Y016046D01*
X017778Y016010D01*
X017778Y016010D01*
X018258Y016119D01*
X018684Y016365D01*
X018684Y016365D01*
X018684Y016365D01*
X019018Y016726D01*
X019232Y017169D01*
X019305Y017655D01*
X019232Y018141D01*
X019232Y018141D01*
X019018Y018585D01*
X018684Y018945D01*
X018258Y019191D01*
X018258Y019191D01*
X018275Y019181D02*
X018690Y019181D01*
X018813Y019083D02*
X018446Y019083D01*
X018616Y018984D02*
X018937Y018984D01*
X019025Y018886D02*
X018739Y018886D01*
X018684Y018945D02*
X018684Y018945D01*
X018831Y018787D02*
X019104Y018787D01*
X019182Y018689D02*
X018922Y018689D01*
X019013Y018590D02*
X019245Y018590D01*
X019293Y018491D02*
X019063Y018491D01*
X019018Y018585D02*
X019018Y018585D01*
X019111Y018393D02*
X019340Y018393D01*
X019388Y018294D02*
X019158Y018294D01*
X019206Y018196D02*
X019417Y018196D01*
X019440Y018097D02*
X019238Y018097D01*
X019253Y017999D02*
X019462Y017999D01*
X019485Y017900D02*
X019268Y017900D01*
X019283Y017802D02*
X019497Y017802D01*
X019502Y017703D02*
X019298Y017703D01*
X019297Y017605D02*
X019505Y017605D01*
X019505Y017506D02*
X019283Y017506D01*
X019268Y017407D02*
X019505Y017407D01*
X019505Y017309D02*
X019253Y017309D01*
X019238Y017210D02*
X019505Y017210D01*
X019505Y017112D02*
X019204Y017112D01*
X019232Y017169D02*
X019232Y017169D01*
X019157Y017013D02*
X019505Y017013D01*
X019505Y016915D02*
X019109Y016915D01*
X019062Y016816D02*
X019505Y016816D01*
X019505Y016718D02*
X019011Y016718D01*
X019018Y016726D02*
X019018Y016726D01*
X018920Y016619D02*
X019505Y016619D01*
X019505Y016521D02*
X018828Y016521D01*
X018737Y016422D02*
X019505Y016422D01*
X019505Y016324D02*
X018612Y016324D01*
X018441Y016225D02*
X019505Y016225D01*
X019505Y016126D02*
X018270Y016126D01*
X018258Y016119D02*
X018258Y016119D01*
X017858Y016028D02*
X019505Y016028D01*
X019505Y015929D02*
X012464Y015929D01*
X012458Y015831D02*
X019505Y015831D01*
X019505Y015732D02*
X012417Y015732D01*
X012335Y015634D02*
X019505Y015634D01*
X019505Y015535D02*
X012335Y015535D01*
X012335Y015437D02*
X019505Y015437D01*
X019505Y015338D02*
X012335Y015338D01*
X012335Y015240D02*
X019505Y015240D01*
X019505Y015141D02*
X012335Y015141D01*
X012335Y015042D02*
X019505Y015042D01*
X019505Y014944D02*
X012335Y014944D01*
X012335Y014845D02*
X019505Y014845D01*
X019505Y014747D02*
X012335Y014747D01*
X012335Y014648D02*
X019505Y014648D01*
X019505Y014550D02*
X012335Y014550D01*
X012335Y014451D02*
X019505Y014451D01*
X019505Y014353D02*
X012335Y014353D01*
X012335Y014254D02*
X019505Y014254D01*
X019505Y014156D02*
X012335Y014156D01*
X012335Y014057D02*
X015423Y014057D01*
X015395Y014045D02*
X015265Y013916D01*
X015195Y013747D01*
X015195Y013564D01*
X012335Y013564D01*
X012335Y013466D02*
X015236Y013466D01*
X015265Y013395D02*
X015395Y013265D01*
X015564Y013195D01*
X015747Y013195D01*
X015916Y013265D01*
X016045Y013395D01*
X016115Y013564D01*
X019505Y013564D01*
X019505Y013466D02*
X016075Y013466D01*
X016115Y013564D02*
X016115Y013747D01*
X016045Y013916D01*
X015916Y014045D01*
X015747Y014115D01*
X015564Y014115D01*
X015395Y014045D01*
X015308Y013958D02*
X012335Y013958D01*
X012335Y013860D02*
X015242Y013860D01*
X015201Y013761D02*
X012335Y013761D01*
X012335Y013663D02*
X015195Y013663D01*
X015195Y013564D02*
X015265Y013395D01*
X015292Y013367D02*
X012335Y013367D01*
X012335Y013269D02*
X015391Y013269D01*
X015459Y013072D02*
X012335Y013072D01*
X012335Y013170D02*
X019505Y013170D01*
X019505Y013072D02*
X015852Y013072D01*
X015916Y013045D02*
X015747Y013115D01*
X015564Y013115D01*
X015395Y013045D01*
X015265Y012916D01*
X015195Y012747D01*
X015195Y012564D01*
X015265Y012395D01*
X015395Y012265D01*
X015564Y012195D01*
X015747Y012195D01*
X015916Y012265D01*
X016045Y012395D01*
X016115Y012564D01*
X016115Y012747D01*
X016045Y012916D01*
X015916Y013045D01*
X015988Y012973D02*
X019505Y012973D01*
X019505Y012874D02*
X016062Y012874D01*
X016103Y012776D02*
X019505Y012776D01*
X019505Y012677D02*
X016115Y012677D01*
X016115Y012579D02*
X017716Y012579D01*
X017687Y012569D02*
X017624Y012537D01*
X017567Y012496D01*
X017517Y012446D01*
X017476Y012389D01*
X017444Y012327D01*
X017422Y012260D01*
X017414Y012204D01*
X018106Y012204D01*
X018106Y012107D01*
X017414Y012107D01*
X017422Y012050D01*
X017444Y011984D01*
X017476Y011921D01*
X017517Y011864D01*
X017567Y011814D01*
X017624Y011773D01*
X017687Y011741D01*
X017754Y011719D01*
X017823Y011708D01*
X018107Y011708D01*
X018107Y012106D01*
X018204Y012106D01*
X018204Y011708D01*
X018487Y011708D01*
X018557Y011719D01*
X018624Y011741D01*
X018686Y011773D01*
X018743Y011814D01*
X018793Y011864D01*
X018834Y011921D01*
X018866Y011984D01*
X018888Y012050D01*
X018897Y012107D01*
X018204Y012107D01*
X018204Y012204D01*
X018107Y012204D01*
X018107Y012602D01*
X017823Y012602D01*
X017754Y012591D01*
X017687Y012569D01*
X017552Y012480D02*
X016081Y012480D01*
X016032Y012382D02*
X017472Y012382D01*
X017430Y012283D02*
X015934Y012283D01*
X015816Y012086D02*
X017417Y012086D01*
X017443Y011988D02*
X015973Y011988D01*
X016056Y011889D02*
X017499Y011889D01*
X017600Y011791D02*
X016097Y011791D01*
X016115Y011692D02*
X019505Y011692D01*
X019505Y011791D02*
X018710Y011791D01*
X018811Y011889D02*
X019505Y011889D01*
X019505Y011988D02*
X018867Y011988D01*
X018893Y012086D02*
X019505Y012086D01*
X019505Y012185D02*
X018204Y012185D01*
X018204Y012204D02*
X018897Y012204D01*
X018888Y012260D01*
X018866Y012327D01*
X018834Y012389D01*
X018793Y012446D01*
X018743Y012496D01*
X018686Y012537D01*
X018624Y012569D01*
X018557Y012591D01*
X018487Y012602D01*
X018204Y012602D01*
X018204Y012204D01*
X018204Y012283D02*
X018107Y012283D01*
X018106Y012185D02*
X012335Y012185D01*
X012335Y012283D02*
X015376Y012283D01*
X015278Y012382D02*
X012335Y012382D01*
X012335Y012480D02*
X015230Y012480D01*
X015195Y012579D02*
X012335Y012579D01*
X012335Y012677D02*
X015195Y012677D01*
X015207Y012776D02*
X012335Y012776D01*
X012335Y012874D02*
X015248Y012874D01*
X015323Y012973D02*
X012335Y012973D01*
X011975Y012973D02*
X007335Y012973D01*
X007335Y012874D02*
X011975Y012874D01*
X011975Y012776D02*
X007335Y012776D01*
X007335Y012677D02*
X011975Y012677D01*
X011975Y012579D02*
X007335Y012579D01*
X007335Y012480D02*
X011975Y012480D01*
X011975Y012382D02*
X007335Y012382D01*
X007335Y012283D02*
X011975Y012283D01*
X011930Y012185D02*
X007335Y012185D01*
X007335Y012086D02*
X011832Y012086D01*
X011733Y011988D02*
X007335Y011988D01*
X007357Y011889D02*
X011635Y011889D01*
X011536Y011791D02*
X007433Y011791D01*
X007464Y011692D02*
X011437Y011692D01*
X011339Y011593D02*
X007463Y011593D01*
X007423Y011495D02*
X011240Y011495D01*
X011552Y011298D02*
X015362Y011298D01*
X015264Y011396D02*
X011651Y011396D01*
X011749Y011495D02*
X015224Y011495D01*
X015195Y011593D02*
X011848Y011593D01*
X011946Y011692D02*
X015195Y011692D01*
X015213Y011791D02*
X012045Y011791D01*
X012144Y011889D02*
X015254Y011889D01*
X015337Y011988D02*
X012242Y011988D01*
X012335Y012086D02*
X015494Y012086D01*
X015554Y011199D02*
X011464Y011199D01*
X011464Y011101D02*
X015529Y011101D01*
X015352Y011002D02*
X011426Y011002D01*
X011340Y010904D02*
X015260Y010904D01*
X015252Y009425D02*
X011308Y009425D01*
X011418Y009327D02*
X015333Y009327D01*
X015483Y009228D02*
X011459Y009228D01*
X011464Y009130D02*
X015584Y009130D01*
X015607Y009130D02*
X015704Y009130D01*
X015704Y009031D02*
X015607Y009031D01*
X015607Y008933D02*
X015704Y008933D01*
X015704Y008834D02*
X015607Y008834D01*
X015607Y008736D02*
X015704Y008736D01*
X015704Y008539D02*
X015607Y008539D01*
X015607Y008440D02*
X015704Y008440D01*
X015704Y008341D02*
X015607Y008341D01*
X015607Y008243D02*
X015704Y008243D01*
X015903Y008243D02*
X017433Y008243D01*
X017431Y008144D02*
X012420Y008144D01*
X012322Y008243D02*
X015407Y008243D01*
X015290Y008341D02*
X012223Y008341D01*
X012125Y008440D02*
X015226Y008440D01*
X015188Y008539D02*
X012026Y008539D01*
X010941Y008933D02*
X009369Y008933D01*
X009551Y010805D02*
X002730Y010805D01*
X002822Y010904D02*
X010970Y010904D01*
X010885Y011002D02*
X002872Y011002D01*
X002896Y011101D02*
X010847Y011101D01*
X011155Y011155D02*
X012155Y012155D01*
X012155Y015905D01*
X011872Y016028D02*
X007335Y016028D01*
X007335Y016126D02*
X011940Y016126D01*
X011847Y015929D02*
X007335Y015929D01*
X007335Y015831D02*
X011852Y015831D01*
X011893Y015732D02*
X007335Y015732D01*
X007335Y015634D02*
X011975Y015634D01*
X011975Y015535D02*
X007335Y015535D01*
X007335Y015437D02*
X011975Y015437D01*
X011975Y015338D02*
X007335Y015338D01*
X007335Y015240D02*
X011975Y015240D01*
X011975Y015141D02*
X007335Y015141D01*
X007335Y015042D02*
X011975Y015042D01*
X011975Y014944D02*
X007335Y014944D01*
X007335Y014845D02*
X011975Y014845D01*
X011975Y014747D02*
X007335Y014747D01*
X007335Y014648D02*
X011975Y014648D01*
X011975Y014550D02*
X007335Y014550D01*
X007335Y014451D02*
X011975Y014451D01*
X011975Y014353D02*
X007335Y014353D01*
X007335Y014254D02*
X011975Y014254D01*
X011975Y014156D02*
X007335Y014156D01*
X007335Y014057D02*
X011975Y014057D01*
X011975Y013958D02*
X007335Y013958D01*
X007335Y013860D02*
X011975Y013860D01*
X011975Y013761D02*
X007335Y013761D01*
X007335Y013663D02*
X011975Y013663D01*
X011975Y013564D02*
X007335Y013564D01*
X007335Y013466D02*
X011975Y013466D01*
X011975Y013367D02*
X007335Y013367D01*
X007335Y013269D02*
X011975Y013269D01*
X011975Y013170D02*
X007335Y013170D01*
X007335Y013072D02*
X011975Y013072D01*
X010960Y011396D02*
X007332Y011396D01*
X007155Y011655D02*
X007155Y017155D01*
X007511Y017407D02*
X016024Y017407D01*
X016024Y017409D02*
X016024Y017409D01*
X016024Y017506D02*
X007412Y017506D01*
X007341Y017705D02*
X007205Y017705D01*
X007205Y018105D01*
X007105Y018105D01*
X007105Y017705D01*
X006969Y017705D01*
X006705Y017969D01*
X006705Y018105D01*
X007105Y018105D01*
X007105Y018205D01*
X006705Y018205D01*
X006705Y018341D01*
X006969Y018605D01*
X007105Y018605D01*
X007105Y018205D01*
X007205Y018205D01*
X007605Y018205D01*
X007605Y018341D01*
X007341Y018605D01*
X007205Y018605D01*
X007205Y018205D01*
X007205Y018105D01*
X007605Y018105D01*
X007605Y017969D01*
X007341Y017705D01*
X007438Y017802D02*
X009143Y017802D01*
X009149Y017787D02*
X009221Y017715D01*
X009316Y017675D01*
X009419Y017675D01*
X009514Y017715D01*
X009587Y017787D01*
X009626Y017882D01*
X009626Y017985D01*
X009587Y018080D01*
X009514Y018153D01*
X009419Y018192D01*
X009316Y018192D01*
X009221Y018153D01*
X009149Y018080D01*
X009109Y017985D01*
X009109Y017882D01*
X009149Y017787D01*
X009109Y017900D02*
X007537Y017900D01*
X007605Y017999D02*
X009115Y017999D01*
X009166Y018097D02*
X007605Y018097D01*
X007605Y018294D02*
X016145Y018294D01*
X016169Y018371D02*
X016169Y018371D01*
X016183Y018393D02*
X011492Y018393D01*
X011501Y018398D02*
X011558Y018439D01*
X011608Y018489D01*
X011649Y018546D01*
X011681Y018609D01*
X011703Y018675D01*
X011712Y018732D01*
X011316Y018732D01*
X011316Y018829D01*
X011219Y018829D01*
X011219Y019225D01*
X011163Y019216D01*
X011096Y019194D01*
X011033Y019162D01*
X010976Y019121D01*
X010926Y019071D01*
X010885Y019014D01*
X010853Y018952D01*
X010831Y018885D01*
X010823Y018829D01*
X011219Y018829D01*
X011219Y018732D01*
X010823Y018732D01*
X010831Y018675D01*
X010853Y018609D01*
X010885Y018546D01*
X010926Y018489D01*
X010976Y018439D01*
X011033Y018398D01*
X011096Y018366D01*
X011163Y018344D01*
X011219Y018335D01*
X011219Y018731D01*
X011316Y018731D01*
X011316Y018335D01*
X011372Y018344D01*
X011439Y018366D01*
X011501Y018398D01*
X011610Y018491D02*
X016251Y018491D01*
X016318Y018590D02*
X011672Y018590D01*
X011705Y018689D02*
X016385Y018689D01*
X016446Y018777D02*
X016446Y018777D01*
X016446Y018777D01*
X016458Y018787D02*
X011316Y018787D01*
X011316Y018829D02*
X011712Y018829D01*
X011703Y018885D01*
X011681Y018952D01*
X011649Y019014D01*
X011608Y019071D01*
X011558Y019121D01*
X011501Y019162D01*
X011439Y019194D01*
X011372Y019216D01*
X011316Y019225D01*
X011316Y018829D01*
X011316Y018886D02*
X011219Y018886D01*
X011219Y018984D02*
X011316Y018984D01*
X011316Y019083D02*
X011219Y019083D01*
X011219Y019181D02*
X011316Y019181D01*
X011464Y019181D02*
X017078Y019181D01*
X017288Y019264D02*
X017288Y019264D01*
X017503Y019280D02*
X002869Y019280D01*
X002778Y019300D02*
X002778Y019300D01*
X002375Y019477D02*
X017935Y019477D01*
X017869Y019280D02*
X018518Y019280D01*
X017778Y019300D02*
X017778Y019300D01*
X016830Y019084D02*
X016830Y019084D01*
X016828Y019083D02*
X011597Y019083D01*
X011665Y018984D02*
X016705Y018984D01*
X016581Y018886D02*
X011703Y018886D01*
X011316Y018689D02*
X011219Y018689D01*
X011219Y018787D02*
X009092Y018787D01*
X009092Y018829D02*
X009488Y018829D01*
X009479Y018885D01*
X009457Y018952D01*
X009425Y019014D01*
X009384Y019071D01*
X009334Y019121D01*
X009277Y019162D01*
X009214Y019194D01*
X009148Y019216D01*
X009091Y019225D01*
X009091Y018829D01*
X008994Y018829D01*
X008994Y019225D01*
X008938Y019216D01*
X008871Y019194D01*
X008809Y019162D01*
X008752Y019121D01*
X008702Y019071D01*
X008661Y019014D01*
X008629Y018952D01*
X008607Y018885D01*
X008598Y018829D01*
X008994Y018829D01*
X008994Y018732D01*
X008598Y018732D01*
X008607Y018675D01*
X008629Y018609D01*
X008661Y018546D01*
X008702Y018489D01*
X008752Y018439D01*
X008809Y018398D01*
X008871Y018366D01*
X008938Y018344D01*
X008994Y018335D01*
X008994Y018731D01*
X009091Y018731D01*
X009091Y018335D01*
X009148Y018344D01*
X009214Y018366D01*
X009277Y018398D01*
X009334Y018439D01*
X009384Y018489D01*
X009425Y018546D01*
X009457Y018609D01*
X009479Y018675D01*
X009488Y018732D01*
X009092Y018732D01*
X009092Y018829D01*
X009091Y018886D02*
X008994Y018886D01*
X008994Y018984D02*
X009091Y018984D01*
X009091Y019083D02*
X008994Y019083D01*
X008994Y019181D02*
X009091Y019181D01*
X009240Y019181D02*
X011070Y019181D01*
X010938Y019083D02*
X009372Y019083D01*
X009440Y018984D02*
X010870Y018984D01*
X010832Y018886D02*
X009478Y018886D01*
X009481Y018689D02*
X010829Y018689D01*
X010863Y018590D02*
X009448Y018590D01*
X009386Y018491D02*
X010925Y018491D01*
X011043Y018393D02*
X009267Y018393D01*
X009091Y018393D02*
X008994Y018393D01*
X008994Y018491D02*
X009091Y018491D01*
X009091Y018590D02*
X008994Y018590D01*
X008994Y018689D02*
X009091Y018689D01*
X008994Y018787D02*
X003831Y018787D01*
X003922Y018689D02*
X008605Y018689D01*
X008638Y018590D02*
X007357Y018590D01*
X007455Y018491D02*
X008700Y018491D01*
X008819Y018393D02*
X007554Y018393D01*
X007205Y018393D02*
X007105Y018393D01*
X007105Y018491D02*
X007205Y018491D01*
X007205Y018590D02*
X007105Y018590D01*
X006954Y018590D02*
X004013Y018590D01*
X004018Y018585D02*
X004018Y018585D01*
X004063Y018491D02*
X004883Y018491D01*
X004977Y018585D02*
X004725Y018333D01*
X004725Y017977D01*
X004977Y017725D01*
X005333Y017725D01*
X005585Y017977D01*
X005585Y018333D01*
X005333Y018585D01*
X004977Y018585D01*
X004785Y018393D02*
X004111Y018393D01*
X004158Y018294D02*
X004725Y018294D01*
X004725Y018196D02*
X004206Y018196D01*
X004238Y018097D02*
X004725Y018097D01*
X004725Y017999D02*
X004253Y017999D01*
X004268Y017900D02*
X004802Y017900D01*
X004900Y017802D02*
X004283Y017802D01*
X004298Y017703D02*
X009249Y017703D01*
X009486Y017703D02*
X010824Y017703D01*
X010796Y017715D02*
X010891Y017675D01*
X010994Y017675D01*
X011089Y017715D01*
X011161Y017787D01*
X011201Y017882D01*
X011201Y017985D01*
X011161Y018080D01*
X011089Y018153D01*
X010994Y018192D01*
X010891Y018192D01*
X010796Y018153D01*
X010724Y018080D01*
X010684Y017985D01*
X010684Y017882D01*
X010724Y017787D01*
X010796Y017715D01*
X010718Y017802D02*
X009593Y017802D01*
X009626Y017900D02*
X010684Y017900D01*
X010690Y017999D02*
X009620Y017999D01*
X009569Y018097D02*
X010741Y018097D01*
X011144Y018097D02*
X016084Y018097D01*
X016054Y017999D02*
X011195Y017999D01*
X011201Y017900D02*
X016024Y017900D01*
X016024Y017901D02*
X016024Y017901D01*
X016024Y017802D02*
X011167Y017802D01*
X011061Y017703D02*
X016024Y017703D01*
X016024Y017605D02*
X004297Y017605D01*
X004305Y017655D02*
X004305Y017655D01*
X004283Y017506D02*
X004725Y017506D01*
X004725Y017509D02*
X004725Y016801D01*
X004801Y016725D01*
X005509Y016725D01*
X005585Y016801D01*
X005585Y017509D01*
X005509Y017585D01*
X004801Y017585D01*
X004725Y017509D01*
X004725Y017407D02*
X004268Y017407D01*
X004253Y017309D02*
X004725Y017309D01*
X004725Y017210D02*
X004238Y017210D01*
X004204Y017112D02*
X004725Y017112D01*
X004725Y017013D02*
X004157Y017013D01*
X004109Y016915D02*
X004725Y016915D01*
X004725Y016816D02*
X004062Y016816D01*
X004011Y016718D02*
X006975Y016718D01*
X006975Y016619D02*
X003920Y016619D01*
X003828Y016521D02*
X006975Y016521D01*
X006975Y016422D02*
X003737Y016422D01*
X003612Y016324D02*
X006975Y016324D01*
X006975Y016225D02*
X003441Y016225D01*
X003270Y016126D02*
X006975Y016126D01*
X007335Y016225D02*
X016833Y016225D01*
X016830Y016226D02*
X016830Y016226D01*
X016708Y016324D02*
X007335Y016324D01*
X007335Y016422D02*
X016584Y016422D01*
X016461Y016521D02*
X007335Y016521D01*
X007335Y016619D02*
X016387Y016619D01*
X016446Y016533D02*
X016446Y016533D01*
X016446Y016533D01*
X016320Y016718D02*
X007335Y016718D01*
X007424Y016816D02*
X016252Y016816D01*
X016185Y016915D02*
X007523Y016915D01*
X007585Y017013D02*
X016146Y017013D01*
X016169Y016939D02*
X016169Y016939D01*
X016115Y017112D02*
X007585Y017112D01*
X007585Y017210D02*
X016085Y017210D01*
X016054Y017309D02*
X007585Y017309D01*
X007205Y017802D02*
X007105Y017802D01*
X007105Y017900D02*
X007205Y017900D01*
X007205Y017999D02*
X007105Y017999D01*
X007105Y018097D02*
X007205Y018097D01*
X007205Y018196D02*
X016114Y018196D01*
X017084Y016126D02*
X012370Y016126D01*
X012438Y016028D02*
X017536Y016028D01*
X017288Y016046D02*
X017288Y016046D01*
X015887Y014057D02*
X019505Y014057D01*
X019505Y013958D02*
X016002Y013958D01*
X016068Y013860D02*
X019505Y013860D01*
X019505Y013761D02*
X016109Y013761D01*
X016115Y013663D02*
X019505Y013663D01*
X019505Y013367D02*
X016018Y013367D01*
X015919Y013269D02*
X019505Y013269D01*
X019505Y012579D02*
X018594Y012579D01*
X018759Y012480D02*
X019505Y012480D01*
X019505Y012382D02*
X018838Y012382D01*
X018880Y012283D02*
X019505Y012283D01*
X018204Y012382D02*
X018107Y012382D01*
X018107Y012480D02*
X018204Y012480D01*
X018204Y012579D02*
X018107Y012579D01*
X018107Y012086D02*
X018204Y012086D01*
X018204Y011988D02*
X018107Y011988D01*
X018107Y011889D02*
X018204Y011889D01*
X018204Y011791D02*
X018107Y011791D01*
X018107Y009524D02*
X018204Y009524D01*
X018204Y009425D02*
X018107Y009425D01*
X018107Y009327D02*
X018204Y009327D01*
X018204Y009228D02*
X018107Y009228D01*
X018107Y009031D02*
X018204Y009031D01*
X018204Y008933D02*
X018107Y008933D01*
X018107Y008834D02*
X018204Y008834D01*
X018204Y008736D02*
X018107Y008736D01*
X017703Y008736D02*
X016128Y008736D01*
X016102Y008834D02*
X017547Y008834D01*
X017470Y008933D02*
X016047Y008933D01*
X015954Y009031D02*
X017429Y009031D01*
X017669Y008539D02*
X016122Y008539D01*
X016084Y008440D02*
X017540Y008440D01*
X017473Y008341D02*
X016020Y008341D01*
X015914Y008046D02*
X017441Y008046D01*
X017482Y007947D02*
X016013Y007947D01*
X016073Y007849D02*
X017561Y007849D01*
X017720Y007750D02*
X016114Y007750D01*
X015289Y006371D02*
X006625Y006371D01*
X006527Y006272D02*
X015388Y006272D01*
X018408Y004104D02*
X019505Y004104D01*
X019505Y004006D02*
X018579Y004006D01*
X018684Y003945D02*
X018684Y003945D01*
X018719Y003907D02*
X019505Y003907D01*
X019505Y003809D02*
X018811Y003809D01*
X018902Y003710D02*
X019505Y003710D01*
X019505Y003611D02*
X018994Y003611D01*
X019018Y003585D02*
X019018Y003585D01*
X019053Y003513D02*
X019505Y003513D01*
X019505Y003414D02*
X019100Y003414D01*
X019148Y003316D02*
X019505Y003316D01*
X019505Y003217D02*
X019195Y003217D01*
X019235Y003119D02*
X019505Y003119D01*
X019505Y003020D02*
X019250Y003020D01*
X019265Y002922D02*
X019505Y002922D01*
X019505Y002823D02*
X019280Y002823D01*
X019295Y002725D02*
X019505Y002725D01*
X019504Y002626D02*
X019301Y002626D01*
X019286Y002527D02*
X019498Y002527D01*
X019489Y002429D02*
X019271Y002429D01*
X019256Y002330D02*
X019467Y002330D01*
X019444Y002232D02*
X019241Y002232D01*
X019232Y002169D02*
X019232Y002169D01*
X019215Y002133D02*
X019422Y002133D01*
X019397Y002035D02*
X019167Y002035D01*
X019120Y001936D02*
X019349Y001936D01*
X019302Y001838D02*
X019072Y001838D01*
X019025Y001739D02*
X019254Y001739D01*
X019197Y001641D02*
X018939Y001641D01*
X019018Y001726D02*
X019018Y001726D01*
X019119Y001542D02*
X018848Y001542D01*
X018757Y001443D02*
X019040Y001443D01*
X018961Y001345D02*
X018649Y001345D01*
X018684Y001365D02*
X018684Y001365D01*
X018837Y001246D02*
X018478Y001246D01*
X018308Y001148D02*
X018714Y001148D01*
X018558Y001049D02*
X017952Y001049D01*
X018018Y000852D02*
X002292Y000852D01*
X002288Y001046D02*
X002288Y001046D01*
X002281Y001049D02*
X001753Y001049D01*
X001597Y001148D02*
X002030Y001148D01*
X001957Y000951D02*
X018353Y000951D01*
X018258Y001119D02*
X018258Y001119D01*
X017288Y001046D02*
X017288Y001046D01*
X017281Y001049D02*
X002952Y001049D01*
X003258Y001119D02*
X003258Y001119D01*
X003308Y001148D02*
X017030Y001148D01*
X016830Y001226D02*
X016830Y001226D01*
X016805Y001246D02*
X003478Y001246D01*
X003649Y001345D02*
X016681Y001345D01*
X019505Y005385D02*
X010809Y005385D01*
X010918Y005484D02*
X019505Y005484D01*
X019505Y005582D02*
X010959Y005582D01*
X010964Y005681D02*
X019505Y005681D01*
X019505Y005779D02*
X010937Y005779D01*
X010868Y005878D02*
X019505Y005878D01*
X019505Y005976D02*
X006231Y005976D01*
X006330Y006075D02*
X019505Y006075D01*
X019505Y006174D02*
X006428Y006174D01*
X006215Y006469D02*
X001596Y006469D01*
X001694Y006371D02*
X006116Y006371D01*
X006313Y006568D02*
X001497Y006568D01*
X001398Y006666D02*
X006412Y006666D01*
X006510Y006765D02*
X001335Y006765D01*
X001335Y006863D02*
X006609Y006863D01*
X006707Y006962D02*
X001335Y006962D01*
X001335Y007060D02*
X006806Y007060D01*
X006904Y007159D02*
X001335Y007159D01*
X001335Y007258D02*
X007003Y007258D01*
X007102Y007356D02*
X001335Y007356D01*
X001335Y007455D02*
X007200Y007455D01*
X007299Y007553D02*
X001335Y007553D01*
X001335Y007652D02*
X007397Y007652D01*
X010442Y005878D02*
X003868Y005878D01*
X003655Y005655D02*
X010655Y005655D01*
X009350Y003414D02*
X012141Y003414D01*
X008406Y002823D02*
X007875Y002823D01*
X007986Y002725D02*
X008301Y002725D01*
X008242Y002626D02*
X008045Y002626D01*
X008082Y002527D02*
X008215Y002527D01*
X008208Y002429D02*
X008082Y002429D01*
X008082Y002330D02*
X008208Y002330D01*
X008208Y002232D02*
X008082Y002232D01*
X003684Y001365D02*
X003684Y001365D01*
X001830Y001226D02*
X001830Y001226D01*
X001805Y001246D02*
X001473Y001246D01*
X001349Y001345D02*
X001681Y001345D01*
X001558Y001443D02*
X001270Y001443D01*
X001191Y001542D02*
X001439Y001542D01*
X001446Y001533D02*
X001446Y001533D01*
X001335Y007750D02*
X001669Y007750D01*
X001533Y007849D02*
X001335Y007849D01*
X001335Y007947D02*
X001463Y007947D01*
X001424Y008046D02*
X001335Y008046D01*
X001335Y008144D02*
X002106Y008144D01*
X002107Y008243D02*
X002204Y008243D01*
X002204Y008341D02*
X002107Y008341D01*
X002107Y008440D02*
X002204Y008440D01*
X002204Y008539D02*
X002107Y008539D01*
X001513Y008440D02*
X001335Y008440D01*
X001335Y008341D02*
X001452Y008341D01*
X001420Y008243D02*
X001335Y008243D01*
X002107Y010805D02*
X002204Y010805D01*
X002204Y010904D02*
X002107Y010904D01*
X002107Y011002D02*
X002204Y011002D01*
X002204Y011101D02*
X002107Y011101D01*
X002107Y011298D02*
X002204Y011298D01*
X002204Y011396D02*
X002107Y011396D01*
X002107Y011495D02*
X002204Y011495D01*
X002204Y011593D02*
X002107Y011593D01*
X001769Y011593D02*
X000805Y011593D01*
X000805Y011495D02*
X001566Y011495D01*
X001481Y011396D02*
X000805Y011396D01*
X000805Y011298D02*
X001435Y011298D01*
X002687Y011791D02*
X006877Y011791D01*
X006953Y011889D02*
X002790Y011889D01*
X002845Y011988D02*
X006975Y011988D01*
X006975Y012086D02*
X002879Y012086D01*
X002879Y012185D02*
X006975Y012185D01*
X006975Y012283D02*
X002861Y012283D01*
X002820Y012382D02*
X006975Y012382D01*
X006975Y012480D02*
X002730Y012480D01*
X003258Y016119D02*
X003258Y016119D01*
X005410Y017802D02*
X005900Y017802D01*
X005977Y017725D02*
X006333Y017725D01*
X006585Y017977D01*
X006585Y018333D01*
X006333Y018585D01*
X005977Y018585D01*
X005725Y018333D01*
X005725Y017977D01*
X005977Y017725D01*
X005977Y017585D02*
X005725Y017333D01*
X005725Y016977D01*
X005977Y016725D01*
X006333Y016725D01*
X006585Y016977D01*
X006585Y017333D01*
X006333Y017585D01*
X005977Y017585D01*
X005898Y017506D02*
X005585Y017506D01*
X005585Y017407D02*
X005799Y017407D01*
X005725Y017309D02*
X005585Y017309D01*
X005585Y017210D02*
X005725Y017210D01*
X005725Y017112D02*
X005585Y017112D01*
X005585Y017013D02*
X005725Y017013D01*
X005787Y016915D02*
X005585Y016915D01*
X005585Y016816D02*
X005886Y016816D01*
X006424Y016816D02*
X006886Y016816D01*
X006787Y016915D02*
X006523Y016915D01*
X006585Y017013D02*
X006725Y017013D01*
X006725Y017112D02*
X006585Y017112D01*
X006585Y017210D02*
X006725Y017210D01*
X006725Y017309D02*
X006585Y017309D01*
X006511Y017407D02*
X006799Y017407D01*
X006898Y017506D02*
X006412Y017506D01*
X006410Y017802D02*
X006872Y017802D01*
X006774Y017900D02*
X006508Y017900D01*
X006585Y017999D02*
X006705Y017999D01*
X006705Y018097D02*
X006585Y018097D01*
X006585Y018196D02*
X007105Y018196D01*
X007105Y018294D02*
X007205Y018294D01*
X006855Y018491D02*
X006427Y018491D01*
X006525Y018393D02*
X006757Y018393D01*
X006705Y018294D02*
X006585Y018294D01*
X005883Y018491D02*
X005427Y018491D01*
X005525Y018393D02*
X005785Y018393D01*
X005725Y018294D02*
X005585Y018294D01*
X005585Y018196D02*
X005725Y018196D01*
X005725Y018097D02*
X005585Y018097D01*
X005585Y017999D02*
X005725Y017999D01*
X005802Y017900D02*
X005508Y017900D01*
X003739Y018886D02*
X008607Y018886D01*
X008645Y018984D02*
X003616Y018984D01*
X003684Y018945D02*
X003684Y018945D01*
X003446Y019083D02*
X008714Y019083D01*
X008846Y019181D02*
X003275Y019181D01*
X011219Y018590D02*
X011316Y018590D01*
X011316Y018491D02*
X011219Y018491D01*
X011219Y018393D02*
X011316Y018393D01*
D17*
X009155Y017405D03*
X008655Y015155D03*
X008155Y015155D03*
X007155Y011655D03*
X008655Y010655D03*
X009155Y009655D03*
X009155Y009155D03*
X008655Y009155D03*
X008155Y007655D03*
X010155Y005155D03*
X010655Y005655D03*
X009155Y003655D03*
X005655Y004155D03*
X004655Y004155D03*
X003155Y005155D03*
X003655Y005655D03*
X001155Y010155D03*
X004655Y014155D03*
X004655Y014655D03*
X010655Y011655D03*
X011155Y011155D03*
X011655Y011155D03*
X011655Y009155D03*
X011155Y009155D03*
X012155Y015905D03*
X019155Y007155D03*
M02*
