G75*
G70*
%OFA0B0*%
%FSLAX24Y24*%
%IPPOS*%
%LPD*%
%AMOC8*
5,1,8,0,0,1.08239X$1,22.5*
%
%ADD10C,0.0000*%
%ADD11R,0.0157X0.0886*%
%ADD12C,0.0594*%
%ADD13R,0.0748X0.0748*%
%ADD14R,0.0197X0.0591*%
%ADD15R,0.0591X0.0197*%
%ADD16R,0.0760X0.2100*%
%ADD17R,0.0394X0.0433*%
%ADD18R,0.0433X0.0394*%
%ADD19R,0.0600X0.0600*%
%ADD20OC8,0.0600*%
%ADD21C,0.0594*%
%ADD22C,0.0660*%
%ADD23C,0.0100*%
%ADD24C,0.0357*%
D10*
X000655Y002655D02*
X000655Y017655D01*
X002025Y017655D02*
X002027Y017705D01*
X002033Y017755D01*
X002043Y017804D01*
X002057Y017852D01*
X002074Y017899D01*
X002095Y017944D01*
X002120Y017988D01*
X002148Y018029D01*
X002180Y018068D01*
X002214Y018105D01*
X002251Y018139D01*
X002291Y018169D01*
X002333Y018196D01*
X002377Y018220D01*
X002423Y018241D01*
X002470Y018257D01*
X002518Y018270D01*
X002568Y018279D01*
X002617Y018284D01*
X002668Y018285D01*
X002718Y018282D01*
X002767Y018275D01*
X002816Y018264D01*
X002864Y018249D01*
X002910Y018231D01*
X002955Y018209D01*
X002998Y018183D01*
X003039Y018154D01*
X003078Y018122D01*
X003114Y018087D01*
X003146Y018049D01*
X003176Y018009D01*
X003203Y017966D01*
X003226Y017922D01*
X003245Y017876D01*
X003261Y017828D01*
X003273Y017779D01*
X003281Y017730D01*
X003285Y017680D01*
X003285Y017630D01*
X003281Y017580D01*
X003273Y017531D01*
X003261Y017482D01*
X003245Y017434D01*
X003226Y017388D01*
X003203Y017344D01*
X003176Y017301D01*
X003146Y017261D01*
X003114Y017223D01*
X003078Y017188D01*
X003039Y017156D01*
X002998Y017127D01*
X002955Y017101D01*
X002910Y017079D01*
X002864Y017061D01*
X002816Y017046D01*
X002767Y017035D01*
X002718Y017028D01*
X002668Y017025D01*
X002617Y017026D01*
X002568Y017031D01*
X002518Y017040D01*
X002470Y017053D01*
X002423Y017069D01*
X002377Y017090D01*
X002333Y017114D01*
X002291Y017141D01*
X002251Y017171D01*
X002214Y017205D01*
X002180Y017242D01*
X002148Y017281D01*
X002120Y017322D01*
X002095Y017366D01*
X002074Y017411D01*
X002057Y017458D01*
X002043Y017506D01*
X002033Y017555D01*
X002027Y017605D01*
X002025Y017655D01*
X000655Y017655D02*
X000657Y017750D01*
X000664Y017845D01*
X000675Y017940D01*
X000691Y018034D01*
X000711Y018127D01*
X000736Y018218D01*
X000765Y018309D01*
X000798Y018398D01*
X000836Y018486D01*
X000877Y018571D01*
X000923Y018655D01*
X000972Y018736D01*
X001026Y018815D01*
X001083Y018891D01*
X001144Y018965D01*
X001208Y019035D01*
X001275Y019102D01*
X001345Y019166D01*
X001419Y019227D01*
X001495Y019284D01*
X001574Y019338D01*
X001655Y019387D01*
X001739Y019433D01*
X001824Y019474D01*
X001912Y019512D01*
X002001Y019545D01*
X002092Y019574D01*
X002183Y019599D01*
X002276Y019619D01*
X002370Y019635D01*
X002465Y019646D01*
X002560Y019653D01*
X002655Y019655D01*
X017655Y019655D01*
X017025Y017655D02*
X017027Y017705D01*
X017033Y017755D01*
X017043Y017804D01*
X017057Y017852D01*
X017074Y017899D01*
X017095Y017944D01*
X017120Y017988D01*
X017148Y018029D01*
X017180Y018068D01*
X017214Y018105D01*
X017251Y018139D01*
X017291Y018169D01*
X017333Y018196D01*
X017377Y018220D01*
X017423Y018241D01*
X017470Y018257D01*
X017518Y018270D01*
X017568Y018279D01*
X017617Y018284D01*
X017668Y018285D01*
X017718Y018282D01*
X017767Y018275D01*
X017816Y018264D01*
X017864Y018249D01*
X017910Y018231D01*
X017955Y018209D01*
X017998Y018183D01*
X018039Y018154D01*
X018078Y018122D01*
X018114Y018087D01*
X018146Y018049D01*
X018176Y018009D01*
X018203Y017966D01*
X018226Y017922D01*
X018245Y017876D01*
X018261Y017828D01*
X018273Y017779D01*
X018281Y017730D01*
X018285Y017680D01*
X018285Y017630D01*
X018281Y017580D01*
X018273Y017531D01*
X018261Y017482D01*
X018245Y017434D01*
X018226Y017388D01*
X018203Y017344D01*
X018176Y017301D01*
X018146Y017261D01*
X018114Y017223D01*
X018078Y017188D01*
X018039Y017156D01*
X017998Y017127D01*
X017955Y017101D01*
X017910Y017079D01*
X017864Y017061D01*
X017816Y017046D01*
X017767Y017035D01*
X017718Y017028D01*
X017668Y017025D01*
X017617Y017026D01*
X017568Y017031D01*
X017518Y017040D01*
X017470Y017053D01*
X017423Y017069D01*
X017377Y017090D01*
X017333Y017114D01*
X017291Y017141D01*
X017251Y017171D01*
X017214Y017205D01*
X017180Y017242D01*
X017148Y017281D01*
X017120Y017322D01*
X017095Y017366D01*
X017074Y017411D01*
X017057Y017458D01*
X017043Y017506D01*
X017033Y017555D01*
X017027Y017605D01*
X017025Y017655D01*
X017655Y019655D02*
X017750Y019653D01*
X017845Y019646D01*
X017940Y019635D01*
X018034Y019619D01*
X018127Y019599D01*
X018218Y019574D01*
X018309Y019545D01*
X018398Y019512D01*
X018486Y019474D01*
X018571Y019433D01*
X018655Y019387D01*
X018736Y019338D01*
X018815Y019284D01*
X018891Y019227D01*
X018965Y019166D01*
X019035Y019102D01*
X019102Y019035D01*
X019166Y018965D01*
X019227Y018891D01*
X019284Y018815D01*
X019338Y018736D01*
X019387Y018655D01*
X019433Y018571D01*
X019474Y018486D01*
X019512Y018398D01*
X019545Y018309D01*
X019574Y018218D01*
X019599Y018127D01*
X019619Y018034D01*
X019635Y017940D01*
X019646Y017845D01*
X019653Y017750D01*
X019655Y017655D01*
X019655Y002655D01*
X017025Y002655D02*
X017027Y002705D01*
X017033Y002755D01*
X017043Y002804D01*
X017057Y002852D01*
X017074Y002899D01*
X017095Y002944D01*
X017120Y002988D01*
X017148Y003029D01*
X017180Y003068D01*
X017214Y003105D01*
X017251Y003139D01*
X017291Y003169D01*
X017333Y003196D01*
X017377Y003220D01*
X017423Y003241D01*
X017470Y003257D01*
X017518Y003270D01*
X017568Y003279D01*
X017617Y003284D01*
X017668Y003285D01*
X017718Y003282D01*
X017767Y003275D01*
X017816Y003264D01*
X017864Y003249D01*
X017910Y003231D01*
X017955Y003209D01*
X017998Y003183D01*
X018039Y003154D01*
X018078Y003122D01*
X018114Y003087D01*
X018146Y003049D01*
X018176Y003009D01*
X018203Y002966D01*
X018226Y002922D01*
X018245Y002876D01*
X018261Y002828D01*
X018273Y002779D01*
X018281Y002730D01*
X018285Y002680D01*
X018285Y002630D01*
X018281Y002580D01*
X018273Y002531D01*
X018261Y002482D01*
X018245Y002434D01*
X018226Y002388D01*
X018203Y002344D01*
X018176Y002301D01*
X018146Y002261D01*
X018114Y002223D01*
X018078Y002188D01*
X018039Y002156D01*
X017998Y002127D01*
X017955Y002101D01*
X017910Y002079D01*
X017864Y002061D01*
X017816Y002046D01*
X017767Y002035D01*
X017718Y002028D01*
X017668Y002025D01*
X017617Y002026D01*
X017568Y002031D01*
X017518Y002040D01*
X017470Y002053D01*
X017423Y002069D01*
X017377Y002090D01*
X017333Y002114D01*
X017291Y002141D01*
X017251Y002171D01*
X017214Y002205D01*
X017180Y002242D01*
X017148Y002281D01*
X017120Y002322D01*
X017095Y002366D01*
X017074Y002411D01*
X017057Y002458D01*
X017043Y002506D01*
X017033Y002555D01*
X017027Y002605D01*
X017025Y002655D01*
X017655Y000655D02*
X017750Y000657D01*
X017845Y000664D01*
X017940Y000675D01*
X018034Y000691D01*
X018127Y000711D01*
X018218Y000736D01*
X018309Y000765D01*
X018398Y000798D01*
X018486Y000836D01*
X018571Y000877D01*
X018655Y000923D01*
X018736Y000972D01*
X018815Y001026D01*
X018891Y001083D01*
X018965Y001144D01*
X019035Y001208D01*
X019102Y001275D01*
X019166Y001345D01*
X019227Y001419D01*
X019284Y001495D01*
X019338Y001574D01*
X019387Y001655D01*
X019433Y001739D01*
X019474Y001824D01*
X019512Y001912D01*
X019545Y002001D01*
X019574Y002092D01*
X019599Y002183D01*
X019619Y002276D01*
X019635Y002370D01*
X019646Y002465D01*
X019653Y002560D01*
X019655Y002655D01*
X017655Y000655D02*
X002655Y000655D01*
X002025Y002655D02*
X002027Y002705D01*
X002033Y002755D01*
X002043Y002804D01*
X002057Y002852D01*
X002074Y002899D01*
X002095Y002944D01*
X002120Y002988D01*
X002148Y003029D01*
X002180Y003068D01*
X002214Y003105D01*
X002251Y003139D01*
X002291Y003169D01*
X002333Y003196D01*
X002377Y003220D01*
X002423Y003241D01*
X002470Y003257D01*
X002518Y003270D01*
X002568Y003279D01*
X002617Y003284D01*
X002668Y003285D01*
X002718Y003282D01*
X002767Y003275D01*
X002816Y003264D01*
X002864Y003249D01*
X002910Y003231D01*
X002955Y003209D01*
X002998Y003183D01*
X003039Y003154D01*
X003078Y003122D01*
X003114Y003087D01*
X003146Y003049D01*
X003176Y003009D01*
X003203Y002966D01*
X003226Y002922D01*
X003245Y002876D01*
X003261Y002828D01*
X003273Y002779D01*
X003281Y002730D01*
X003285Y002680D01*
X003285Y002630D01*
X003281Y002580D01*
X003273Y002531D01*
X003261Y002482D01*
X003245Y002434D01*
X003226Y002388D01*
X003203Y002344D01*
X003176Y002301D01*
X003146Y002261D01*
X003114Y002223D01*
X003078Y002188D01*
X003039Y002156D01*
X002998Y002127D01*
X002955Y002101D01*
X002910Y002079D01*
X002864Y002061D01*
X002816Y002046D01*
X002767Y002035D01*
X002718Y002028D01*
X002668Y002025D01*
X002617Y002026D01*
X002568Y002031D01*
X002518Y002040D01*
X002470Y002053D01*
X002423Y002069D01*
X002377Y002090D01*
X002333Y002114D01*
X002291Y002141D01*
X002251Y002171D01*
X002214Y002205D01*
X002180Y002242D01*
X002148Y002281D01*
X002120Y002322D01*
X002095Y002366D01*
X002074Y002411D01*
X002057Y002458D01*
X002043Y002506D01*
X002033Y002555D01*
X002027Y002605D01*
X002025Y002655D01*
X000655Y002655D02*
X000657Y002560D01*
X000664Y002465D01*
X000675Y002370D01*
X000691Y002276D01*
X000711Y002183D01*
X000736Y002092D01*
X000765Y002001D01*
X000798Y001912D01*
X000836Y001824D01*
X000877Y001739D01*
X000923Y001655D01*
X000972Y001574D01*
X001026Y001495D01*
X001083Y001419D01*
X001144Y001345D01*
X001208Y001275D01*
X001275Y001208D01*
X001345Y001144D01*
X001419Y001083D01*
X001495Y001026D01*
X001574Y000972D01*
X001655Y000923D01*
X001739Y000877D01*
X001824Y000836D01*
X001912Y000798D01*
X002001Y000765D01*
X002092Y000736D01*
X002183Y000711D01*
X002276Y000691D01*
X002370Y000675D01*
X002465Y000664D01*
X002560Y000657D01*
X002655Y000655D01*
X009260Y017934D02*
X009262Y017954D01*
X009268Y017974D01*
X009277Y017992D01*
X009290Y018009D01*
X009305Y018022D01*
X009323Y018032D01*
X009343Y018039D01*
X009363Y018042D01*
X009383Y018041D01*
X009403Y018036D01*
X009422Y018028D01*
X009439Y018016D01*
X009453Y018001D01*
X009464Y017983D01*
X009472Y017964D01*
X009476Y017944D01*
X009476Y017924D01*
X009472Y017904D01*
X009464Y017885D01*
X009453Y017867D01*
X009439Y017852D01*
X009422Y017840D01*
X009403Y017832D01*
X009383Y017827D01*
X009363Y017826D01*
X009343Y017829D01*
X009323Y017836D01*
X009305Y017846D01*
X009290Y017859D01*
X009277Y017876D01*
X009268Y017894D01*
X009262Y017914D01*
X009260Y017934D01*
X010835Y017934D02*
X010837Y017954D01*
X010843Y017974D01*
X010852Y017992D01*
X010865Y018009D01*
X010880Y018022D01*
X010898Y018032D01*
X010918Y018039D01*
X010938Y018042D01*
X010958Y018041D01*
X010978Y018036D01*
X010997Y018028D01*
X011014Y018016D01*
X011028Y018001D01*
X011039Y017983D01*
X011047Y017964D01*
X011051Y017944D01*
X011051Y017924D01*
X011047Y017904D01*
X011039Y017885D01*
X011028Y017867D01*
X011014Y017852D01*
X010997Y017840D01*
X010978Y017832D01*
X010958Y017827D01*
X010938Y017826D01*
X010918Y017829D01*
X010898Y017836D01*
X010880Y017846D01*
X010865Y017859D01*
X010852Y017876D01*
X010843Y017894D01*
X010837Y017914D01*
X010835Y017934D01*
D11*
X010667Y017629D03*
X010411Y017629D03*
X010155Y017629D03*
X009899Y017629D03*
X009643Y017629D03*
D12*
X009043Y018780D03*
X011267Y018780D03*
D13*
X010155Y018780D03*
D14*
X010155Y012439D03*
X010470Y012439D03*
X010785Y012439D03*
X011100Y012439D03*
X011415Y012439D03*
X011730Y012439D03*
X009840Y012439D03*
X009525Y012439D03*
X009210Y012439D03*
X008895Y012439D03*
X008580Y012439D03*
X008580Y007872D03*
X008895Y007872D03*
X009210Y007872D03*
X009525Y007872D03*
X009840Y007872D03*
X010155Y007872D03*
X010470Y007872D03*
X010785Y007872D03*
X011100Y007872D03*
X011415Y007872D03*
X011730Y007872D03*
D15*
X012439Y008580D03*
X012439Y008895D03*
X012439Y009210D03*
X012439Y009525D03*
X012439Y009840D03*
X012439Y010155D03*
X012439Y010470D03*
X012439Y010785D03*
X012439Y011100D03*
X012439Y011415D03*
X012439Y011730D03*
X007872Y011730D03*
X007872Y011415D03*
X007872Y011100D03*
X007872Y010785D03*
X007872Y010470D03*
X007872Y010155D03*
X007872Y009840D03*
X007872Y009525D03*
X007872Y009210D03*
X007872Y008895D03*
X007872Y008580D03*
D16*
X005655Y008255D03*
X005655Y012055D03*
D17*
X005655Y013820D03*
X005655Y014490D03*
X008655Y014490D03*
X008655Y013820D03*
X009655Y013820D03*
X009655Y014490D03*
X011655Y015320D03*
X011655Y015990D03*
X017820Y010155D03*
X018490Y010155D03*
X018490Y007155D03*
X017820Y007155D03*
X008655Y006490D03*
X008655Y005820D03*
X005655Y005820D03*
X005655Y006490D03*
X002490Y010155D03*
X001820Y010155D03*
X001820Y013155D03*
X002490Y013155D03*
D18*
X007655Y013820D03*
X007655Y014490D03*
X009655Y015320D03*
X009655Y015990D03*
X010655Y015990D03*
X010655Y015320D03*
X013820Y011655D03*
X014490Y011655D03*
X014490Y010655D03*
X013820Y010655D03*
X013820Y008655D03*
X014490Y008655D03*
X013655Y002490D03*
X013655Y001820D03*
X006655Y001820D03*
X006655Y002490D03*
D19*
X005155Y017155D03*
D20*
X005155Y018155D03*
X006155Y018155D03*
X006155Y017155D03*
X007155Y017155D03*
X007155Y018155D03*
D21*
X002452Y012155D02*
X001858Y012155D01*
X001858Y011155D02*
X002452Y011155D01*
X002452Y009155D02*
X001858Y009155D01*
X001858Y008155D02*
X002452Y008155D01*
X007655Y002452D02*
X007655Y001858D01*
X008655Y001858D02*
X008655Y002452D01*
X010655Y002452D02*
X010655Y001858D01*
X011655Y001858D02*
X011655Y002452D01*
X012655Y002452D02*
X012655Y001858D01*
X017858Y008155D02*
X018452Y008155D01*
X018452Y009155D02*
X017858Y009155D01*
X017858Y011155D02*
X018452Y011155D01*
X018452Y012155D02*
X017858Y012155D01*
D22*
X015655Y011655D03*
X015655Y010655D03*
X015655Y009655D03*
X015655Y008655D03*
X015655Y007655D03*
X015655Y006655D03*
X015655Y012655D03*
X015655Y013655D03*
D23*
X001089Y001671D02*
X001347Y001347D01*
X001671Y001089D01*
X002044Y000909D01*
X002448Y000817D01*
X002655Y000805D01*
X017655Y000805D01*
X017862Y000817D01*
X018266Y000909D01*
X018639Y001089D01*
X018963Y001347D01*
X019222Y001671D01*
X019401Y002044D01*
X019494Y002448D01*
X019505Y002655D01*
X019505Y017593D01*
X019505Y017623D01*
X019505Y017655D01*
X019494Y017862D01*
X019401Y018266D01*
X019222Y018639D01*
X018963Y018963D01*
X018639Y019222D01*
X018266Y019401D01*
X017862Y019494D01*
X017655Y019505D01*
X002717Y019505D01*
X002702Y019505D01*
X002655Y019505D01*
X002448Y019494D01*
X002044Y019401D01*
X001671Y019222D01*
X001347Y018963D01*
X001089Y018639D01*
X000909Y018266D01*
X000817Y017862D01*
X000805Y017655D01*
X000805Y002717D01*
X000805Y002707D01*
X000805Y002655D01*
X000817Y002448D01*
X000909Y002044D01*
X001089Y001671D01*
X001113Y001641D02*
X001372Y001641D01*
X001305Y001739D02*
X001056Y001739D01*
X001008Y001838D02*
X001238Y001838D01*
X001171Y001936D02*
X000961Y001936D01*
X000913Y002035D02*
X001139Y002035D01*
X001169Y001939D02*
X001169Y001939D01*
X001446Y001533D01*
X001830Y001226D01*
X002288Y001046D01*
X002778Y001010D01*
X003258Y001119D01*
X003684Y001365D01*
X004018Y001726D01*
X004232Y002169D01*
X004305Y002655D01*
X004232Y003141D01*
X004232Y003141D01*
X004018Y003585D01*
X003684Y003945D01*
X003258Y004191D01*
X003258Y004191D01*
X002778Y004300D01*
X002288Y004264D01*
X001830Y004084D01*
X001446Y003777D01*
X001169Y003371D01*
X001024Y002901D01*
X001024Y002409D01*
X001169Y001939D01*
X001109Y002133D02*
X000889Y002133D01*
X000866Y002232D02*
X001078Y002232D01*
X001048Y002330D02*
X000844Y002330D01*
X000821Y002429D02*
X001024Y002429D01*
X001024Y002409D02*
X001024Y002409D01*
X001024Y002527D02*
X000812Y002527D01*
X000807Y002626D02*
X001024Y002626D01*
X001024Y002725D02*
X000805Y002725D01*
X000805Y002823D02*
X001024Y002823D01*
X001024Y002901D02*
X001024Y002901D01*
X001030Y002922D02*
X000805Y002922D01*
X000805Y003020D02*
X001060Y003020D01*
X001091Y003119D02*
X000805Y003119D01*
X000805Y003217D02*
X001121Y003217D01*
X001151Y003316D02*
X000805Y003316D01*
X000805Y003414D02*
X001198Y003414D01*
X001169Y003371D02*
X001169Y003371D01*
X001265Y003513D02*
X000805Y003513D01*
X000805Y003611D02*
X001332Y003611D01*
X001400Y003710D02*
X000805Y003710D01*
X000805Y003809D02*
X001485Y003809D01*
X001446Y003777D02*
X001446Y003777D01*
X001608Y003907D02*
X000805Y003907D01*
X000805Y004006D02*
X001732Y004006D01*
X001830Y004084D02*
X001830Y004084D01*
X001881Y004104D02*
X000805Y004104D01*
X000805Y004203D02*
X002132Y004203D01*
X002288Y004264D02*
X002288Y004264D01*
X002778Y004300D02*
X002778Y004300D01*
X003207Y004203D02*
X006948Y004203D01*
X007047Y004301D02*
X000805Y004301D01*
X000805Y004400D02*
X007145Y004400D01*
X007244Y004498D02*
X000805Y004498D01*
X000805Y004597D02*
X007342Y004597D01*
X007441Y004695D02*
X000805Y004695D01*
X000805Y004794D02*
X007475Y004794D01*
X007475Y004730D02*
X005600Y002855D01*
X005600Y002706D01*
X005600Y001331D01*
X005706Y001225D01*
X005956Y000975D01*
X006105Y000975D01*
X006581Y000975D01*
X010730Y000975D01*
X013480Y000975D01*
X013585Y001081D01*
X013835Y001331D01*
X013835Y001480D01*
X013835Y001494D01*
X013925Y001494D01*
X014002Y001570D01*
X014002Y002071D01*
X013925Y002147D01*
X013385Y002147D01*
X013309Y002071D01*
X013309Y001570D01*
X013385Y001494D01*
X013475Y001494D01*
X013475Y001480D01*
X013331Y001335D01*
X010835Y001335D01*
X010835Y001471D01*
X010897Y001496D01*
X011017Y001616D01*
X011082Y001773D01*
X011082Y002537D01*
X011017Y002694D01*
X010897Y002814D01*
X010740Y002879D01*
X010570Y002879D01*
X010413Y002814D01*
X010293Y002694D01*
X010228Y002537D01*
X010228Y001773D01*
X010293Y001616D01*
X010413Y001496D01*
X010475Y001471D01*
X010475Y001335D01*
X006835Y001335D01*
X006835Y001494D01*
X006925Y001494D01*
X007002Y001570D01*
X007002Y002071D01*
X006925Y002147D01*
X006385Y002147D01*
X006309Y002071D01*
X006309Y001570D01*
X006385Y001494D01*
X006475Y001494D01*
X006475Y001335D01*
X006105Y001335D01*
X005960Y001480D01*
X005960Y002706D01*
X007730Y004475D01*
X007835Y004581D01*
X007835Y006081D01*
X008064Y006310D01*
X008328Y006310D01*
X008328Y006219D01*
X008382Y006166D01*
X008366Y006157D01*
X008338Y006129D01*
X008319Y006095D01*
X008308Y006057D01*
X008308Y005869D01*
X008606Y005869D01*
X008606Y005772D01*
X008308Y005772D01*
X008308Y005584D01*
X008319Y005546D01*
X008338Y005512D01*
X008366Y005484D01*
X008400Y005464D01*
X008439Y005454D01*
X008607Y005454D01*
X008607Y005772D01*
X008704Y005772D01*
X008704Y005869D01*
X009002Y005869D01*
X009002Y006057D01*
X008992Y006095D01*
X008972Y006129D01*
X008944Y006157D01*
X008929Y006166D01*
X008982Y006219D01*
X008982Y006562D01*
X009030Y006610D01*
X009030Y003937D01*
X008980Y003917D01*
X008894Y003830D01*
X008847Y003716D01*
X008847Y003594D01*
X008894Y003480D01*
X008980Y003394D01*
X009093Y003347D01*
X009081Y003335D01*
X008230Y003335D01*
X008081Y003335D01*
X007624Y002879D01*
X007570Y002879D01*
X007413Y002814D01*
X007293Y002694D01*
X007283Y002670D01*
X007246Y002670D01*
X007002Y002670D01*
X007002Y002740D01*
X006925Y002817D01*
X006385Y002817D01*
X006309Y002740D01*
X006309Y002239D01*
X006385Y002163D01*
X006925Y002163D01*
X007002Y002239D01*
X007002Y002310D01*
X007228Y002310D01*
X007228Y001773D01*
X007293Y001616D01*
X007413Y001496D01*
X007570Y001431D01*
X007740Y001431D01*
X007897Y001496D01*
X008017Y001616D01*
X008082Y001773D01*
X008082Y002537D01*
X008017Y002694D01*
X007983Y002728D01*
X008230Y002975D01*
X009230Y002975D01*
X009335Y003081D01*
X009600Y003345D01*
X009705Y003451D01*
X009705Y005351D01*
X009847Y005209D01*
X009847Y005094D01*
X009894Y004980D01*
X009980Y004894D01*
X010094Y004847D01*
X010216Y004847D01*
X010330Y004894D01*
X010417Y004980D01*
X010464Y005094D01*
X010464Y005216D01*
X010417Y005330D01*
X010330Y005417D01*
X010216Y005464D01*
X010101Y005464D01*
X010020Y005545D01*
X010020Y006036D01*
X010347Y005709D01*
X010347Y005594D01*
X010394Y005480D01*
X010480Y005394D01*
X010594Y005347D01*
X010716Y005347D01*
X010830Y005394D01*
X010917Y005480D01*
X010964Y005594D01*
X010964Y005716D01*
X010917Y005830D01*
X010830Y005917D01*
X010716Y005964D01*
X010601Y005964D01*
X010335Y006230D01*
X010335Y007221D01*
X011475Y006081D01*
X011581Y005975D01*
X016746Y005975D01*
X016895Y005975D01*
X017728Y006809D01*
X018071Y006809D01*
X018147Y006885D01*
X018147Y007425D01*
X018071Y007502D01*
X018000Y007502D01*
X018000Y007728D01*
X018537Y007728D01*
X018694Y007793D01*
X018814Y007913D01*
X018879Y008070D01*
X018879Y008240D01*
X018814Y008397D01*
X018694Y008517D01*
X018537Y008582D01*
X017773Y008582D01*
X017616Y008517D01*
X017496Y008397D01*
X017431Y008240D01*
X017431Y008070D01*
X017496Y007913D01*
X017616Y007793D01*
X017640Y007783D01*
X017640Y007746D01*
X017640Y007502D01*
X017570Y007502D01*
X017494Y007425D01*
X017494Y007083D01*
X016746Y006335D01*
X015986Y006335D01*
X016045Y006395D01*
X016115Y006564D01*
X016115Y006747D01*
X016045Y006916D01*
X015986Y006975D01*
X016581Y006975D01*
X016730Y006975D01*
X017230Y007475D01*
X017335Y007581D01*
X017335Y009415D01*
X017728Y009809D01*
X018071Y009809D01*
X018147Y009885D01*
X018147Y010425D01*
X018071Y010502D01*
X018000Y010502D01*
X018000Y010728D01*
X018537Y010728D01*
X018694Y010793D01*
X018814Y010913D01*
X018879Y011070D01*
X018879Y011240D01*
X018814Y011397D01*
X018694Y011517D01*
X018537Y011582D01*
X017773Y011582D01*
X017616Y011517D01*
X017496Y011397D01*
X017431Y011240D01*
X017431Y011070D01*
X017496Y010913D01*
X017616Y010793D01*
X017640Y010783D01*
X017640Y010746D01*
X017640Y010502D01*
X017570Y010502D01*
X017494Y010425D01*
X017494Y010083D01*
X016975Y009564D01*
X016975Y009415D01*
X016975Y007730D01*
X016581Y007335D01*
X015986Y007335D01*
X016045Y007395D01*
X016115Y007564D01*
X016115Y007747D01*
X016045Y007916D01*
X015916Y008045D01*
X015747Y008115D01*
X015564Y008115D01*
X015395Y008045D01*
X015265Y007916D01*
X015195Y007747D01*
X015195Y007564D01*
X015265Y007395D01*
X015325Y007335D01*
X011230Y007335D01*
X011118Y007446D01*
X011252Y007446D01*
X011257Y007452D01*
X011263Y007446D01*
X011567Y007446D01*
X011572Y007452D01*
X011578Y007446D01*
X011882Y007446D01*
X011958Y007523D01*
X011958Y008221D01*
X011882Y008297D01*
X011578Y008297D01*
X011572Y008292D01*
X011567Y008297D01*
X011263Y008297D01*
X011257Y008292D01*
X011252Y008297D01*
X010948Y008297D01*
X010942Y008292D01*
X010937Y008297D01*
X010633Y008297D01*
X010628Y008292D01*
X010622Y008297D01*
X010318Y008297D01*
X010313Y008292D01*
X010307Y008297D01*
X010003Y008297D01*
X009998Y008292D01*
X009992Y008297D01*
X009688Y008297D01*
X009683Y008292D01*
X009677Y008297D01*
X009373Y008297D01*
X009368Y008292D01*
X009362Y008297D01*
X009075Y008297D01*
X009075Y008821D01*
X009101Y008847D01*
X009216Y008847D01*
X009330Y008894D01*
X009417Y008980D01*
X009464Y009094D01*
X009464Y009209D01*
X010155Y009901D01*
X010847Y009209D01*
X010847Y009094D01*
X010894Y008980D01*
X010980Y008894D01*
X011094Y008847D01*
X011209Y008847D01*
X011655Y008400D01*
X011804Y008400D01*
X012041Y008400D01*
X012089Y008352D01*
X012788Y008352D01*
X012836Y008400D01*
X013478Y008400D01*
X013550Y008328D01*
X014091Y008328D01*
X014144Y008382D01*
X014153Y008366D01*
X014181Y008338D01*
X014215Y008319D01*
X014253Y008308D01*
X014441Y008308D01*
X014441Y008606D01*
X014538Y008606D01*
X014538Y008308D01*
X014726Y008308D01*
X014764Y008319D01*
X014798Y008338D01*
X014826Y008366D01*
X014846Y008400D01*
X014856Y008439D01*
X014856Y008607D01*
X014538Y008607D01*
X014538Y008704D01*
X014441Y008704D01*
X014441Y009002D01*
X014253Y009002D01*
X014215Y008992D01*
X014181Y008972D01*
X014153Y008944D01*
X014144Y008929D01*
X014091Y008982D01*
X013550Y008982D01*
X013474Y008906D01*
X013474Y008760D01*
X012879Y008760D01*
X012884Y008777D01*
X012884Y008895D01*
X012439Y008895D01*
X012439Y008895D01*
X012884Y008895D01*
X012884Y009013D01*
X012874Y009052D01*
X012864Y009069D01*
X012864Y009362D01*
X012859Y009368D01*
X012864Y009373D01*
X012864Y009677D01*
X012859Y009683D01*
X012864Y009688D01*
X012864Y009992D01*
X012859Y009998D01*
X012864Y010003D01*
X012864Y010192D01*
X013475Y009581D01*
X013581Y009475D01*
X014831Y009475D01*
X014980Y009475D01*
X015195Y009691D01*
X015195Y009564D01*
X015265Y009395D01*
X015395Y009265D01*
X015564Y009195D01*
X015747Y009195D01*
X015916Y009265D01*
X016045Y009395D01*
X016115Y009564D01*
X016115Y009747D01*
X016045Y009916D01*
X015983Y009978D01*
X016230Y010225D01*
X016335Y010331D01*
X016335Y012081D01*
X016335Y012230D01*
X016082Y012483D01*
X016115Y012564D01*
X016115Y012747D01*
X016045Y012916D01*
X015916Y013045D01*
X015747Y013115D01*
X015564Y013115D01*
X015395Y013045D01*
X015265Y012916D01*
X015195Y012747D01*
X015195Y012564D01*
X015265Y012395D01*
X015395Y012265D01*
X015564Y012195D01*
X015747Y012195D01*
X015827Y012229D01*
X015975Y012081D01*
X015975Y011986D01*
X015916Y012045D01*
X015747Y012115D01*
X015564Y012115D01*
X015395Y012045D01*
X015265Y011916D01*
X015195Y011747D01*
X015195Y011564D01*
X015265Y011395D01*
X015395Y011265D01*
X015564Y011195D01*
X015747Y011195D01*
X015916Y011265D01*
X015975Y011325D01*
X015975Y010986D01*
X015916Y011045D01*
X015747Y011115D01*
X015564Y011115D01*
X015395Y011045D01*
X015265Y010916D01*
X015195Y010747D01*
X015195Y010564D01*
X015265Y010395D01*
X015328Y010332D01*
X015225Y010230D01*
X015085Y010090D01*
X015085Y012831D01*
X015483Y013229D01*
X015564Y013195D01*
X015747Y013195D01*
X015916Y013265D01*
X016045Y013395D01*
X016115Y013564D01*
X019505Y013564D01*
X019505Y013466D02*
X016075Y013466D01*
X016115Y013564D02*
X016115Y013747D01*
X016045Y013916D01*
X015916Y014045D01*
X015747Y014115D01*
X015564Y014115D01*
X015395Y014045D01*
X015265Y013916D01*
X015195Y013747D01*
X015195Y013564D01*
X011280Y013564D01*
X011280Y013466D02*
X015211Y013466D01*
X015229Y013483D02*
X014725Y012980D01*
X014725Y012831D01*
X014725Y012002D01*
X014538Y012002D01*
X014538Y011704D01*
X014441Y011704D01*
X014441Y012002D01*
X014253Y012002D01*
X014215Y011992D01*
X014181Y011972D01*
X014153Y011944D01*
X014144Y011929D01*
X014091Y011982D01*
X013550Y011982D01*
X013478Y011910D01*
X012836Y011910D01*
X012788Y011958D01*
X012089Y011958D01*
X012041Y011910D01*
X011595Y011910D01*
X011595Y012013D01*
X011882Y012013D01*
X011958Y012089D01*
X011958Y012788D01*
X011882Y012864D01*
X011578Y012864D01*
X011572Y012859D01*
X011567Y012864D01*
X011280Y012864D01*
X011280Y014136D01*
X011280Y014285D01*
X010835Y014730D01*
X010835Y014994D01*
X010925Y014994D01*
X011002Y015070D01*
X011002Y015571D01*
X010925Y015647D01*
X010385Y015647D01*
X010309Y015571D01*
X010309Y015070D01*
X010385Y014994D01*
X010475Y014994D01*
X010475Y014755D01*
X010002Y015228D01*
X010002Y015571D01*
X009925Y015647D01*
X009385Y015647D01*
X009309Y015571D01*
X009309Y015070D01*
X009385Y014994D01*
X009727Y014994D01*
X009865Y014856D01*
X009704Y014856D01*
X009704Y014538D01*
X010002Y014538D01*
X010002Y014719D01*
X010605Y014116D01*
X010605Y012879D01*
X010588Y012884D01*
X010470Y012884D01*
X010352Y012884D01*
X010335Y012879D01*
X010335Y013246D01*
X010335Y013395D01*
X009982Y013748D01*
X009982Y014091D01*
X009928Y014144D01*
X009944Y014153D01*
X009972Y014181D01*
X009992Y014215D01*
X010002Y014253D01*
X010002Y014441D01*
X009704Y014441D01*
X009704Y014538D01*
X009607Y014538D01*
X009607Y014856D01*
X009439Y014856D01*
X009400Y014846D01*
X009366Y014826D01*
X009338Y014798D01*
X009319Y014764D01*
X009308Y014726D01*
X009308Y014538D01*
X009606Y014538D01*
X009606Y014441D01*
X009308Y014441D01*
X009308Y014253D01*
X009319Y014215D01*
X009338Y014181D01*
X009366Y014153D01*
X009382Y014144D01*
X009328Y014091D01*
X009328Y013585D01*
X009145Y013585D01*
X008982Y013748D01*
X008982Y014091D01*
X008929Y014144D01*
X008944Y014153D01*
X008972Y014181D01*
X008992Y014215D01*
X009002Y014253D01*
X009002Y014441D01*
X008704Y014441D01*
X008704Y014538D01*
X009002Y014538D01*
X009002Y014726D01*
X008992Y014764D01*
X008972Y014798D01*
X008944Y014826D01*
X008910Y014846D01*
X008872Y014856D01*
X008704Y014856D01*
X008704Y014538D01*
X008607Y014538D01*
X008607Y014856D01*
X008439Y014856D01*
X008400Y014846D01*
X008366Y014826D01*
X008338Y014798D01*
X008319Y014764D01*
X008308Y014726D01*
X008308Y014538D01*
X008606Y014538D01*
X008606Y014441D01*
X008308Y014441D01*
X008308Y014253D01*
X008319Y014215D01*
X008338Y014181D01*
X008366Y014153D01*
X008382Y014144D01*
X008328Y014091D01*
X008328Y014000D01*
X008002Y014000D01*
X008002Y014071D01*
X007925Y014147D01*
X007385Y014147D01*
X007309Y014071D01*
X007309Y013585D01*
X007230Y013585D01*
X007085Y013730D01*
X007085Y016331D01*
X007085Y016480D01*
X006585Y016980D01*
X006585Y017333D01*
X006333Y017585D01*
X005977Y017585D01*
X005835Y017443D01*
X005835Y017581D01*
X005980Y017725D01*
X006333Y017725D01*
X006585Y017977D01*
X006585Y018333D01*
X006333Y018585D01*
X005977Y018585D01*
X005725Y018333D01*
X005725Y017980D01*
X005475Y017730D01*
X005475Y017585D01*
X004840Y017585D01*
X004980Y017725D01*
X005333Y017725D01*
X005585Y017977D01*
X005585Y018333D01*
X005333Y018585D01*
X004977Y018585D01*
X004725Y018333D01*
X004725Y017980D01*
X004581Y017835D01*
X004475Y017730D01*
X004475Y016730D01*
X002081Y014335D01*
X001730Y014335D01*
X001581Y014335D01*
X001081Y013835D01*
X000975Y013730D01*
X000975Y013230D01*
X000975Y013081D01*
X000975Y010411D01*
X000805Y010411D01*
X000805Y010509D02*
X000975Y010509D01*
X000975Y010411D02*
X000894Y010330D01*
X000847Y010216D01*
X000847Y010094D01*
X000894Y009980D01*
X000980Y009894D01*
X001094Y009847D01*
X001216Y009847D01*
X001330Y009894D01*
X001411Y009975D01*
X001494Y009975D01*
X001494Y009885D01*
X001570Y009809D01*
X002071Y009809D01*
X002147Y009885D01*
X002147Y010425D01*
X002071Y010502D01*
X001570Y010502D01*
X001494Y010425D01*
X001494Y010335D01*
X001411Y010335D01*
X001335Y010411D01*
X001335Y012975D01*
X001494Y012975D01*
X001494Y012885D01*
X001570Y012809D01*
X002071Y012809D01*
X002147Y012885D01*
X002147Y013425D01*
X002071Y013502D01*
X001570Y013502D01*
X001494Y013425D01*
X001494Y013335D01*
X001335Y013335D01*
X001335Y013581D01*
X001730Y013975D01*
X002230Y013975D01*
X002335Y014081D01*
X004835Y016581D01*
X004835Y016725D01*
X004975Y016725D01*
X004975Y016581D01*
X005081Y016475D01*
X006225Y015331D01*
X006225Y013331D01*
X006331Y013225D01*
X006831Y012725D01*
X006980Y012725D01*
X008331Y012725D01*
X008352Y012704D01*
X008352Y012089D01*
X008428Y012013D01*
X008733Y012013D01*
X008738Y012019D01*
X008743Y012013D01*
X009048Y012013D01*
X009053Y012019D01*
X009058Y012013D01*
X009362Y012013D01*
X009368Y012019D01*
X009373Y012013D01*
X009660Y012013D01*
X009660Y011280D01*
X008297Y011280D01*
X008297Y011567D01*
X008292Y011572D01*
X008297Y011578D01*
X008297Y011882D01*
X008221Y011958D01*
X007523Y011958D01*
X007446Y011882D01*
X007446Y011758D01*
X007417Y011830D01*
X007330Y011917D01*
X007216Y011964D01*
X007094Y011964D01*
X006980Y011917D01*
X006894Y011830D01*
X006847Y011716D01*
X006847Y011594D01*
X006894Y011480D01*
X006980Y011394D01*
X007094Y011347D01*
X007209Y011347D01*
X007321Y011235D01*
X007446Y011235D01*
X007446Y010958D01*
X007437Y010941D01*
X007426Y010903D01*
X007426Y010785D01*
X007426Y010667D01*
X007431Y010650D01*
X005915Y010650D01*
X005835Y010730D01*
X005835Y010875D01*
X006089Y010875D01*
X006165Y010951D01*
X006165Y013159D01*
X006089Y013235D01*
X005835Y013235D01*
X005835Y013474D01*
X005906Y013474D01*
X005982Y013550D01*
X005982Y014091D01*
X005929Y014144D01*
X005944Y014153D01*
X005972Y014181D01*
X005992Y014215D01*
X006002Y014253D01*
X006002Y014441D01*
X005704Y014441D01*
X005704Y014538D01*
X006002Y014538D01*
X006002Y014726D01*
X005992Y014764D01*
X005972Y014798D01*
X005944Y014826D01*
X005910Y014846D01*
X005872Y014856D01*
X005704Y014856D01*
X005704Y014538D01*
X005607Y014538D01*
X005607Y014856D01*
X005439Y014856D01*
X005400Y014846D01*
X005366Y014826D01*
X005338Y014798D01*
X005319Y014764D01*
X005308Y014726D01*
X005308Y014538D01*
X005606Y014538D01*
X005606Y014441D01*
X005308Y014441D01*
X005308Y014253D01*
X005319Y014215D01*
X005338Y014181D01*
X005366Y014153D01*
X005382Y014144D01*
X005328Y014091D01*
X005328Y013550D01*
X005404Y013474D01*
X005475Y013474D01*
X005475Y013235D01*
X005221Y013235D01*
X005145Y013159D01*
X005145Y010951D01*
X005221Y010875D01*
X005475Y010875D01*
X005475Y010581D01*
X005581Y010475D01*
X005766Y010290D01*
X005786Y010290D01*
X005725Y010230D01*
X005725Y010230D01*
X005581Y010085D01*
X005581Y010085D01*
X005475Y009980D01*
X005475Y009435D01*
X005221Y009435D01*
X005145Y009359D01*
X005145Y007151D01*
X005221Y007075D01*
X005475Y007075D01*
X005475Y006836D01*
X005404Y006836D01*
X005328Y006760D01*
X005328Y006219D01*
X005382Y006166D01*
X005366Y006157D01*
X005338Y006129D01*
X005319Y006095D01*
X005308Y006057D01*
X005308Y005869D01*
X005606Y005869D01*
X005606Y005772D01*
X005308Y005772D01*
X005308Y005584D01*
X005319Y005546D01*
X005338Y005512D01*
X005366Y005484D01*
X005400Y005464D01*
X005439Y005454D01*
X005607Y005454D01*
X005607Y005772D01*
X005704Y005772D01*
X005704Y005869D01*
X006002Y005869D01*
X006002Y006057D01*
X005992Y006095D01*
X005972Y006129D01*
X005944Y006157D01*
X005929Y006166D01*
X005982Y006219D01*
X005982Y006760D01*
X005906Y006836D01*
X005835Y006836D01*
X005835Y007075D01*
X006089Y007075D01*
X006165Y007151D01*
X006165Y009359D01*
X006089Y009435D01*
X005835Y009435D01*
X005835Y009831D01*
X005980Y009975D01*
X007446Y009975D01*
X007446Y009688D01*
X007452Y009683D01*
X007446Y009677D01*
X007446Y009373D01*
X007452Y009368D01*
X007446Y009362D01*
X007446Y009058D01*
X007452Y009053D01*
X007446Y009048D01*
X007446Y008743D01*
X007452Y008738D01*
X007446Y008733D01*
X007446Y008428D01*
X007523Y008352D01*
X008221Y008352D01*
X008297Y008428D01*
X008297Y008733D01*
X008292Y008738D01*
X008297Y008743D01*
X008297Y009048D01*
X008292Y009053D01*
X008297Y009058D01*
X008297Y009259D01*
X008347Y009209D01*
X008347Y009094D01*
X008394Y008980D01*
X008480Y008894D01*
X008594Y008847D01*
X008715Y008847D01*
X008715Y008821D01*
X008715Y008312D01*
X008698Y008317D01*
X008580Y008317D01*
X008462Y008317D01*
X008424Y008307D01*
X008390Y008287D01*
X008362Y008259D01*
X008342Y008225D01*
X008332Y008187D01*
X008332Y007872D01*
X008580Y007872D01*
X008580Y008317D01*
X008580Y007872D01*
X008580Y007872D01*
X008580Y007871D01*
X008580Y007871D01*
X008580Y007426D01*
X008462Y007426D01*
X008424Y007437D01*
X008390Y007456D01*
X008362Y007484D01*
X008342Y007518D01*
X008332Y007557D01*
X008332Y007871D01*
X008580Y007871D01*
X008580Y007426D01*
X008698Y007426D01*
X008715Y007431D01*
X008715Y006836D01*
X008404Y006836D01*
X008328Y006760D01*
X008328Y006670D01*
X008064Y006670D01*
X007915Y006670D01*
X007475Y006230D01*
X007475Y006081D01*
X007475Y004730D01*
X007475Y004892D02*
X003327Y004892D01*
X003330Y004894D02*
X003417Y004980D01*
X003464Y005094D01*
X003464Y005216D01*
X003417Y005330D01*
X003335Y005411D01*
X003335Y008581D01*
X003335Y008730D01*
X002879Y009186D01*
X002879Y009240D01*
X002814Y009397D01*
X002694Y009517D01*
X002670Y009527D01*
X002670Y009564D01*
X002670Y009809D01*
X002740Y009809D01*
X002817Y009885D01*
X002817Y010425D01*
X002740Y010502D01*
X002239Y010502D01*
X002163Y010425D01*
X002163Y009885D01*
X002239Y009809D01*
X002310Y009809D01*
X002310Y009582D01*
X001773Y009582D01*
X001616Y009517D01*
X001496Y009397D01*
X001431Y009240D01*
X001431Y009070D01*
X001496Y008913D01*
X001616Y008793D01*
X001773Y008728D01*
X002537Y008728D01*
X002694Y008793D01*
X002728Y008828D01*
X002975Y008581D01*
X002975Y005411D01*
X002894Y005330D01*
X002847Y005216D01*
X002847Y005094D01*
X002894Y004980D01*
X002980Y004894D01*
X003094Y004847D01*
X003216Y004847D01*
X003330Y004894D01*
X003421Y004991D02*
X007475Y004991D01*
X007475Y005090D02*
X003462Y005090D01*
X003464Y005188D02*
X007475Y005188D01*
X007475Y005287D02*
X003434Y005287D01*
X003480Y005394D02*
X003394Y005480D01*
X003347Y005594D01*
X003347Y005716D01*
X003394Y005830D01*
X003475Y005911D01*
X003475Y011081D01*
X002728Y011828D01*
X002694Y011793D01*
X002537Y011728D01*
X001773Y011728D01*
X001616Y011793D01*
X001496Y011913D01*
X001431Y012070D01*
X001431Y012240D01*
X001496Y012397D01*
X001616Y012517D01*
X001773Y012582D01*
X002310Y012582D01*
X002310Y012809D01*
X002239Y012809D01*
X002163Y012885D01*
X002163Y013425D01*
X002239Y013502D01*
X002740Y013502D01*
X002817Y013425D01*
X002817Y012885D01*
X002740Y012809D01*
X002670Y012809D01*
X002670Y012564D01*
X002670Y012527D01*
X002694Y012517D01*
X002814Y012397D01*
X002879Y012240D01*
X002879Y012186D01*
X003835Y011230D01*
X003835Y011081D01*
X003835Y005911D01*
X003917Y005830D01*
X003964Y005716D01*
X003964Y005594D01*
X003917Y005480D01*
X003830Y005394D01*
X003716Y005347D01*
X003594Y005347D01*
X003480Y005394D01*
X003501Y005385D02*
X003361Y005385D01*
X003335Y005484D02*
X003392Y005484D01*
X003351Y005582D02*
X003335Y005582D01*
X003335Y005681D02*
X003347Y005681D01*
X003335Y005779D02*
X003373Y005779D01*
X003335Y005878D02*
X003442Y005878D01*
X003475Y005976D02*
X003335Y005976D01*
X003335Y006075D02*
X003475Y006075D01*
X003475Y006174D02*
X003335Y006174D01*
X003335Y006272D02*
X003475Y006272D01*
X003475Y006371D02*
X003335Y006371D01*
X003335Y006469D02*
X003475Y006469D01*
X003475Y006568D02*
X003335Y006568D01*
X003335Y006666D02*
X003475Y006666D01*
X003475Y006765D02*
X003335Y006765D01*
X003335Y006863D02*
X003475Y006863D01*
X003475Y006962D02*
X003335Y006962D01*
X003335Y007060D02*
X003475Y007060D01*
X003475Y007159D02*
X003335Y007159D01*
X003335Y007258D02*
X003475Y007258D01*
X003475Y007356D02*
X003335Y007356D01*
X003335Y007455D02*
X003475Y007455D01*
X003475Y007553D02*
X003335Y007553D01*
X003335Y007652D02*
X003475Y007652D01*
X003475Y007750D02*
X003335Y007750D01*
X003335Y007849D02*
X003475Y007849D01*
X003475Y007947D02*
X003335Y007947D01*
X003335Y008046D02*
X003475Y008046D01*
X003475Y008144D02*
X003335Y008144D01*
X003335Y008243D02*
X003475Y008243D01*
X003475Y008341D02*
X003335Y008341D01*
X003335Y008440D02*
X003475Y008440D01*
X003475Y008539D02*
X003335Y008539D01*
X003335Y008637D02*
X003475Y008637D01*
X003475Y008736D02*
X003329Y008736D01*
X003231Y008834D02*
X003475Y008834D01*
X003475Y008933D02*
X003132Y008933D01*
X003033Y009031D02*
X003475Y009031D01*
X003475Y009130D02*
X002935Y009130D01*
X002879Y009228D02*
X003475Y009228D01*
X003475Y009327D02*
X002843Y009327D01*
X002785Y009425D02*
X003475Y009425D01*
X003475Y009524D02*
X002677Y009524D01*
X002670Y009623D02*
X003475Y009623D01*
X003475Y009721D02*
X002670Y009721D01*
X002751Y009820D02*
X003475Y009820D01*
X003475Y009918D02*
X002817Y009918D01*
X002817Y010017D02*
X003475Y010017D01*
X003475Y010115D02*
X002817Y010115D01*
X002817Y010214D02*
X003475Y010214D01*
X003475Y010312D02*
X002817Y010312D01*
X002817Y010411D02*
X003475Y010411D01*
X003475Y010509D02*
X001335Y010509D01*
X001335Y010411D02*
X001494Y010411D01*
X001335Y010608D02*
X003475Y010608D01*
X003475Y010707D02*
X001335Y010707D01*
X001335Y010805D02*
X001580Y010805D01*
X001567Y010814D02*
X001624Y010773D01*
X001687Y010741D01*
X001754Y010719D01*
X001823Y010708D01*
X002107Y010708D01*
X002107Y011106D01*
X002204Y011106D01*
X002204Y010708D01*
X002487Y010708D01*
X002557Y010719D01*
X002624Y010741D01*
X002686Y010773D01*
X002743Y010814D01*
X002793Y010864D01*
X002834Y010921D01*
X002866Y010984D01*
X002888Y011050D01*
X002897Y011107D01*
X002204Y011107D01*
X002204Y011204D01*
X002107Y011204D01*
X002107Y011602D01*
X001823Y011602D01*
X001754Y011591D01*
X001687Y011569D01*
X001624Y011537D01*
X001567Y011496D01*
X001517Y011446D01*
X001476Y011389D01*
X001444Y011327D01*
X001422Y011260D01*
X001414Y011204D01*
X002106Y011204D01*
X002106Y011107D01*
X001414Y011107D01*
X001422Y011050D01*
X001444Y010984D01*
X001476Y010921D01*
X001517Y010864D01*
X001567Y010814D01*
X001489Y010904D02*
X001335Y010904D01*
X001335Y011002D02*
X001438Y011002D01*
X001414Y011101D02*
X001335Y011101D01*
X001335Y011199D02*
X002106Y011199D01*
X002204Y011204D02*
X002204Y011602D01*
X002487Y011602D01*
X002557Y011591D01*
X002624Y011569D01*
X002686Y011537D01*
X002743Y011496D01*
X002793Y011446D01*
X002834Y011389D01*
X002866Y011327D01*
X002888Y011260D01*
X002897Y011204D01*
X002204Y011204D01*
X002204Y011199D02*
X003356Y011199D01*
X003258Y011298D02*
X002875Y011298D01*
X002829Y011396D02*
X003159Y011396D01*
X003061Y011495D02*
X002744Y011495D01*
X002541Y011593D02*
X002962Y011593D01*
X002864Y011692D02*
X001335Y011692D01*
X001335Y011791D02*
X001623Y011791D01*
X001521Y011889D02*
X001335Y011889D01*
X001335Y011988D02*
X001466Y011988D01*
X001431Y012086D02*
X001335Y012086D01*
X001335Y012185D02*
X001431Y012185D01*
X001449Y012283D02*
X001335Y012283D01*
X001335Y012382D02*
X001490Y012382D01*
X001580Y012480D02*
X001335Y012480D01*
X001335Y012579D02*
X001766Y012579D01*
X001504Y012874D02*
X001335Y012874D01*
X001335Y012776D02*
X002310Y012776D01*
X002310Y012677D02*
X001335Y012677D01*
X001335Y012973D02*
X001494Y012973D01*
X001820Y013155D02*
X001155Y013155D01*
X001155Y013655D01*
X001655Y014155D01*
X002155Y014155D01*
X004655Y016655D01*
X004655Y017655D01*
X005155Y018155D01*
X004725Y018196D02*
X004206Y018196D01*
X004232Y018141D02*
X004018Y018585D01*
X003684Y018945D01*
X003258Y019191D01*
X003258Y019191D01*
X002778Y019300D01*
X002288Y019264D01*
X001830Y019084D01*
X001446Y018777D01*
X001169Y018371D01*
X001024Y017901D01*
X001024Y017409D01*
X001169Y016939D01*
X001446Y016533D01*
X001830Y016226D01*
X002288Y016046D01*
X002778Y016010D01*
X002778Y016010D01*
X003258Y016119D01*
X003684Y016365D01*
X003684Y016365D01*
X003684Y016365D01*
X004018Y016726D01*
X004232Y017169D01*
X004305Y017655D01*
X004232Y018141D01*
X004232Y018141D01*
X004238Y018097D02*
X004725Y018097D01*
X004725Y017999D02*
X004253Y017999D01*
X004268Y017900D02*
X004646Y017900D01*
X004547Y017802D02*
X004283Y017802D01*
X004298Y017703D02*
X004475Y017703D01*
X004475Y017605D02*
X004297Y017605D01*
X004283Y017506D02*
X004475Y017506D01*
X004475Y017407D02*
X004268Y017407D01*
X004253Y017309D02*
X004475Y017309D01*
X004475Y017210D02*
X004238Y017210D01*
X004232Y017169D02*
X004232Y017169D01*
X004204Y017112D02*
X004475Y017112D01*
X004475Y017013D02*
X004157Y017013D01*
X004109Y016915D02*
X004475Y016915D01*
X004475Y016816D02*
X004062Y016816D01*
X004018Y016726D02*
X004018Y016726D01*
X004011Y016718D02*
X004463Y016718D01*
X004365Y016619D02*
X003920Y016619D01*
X003828Y016521D02*
X004266Y016521D01*
X004168Y016422D02*
X003737Y016422D01*
X003612Y016324D02*
X004069Y016324D01*
X003970Y016225D02*
X003441Y016225D01*
X003270Y016126D02*
X003872Y016126D01*
X003773Y016028D02*
X002858Y016028D01*
X002536Y016028D02*
X000805Y016028D01*
X000805Y016126D02*
X002084Y016126D01*
X002288Y016046D02*
X002288Y016046D01*
X001833Y016225D02*
X000805Y016225D01*
X000805Y016324D02*
X001708Y016324D01*
X001830Y016226D02*
X001830Y016226D01*
X001584Y016422D02*
X000805Y016422D01*
X000805Y016521D02*
X001461Y016521D01*
X001446Y016533D02*
X001446Y016533D01*
X001446Y016533D01*
X001387Y016619D02*
X000805Y016619D01*
X000805Y016718D02*
X001320Y016718D01*
X001252Y016816D02*
X000805Y016816D01*
X000805Y016915D02*
X001185Y016915D01*
X001169Y016939D02*
X001169Y016939D01*
X001146Y017013D02*
X000805Y017013D01*
X000805Y017112D02*
X001115Y017112D01*
X001085Y017210D02*
X000805Y017210D01*
X000805Y017309D02*
X001054Y017309D01*
X001024Y017407D02*
X000805Y017407D01*
X000805Y017506D02*
X001024Y017506D01*
X001024Y017409D02*
X001024Y017409D01*
X001024Y017605D02*
X000805Y017605D01*
X000808Y017703D02*
X001024Y017703D01*
X001024Y017802D02*
X000813Y017802D01*
X000825Y017900D02*
X001024Y017900D01*
X001024Y017901D02*
X001024Y017901D01*
X001054Y017999D02*
X000848Y017999D01*
X000870Y018097D02*
X001084Y018097D01*
X001114Y018196D02*
X000893Y018196D01*
X000922Y018294D02*
X001145Y018294D01*
X001169Y018371D02*
X001169Y018371D01*
X001183Y018393D02*
X000970Y018393D01*
X001017Y018491D02*
X001251Y018491D01*
X001318Y018590D02*
X001065Y018590D01*
X001128Y018689D02*
X001385Y018689D01*
X001446Y018777D02*
X001446Y018777D01*
X001446Y018777D01*
X001458Y018787D02*
X001206Y018787D01*
X001285Y018886D02*
X001581Y018886D01*
X001705Y018984D02*
X001373Y018984D01*
X001497Y019083D02*
X001828Y019083D01*
X001830Y019084D02*
X001830Y019084D01*
X001792Y019280D02*
X002503Y019280D01*
X002288Y019264D02*
X002288Y019264D01*
X002078Y019181D02*
X001620Y019181D01*
X001996Y019378D02*
X018314Y019378D01*
X018258Y019191D02*
X017778Y019300D01*
X017288Y019264D01*
X016830Y019084D01*
X016446Y018777D01*
X016169Y018371D01*
X016024Y017901D01*
X016024Y017409D01*
X016169Y016939D01*
X016446Y016533D01*
X016830Y016226D01*
X017288Y016046D01*
X017778Y016010D01*
X017778Y016010D01*
X018258Y016119D01*
X018684Y016365D01*
X018684Y016365D01*
X018684Y016365D01*
X019018Y016726D01*
X019232Y017169D01*
X019305Y017655D01*
X019232Y018141D01*
X019232Y018141D01*
X019018Y018585D01*
X018684Y018945D01*
X018258Y019191D01*
X018258Y019191D01*
X018275Y019181D02*
X018690Y019181D01*
X018813Y019083D02*
X018446Y019083D01*
X018616Y018984D02*
X018937Y018984D01*
X019025Y018886D02*
X018739Y018886D01*
X018684Y018945D02*
X018684Y018945D01*
X018831Y018787D02*
X019104Y018787D01*
X019182Y018689D02*
X018922Y018689D01*
X019013Y018590D02*
X019245Y018590D01*
X019293Y018491D02*
X019063Y018491D01*
X019018Y018585D02*
X019018Y018585D01*
X019111Y018393D02*
X019340Y018393D01*
X019388Y018294D02*
X019158Y018294D01*
X019206Y018196D02*
X019417Y018196D01*
X019440Y018097D02*
X019238Y018097D01*
X019253Y017999D02*
X019462Y017999D01*
X019485Y017900D02*
X019268Y017900D01*
X019283Y017802D02*
X019497Y017802D01*
X019502Y017703D02*
X019298Y017703D01*
X019297Y017605D02*
X019505Y017605D01*
X019505Y017506D02*
X019283Y017506D01*
X019268Y017407D02*
X019505Y017407D01*
X019505Y017309D02*
X019253Y017309D01*
X019238Y017210D02*
X019505Y017210D01*
X019505Y017112D02*
X019204Y017112D01*
X019232Y017169D02*
X019232Y017169D01*
X019157Y017013D02*
X019505Y017013D01*
X019505Y016915D02*
X019109Y016915D01*
X019062Y016816D02*
X019505Y016816D01*
X019505Y016718D02*
X019011Y016718D01*
X019018Y016726D02*
X019018Y016726D01*
X018920Y016619D02*
X019505Y016619D01*
X019505Y016521D02*
X018828Y016521D01*
X018737Y016422D02*
X019505Y016422D01*
X019505Y016324D02*
X018612Y016324D01*
X018441Y016225D02*
X019505Y016225D01*
X019505Y016126D02*
X018270Y016126D01*
X018258Y016119D02*
X018258Y016119D01*
X017858Y016028D02*
X019505Y016028D01*
X019505Y015929D02*
X012464Y015929D01*
X012464Y015966D02*
X012417Y016080D01*
X012330Y016167D01*
X012216Y016214D01*
X012094Y016214D01*
X011988Y016170D01*
X011982Y016170D01*
X011982Y016260D01*
X011906Y016336D01*
X011563Y016336D01*
X010847Y017052D01*
X010847Y017103D01*
X010876Y017132D01*
X010876Y017682D01*
X010891Y017675D01*
X010994Y017675D01*
X011089Y017715D01*
X011161Y017787D01*
X011201Y017882D01*
X011201Y017985D01*
X011161Y018080D01*
X011089Y018153D01*
X010994Y018192D01*
X010891Y018192D01*
X010833Y018168D01*
X010799Y018201D01*
X010534Y018201D01*
X010278Y018201D01*
X010032Y018201D01*
X009797Y018201D01*
X009780Y018211D01*
X009742Y018221D01*
X009643Y018221D01*
X009545Y018221D01*
X009507Y018211D01*
X009472Y018191D01*
X009457Y018176D01*
X009419Y018192D01*
X009316Y018192D01*
X009221Y018153D01*
X009149Y018080D01*
X009109Y017985D01*
X009109Y017882D01*
X009149Y017787D01*
X009221Y017715D01*
X009316Y017675D01*
X009415Y017675D01*
X009415Y017629D01*
X009643Y017629D01*
X009643Y018221D01*
X009643Y017629D01*
X009643Y017629D01*
X009643Y017628D01*
X009643Y017628D01*
X009643Y017036D01*
X009545Y017036D01*
X009507Y017046D01*
X009472Y017066D01*
X009445Y017094D01*
X009425Y017128D01*
X009415Y017166D01*
X009415Y017628D01*
X009643Y017628D01*
X009643Y017036D01*
X009742Y017036D01*
X009780Y017046D01*
X009797Y017056D01*
X009975Y017056D01*
X009975Y016564D01*
X009727Y016317D01*
X009385Y016317D01*
X009309Y016240D01*
X009309Y015739D01*
X009385Y015663D01*
X009925Y015663D01*
X010002Y015739D01*
X010002Y016082D01*
X010231Y016311D01*
X010231Y016308D01*
X010231Y016159D01*
X010309Y016082D01*
X010309Y015739D01*
X010385Y015663D01*
X010925Y015663D01*
X011002Y015739D01*
X011002Y016240D01*
X010925Y016317D01*
X010591Y016317D01*
X010591Y016799D01*
X011328Y016062D01*
X011328Y015719D01*
X011382Y015666D01*
X011366Y015657D01*
X011338Y015629D01*
X011319Y015595D01*
X011308Y015557D01*
X011308Y015369D01*
X011606Y015369D01*
X011606Y015272D01*
X011308Y015272D01*
X011308Y015084D01*
X011319Y015046D01*
X011338Y015012D01*
X011366Y014984D01*
X011400Y014964D01*
X011439Y014954D01*
X011607Y014954D01*
X011607Y015272D01*
X011704Y015272D01*
X011704Y015369D01*
X012002Y015369D01*
X012002Y015557D01*
X011992Y015595D01*
X011972Y015629D01*
X011944Y015657D01*
X011928Y015666D01*
X011943Y015681D01*
X011980Y015644D01*
X012094Y015597D01*
X012216Y015597D01*
X012330Y015644D01*
X012417Y015730D01*
X012464Y015844D01*
X012464Y015966D01*
X012438Y016028D02*
X017536Y016028D01*
X017288Y016046D02*
X017288Y016046D01*
X017084Y016126D02*
X012370Y016126D01*
X012155Y015905D02*
X012070Y015990D01*
X011655Y015990D01*
X010667Y016978D01*
X010667Y017629D01*
X010876Y017605D02*
X016024Y017605D01*
X016024Y017703D02*
X011061Y017703D01*
X011167Y017802D02*
X016024Y017802D01*
X016024Y017900D02*
X011201Y017900D01*
X011195Y017999D02*
X016054Y017999D01*
X016024Y017901D02*
X016024Y017901D01*
X016084Y018097D02*
X011144Y018097D01*
X011163Y018344D02*
X011219Y018335D01*
X011219Y018731D01*
X011316Y018731D01*
X011316Y018335D01*
X011372Y018344D01*
X011439Y018366D01*
X011501Y018398D01*
X011558Y018439D01*
X011608Y018489D01*
X011649Y018546D01*
X011681Y018609D01*
X011703Y018675D01*
X011712Y018732D01*
X011316Y018732D01*
X011316Y018829D01*
X011219Y018829D01*
X011219Y019225D01*
X011163Y019216D01*
X011096Y019194D01*
X011033Y019162D01*
X010976Y019121D01*
X010926Y019071D01*
X010885Y019014D01*
X010853Y018952D01*
X010831Y018885D01*
X010823Y018829D01*
X011219Y018829D01*
X011219Y018732D01*
X010823Y018732D01*
X010831Y018675D01*
X010853Y018609D01*
X010885Y018546D01*
X010926Y018489D01*
X010976Y018439D01*
X011033Y018398D01*
X011096Y018366D01*
X011163Y018344D01*
X011219Y018393D02*
X011316Y018393D01*
X011316Y018491D02*
X011219Y018491D01*
X011219Y018590D02*
X011316Y018590D01*
X011316Y018689D02*
X011219Y018689D01*
X011219Y018787D02*
X010659Y018787D01*
X010659Y018689D02*
X010829Y018689D01*
X010863Y018590D02*
X010659Y018590D01*
X010659Y018491D02*
X010925Y018491D01*
X011043Y018393D02*
X010659Y018393D01*
X010659Y018352D02*
X010659Y019208D01*
X010583Y019284D01*
X009727Y019284D01*
X009651Y019208D01*
X009651Y018352D01*
X009727Y018276D01*
X010583Y018276D01*
X010659Y018352D01*
X010601Y018294D02*
X016145Y018294D01*
X016169Y018371D02*
X016169Y018371D01*
X016183Y018393D02*
X011492Y018393D01*
X011610Y018491D02*
X016251Y018491D01*
X016318Y018590D02*
X011672Y018590D01*
X011705Y018689D02*
X016385Y018689D01*
X016446Y018777D02*
X016446Y018777D01*
X016446Y018777D01*
X016458Y018787D02*
X011316Y018787D01*
X011316Y018829D02*
X011712Y018829D01*
X011703Y018885D01*
X011681Y018952D01*
X011649Y019014D01*
X011608Y019071D01*
X011558Y019121D01*
X011501Y019162D01*
X011439Y019194D01*
X011372Y019216D01*
X011316Y019225D01*
X011316Y018829D01*
X011316Y018886D02*
X011219Y018886D01*
X011219Y018984D02*
X011316Y018984D01*
X011316Y019083D02*
X011219Y019083D01*
X011219Y019181D02*
X011316Y019181D01*
X011464Y019181D02*
X017078Y019181D01*
X017288Y019264D02*
X017288Y019264D01*
X017503Y019280D02*
X010587Y019280D01*
X010659Y019181D02*
X011070Y019181D01*
X010938Y019083D02*
X010659Y019083D01*
X010659Y018984D02*
X010870Y018984D01*
X010832Y018886D02*
X010659Y018886D01*
X010805Y018196D02*
X016114Y018196D01*
X016024Y017506D02*
X010876Y017506D01*
X010876Y017407D02*
X016024Y017407D01*
X016024Y017409D02*
X016024Y017409D01*
X016054Y017309D02*
X010876Y017309D01*
X010876Y017210D02*
X016085Y017210D01*
X016115Y017112D02*
X010856Y017112D01*
X010886Y017013D02*
X016146Y017013D01*
X016169Y016939D02*
X016169Y016939D01*
X016185Y016915D02*
X010985Y016915D01*
X011083Y016816D02*
X016252Y016816D01*
X016320Y016718D02*
X011182Y016718D01*
X011280Y016619D02*
X016387Y016619D01*
X016446Y016533D02*
X016446Y016533D01*
X016446Y016533D01*
X016461Y016521D02*
X011379Y016521D01*
X011477Y016422D02*
X016584Y016422D01*
X016708Y016324D02*
X011919Y016324D01*
X011982Y016225D02*
X016833Y016225D01*
X016830Y016226D02*
X016830Y016226D01*
X015887Y014057D02*
X019505Y014057D01*
X019505Y014156D02*
X011280Y014156D01*
X011280Y014254D02*
X019505Y014254D01*
X019505Y014353D02*
X011212Y014353D01*
X011114Y014451D02*
X019505Y014451D01*
X019505Y014550D02*
X011015Y014550D01*
X010916Y014648D02*
X019505Y014648D01*
X019505Y014747D02*
X010835Y014747D01*
X010835Y014845D02*
X019505Y014845D01*
X019505Y014944D02*
X010835Y014944D01*
X010974Y015042D02*
X011321Y015042D01*
X011308Y015141D02*
X011002Y015141D01*
X011002Y015240D02*
X011308Y015240D01*
X011308Y015437D02*
X011002Y015437D01*
X011002Y015535D02*
X011308Y015535D01*
X011343Y015634D02*
X010939Y015634D01*
X010995Y015732D02*
X011328Y015732D01*
X011328Y015831D02*
X011002Y015831D01*
X011002Y015929D02*
X011328Y015929D01*
X011328Y016028D02*
X011002Y016028D01*
X011002Y016126D02*
X011264Y016126D01*
X011165Y016225D02*
X011002Y016225D01*
X011067Y016324D02*
X010591Y016324D01*
X010591Y016422D02*
X010968Y016422D01*
X010870Y016521D02*
X010591Y016521D01*
X010591Y016619D02*
X010771Y016619D01*
X010673Y016718D02*
X010591Y016718D01*
X010155Y016490D02*
X009655Y015990D01*
X009734Y016324D02*
X007835Y016324D01*
X007835Y016422D02*
X009833Y016422D01*
X009931Y016521D02*
X007835Y016521D01*
X007835Y016581D02*
X007835Y016730D01*
X007585Y016980D01*
X007585Y017333D01*
X007333Y017585D01*
X006977Y017585D01*
X006725Y017333D01*
X006725Y016977D01*
X006977Y016725D01*
X007331Y016725D01*
X007475Y016581D01*
X007475Y014817D01*
X007385Y014817D01*
X007309Y014740D01*
X007309Y014239D01*
X007385Y014163D01*
X007925Y014163D01*
X008002Y014239D01*
X008002Y014740D01*
X007925Y014817D01*
X007835Y014817D01*
X007835Y016581D01*
X007835Y016619D02*
X009975Y016619D01*
X009975Y016718D02*
X007835Y016718D01*
X007749Y016816D02*
X009975Y016816D01*
X009975Y016915D02*
X007650Y016915D01*
X007585Y017013D02*
X009975Y017013D01*
X009643Y017112D02*
X009643Y017112D01*
X009643Y017210D02*
X009643Y017210D01*
X009643Y017309D02*
X009643Y017309D01*
X009643Y017407D02*
X009643Y017407D01*
X009643Y017506D02*
X009643Y017506D01*
X009643Y017605D02*
X009643Y017605D01*
X009643Y017703D02*
X009643Y017703D01*
X009643Y017802D02*
X009643Y017802D01*
X009643Y017900D02*
X009643Y017900D01*
X009643Y017999D02*
X009643Y017999D01*
X009643Y018097D02*
X009643Y018097D01*
X009643Y018196D02*
X009643Y018196D01*
X009709Y018294D02*
X007605Y018294D01*
X007605Y018341D02*
X007341Y018605D01*
X007205Y018605D01*
X007205Y018205D01*
X007605Y018205D01*
X007605Y018341D01*
X007554Y018393D02*
X008819Y018393D01*
X008809Y018398D02*
X008871Y018366D01*
X008938Y018344D01*
X008994Y018335D01*
X008994Y018731D01*
X009091Y018731D01*
X009091Y018335D01*
X009148Y018344D01*
X009214Y018366D01*
X009277Y018398D01*
X009334Y018439D01*
X009384Y018489D01*
X009425Y018546D01*
X009457Y018609D01*
X009479Y018675D01*
X009488Y018732D01*
X009092Y018732D01*
X009092Y018829D01*
X009488Y018829D01*
X009479Y018885D01*
X009457Y018952D01*
X009425Y019014D01*
X009384Y019071D01*
X009334Y019121D01*
X009277Y019162D01*
X009214Y019194D01*
X009148Y019216D01*
X009091Y019225D01*
X009091Y018829D01*
X008994Y018829D01*
X008994Y019225D01*
X008938Y019216D01*
X008871Y019194D01*
X008809Y019162D01*
X008752Y019121D01*
X008702Y019071D01*
X008661Y019014D01*
X008629Y018952D01*
X008607Y018885D01*
X008598Y018829D01*
X008994Y018829D01*
X008994Y018732D01*
X008598Y018732D01*
X008607Y018675D01*
X008629Y018609D01*
X008661Y018546D01*
X008702Y018489D01*
X008752Y018439D01*
X008809Y018398D01*
X008700Y018491D02*
X007455Y018491D01*
X007357Y018590D02*
X008638Y018590D01*
X008605Y018689D02*
X003922Y018689D01*
X003831Y018787D02*
X008994Y018787D01*
X009092Y018787D02*
X009651Y018787D01*
X009651Y018689D02*
X009481Y018689D01*
X009448Y018590D02*
X009651Y018590D01*
X009651Y018491D02*
X009386Y018491D01*
X009267Y018393D02*
X009651Y018393D01*
X009480Y018196D02*
X007205Y018196D01*
X007205Y018205D02*
X007205Y018105D01*
X007205Y017705D01*
X007341Y017705D01*
X007605Y017969D01*
X007605Y018105D01*
X007205Y018105D01*
X007105Y018105D01*
X007105Y017705D01*
X006969Y017705D01*
X006705Y017969D01*
X006705Y018105D01*
X007105Y018105D01*
X007105Y018205D01*
X006705Y018205D01*
X006705Y018341D01*
X006969Y018605D01*
X007105Y018605D01*
X007105Y018205D01*
X007205Y018205D01*
X007205Y018294D02*
X007105Y018294D01*
X007105Y018196D02*
X006585Y018196D01*
X006585Y018294D02*
X006705Y018294D01*
X006757Y018393D02*
X006525Y018393D01*
X006427Y018491D02*
X006855Y018491D01*
X006954Y018590D02*
X004013Y018590D01*
X004018Y018585D02*
X004018Y018585D01*
X004063Y018491D02*
X004883Y018491D01*
X004785Y018393D02*
X004111Y018393D01*
X004158Y018294D02*
X004725Y018294D01*
X004958Y017703D02*
X005475Y017703D01*
X005475Y017605D02*
X004859Y017605D01*
X005155Y017155D02*
X005155Y016655D01*
X006405Y015405D01*
X006405Y013405D01*
X006905Y012905D01*
X008405Y012905D01*
X008580Y012730D01*
X008580Y012439D01*
X008352Y012480D02*
X006165Y012480D01*
X006165Y012382D02*
X008352Y012382D01*
X008352Y012283D02*
X006165Y012283D01*
X006165Y012185D02*
X008352Y012185D01*
X008355Y012086D02*
X006165Y012086D01*
X006165Y011988D02*
X009660Y011988D01*
X009660Y011889D02*
X008290Y011889D01*
X008297Y011791D02*
X009660Y011791D01*
X009660Y011692D02*
X008297Y011692D01*
X008297Y011593D02*
X009660Y011593D01*
X009660Y011495D02*
X008297Y011495D01*
X008297Y011396D02*
X009660Y011396D01*
X009660Y011298D02*
X008297Y011298D01*
X008312Y010920D02*
X009660Y010920D01*
X009660Y010545D01*
X009660Y010396D01*
X009901Y010155D01*
X009463Y009718D01*
X009417Y009830D01*
X009330Y009917D01*
X009216Y009964D01*
X009101Y009964D01*
X009045Y010020D01*
X008297Y010020D01*
X008297Y010307D01*
X008292Y010313D01*
X008297Y010318D01*
X008297Y010612D01*
X008307Y010629D01*
X008317Y010667D01*
X008317Y010785D01*
X008317Y010903D01*
X008312Y010920D01*
X008317Y010904D02*
X009660Y010904D01*
X009660Y010805D02*
X008317Y010805D01*
X008317Y010785D02*
X007872Y010785D01*
X007872Y010785D01*
X008317Y010785D01*
X008317Y010707D02*
X009660Y010707D01*
X009660Y010608D02*
X008297Y010608D01*
X008297Y010509D02*
X009660Y010509D01*
X009660Y010411D02*
X008297Y010411D01*
X008292Y010312D02*
X009743Y010312D01*
X009842Y010214D02*
X008297Y010214D01*
X008297Y010115D02*
X009861Y010115D01*
X009762Y010017D02*
X009048Y010017D01*
X008970Y009840D02*
X009155Y009655D01*
X008970Y009840D02*
X007872Y009840D01*
X007872Y009525D02*
X008285Y009525D01*
X008655Y009155D01*
X008373Y009031D02*
X008297Y009031D01*
X008297Y008933D02*
X008441Y008933D01*
X008297Y008834D02*
X008715Y008834D01*
X008715Y008736D02*
X008294Y008736D01*
X008297Y008637D02*
X008715Y008637D01*
X008715Y008539D02*
X008297Y008539D01*
X008297Y008440D02*
X008715Y008440D01*
X008715Y008341D02*
X006165Y008341D01*
X006165Y008243D02*
X008353Y008243D01*
X008332Y008144D02*
X006165Y008144D01*
X006165Y008046D02*
X008332Y008046D01*
X008332Y007947D02*
X006165Y007947D01*
X006165Y007849D02*
X008332Y007849D01*
X008332Y007750D02*
X006165Y007750D01*
X006165Y007652D02*
X008332Y007652D01*
X008333Y007553D02*
X006165Y007553D01*
X006165Y007455D02*
X008393Y007455D01*
X008580Y007455D02*
X008580Y007455D01*
X008580Y007553D02*
X008580Y007553D01*
X008580Y007652D02*
X008580Y007652D01*
X008580Y007750D02*
X008580Y007750D01*
X008580Y007849D02*
X008580Y007849D01*
X008580Y007947D02*
X008580Y007947D01*
X008580Y008046D02*
X008580Y008046D01*
X008580Y008144D02*
X008580Y008144D01*
X008580Y008243D02*
X008580Y008243D01*
X008895Y007872D02*
X008895Y006730D01*
X008655Y006490D01*
X007990Y006490D01*
X007655Y006155D01*
X007655Y004655D01*
X005780Y002780D01*
X005780Y001405D01*
X006030Y001155D01*
X006655Y001155D01*
X006655Y001820D01*
X006309Y001838D02*
X005960Y001838D01*
X005960Y001936D02*
X006309Y001936D01*
X006309Y002035D02*
X005960Y002035D01*
X005960Y002133D02*
X006371Y002133D01*
X006316Y002232D02*
X005960Y002232D01*
X005960Y002330D02*
X006309Y002330D01*
X006309Y002429D02*
X005960Y002429D01*
X005960Y002527D02*
X006309Y002527D01*
X006309Y002626D02*
X005960Y002626D01*
X005979Y002725D02*
X006309Y002725D01*
X006176Y002922D02*
X007667Y002922D01*
X007766Y003020D02*
X006275Y003020D01*
X006373Y003119D02*
X007864Y003119D01*
X007963Y003217D02*
X006472Y003217D01*
X006570Y003316D02*
X008061Y003316D01*
X008155Y003155D02*
X007655Y002655D01*
X007655Y002155D01*
X007320Y002490D01*
X006655Y002490D01*
X007002Y002725D02*
X007324Y002725D01*
X007436Y002823D02*
X006078Y002823D01*
X005766Y003020D02*
X004250Y003020D01*
X004265Y002922D02*
X005667Y002922D01*
X005600Y002823D02*
X004280Y002823D01*
X004295Y002725D02*
X005600Y002725D01*
X005600Y002626D02*
X004301Y002626D01*
X004286Y002527D02*
X005600Y002527D01*
X005600Y002429D02*
X004271Y002429D01*
X004256Y002330D02*
X005600Y002330D01*
X005600Y002232D02*
X004241Y002232D01*
X004232Y002169D02*
X004232Y002169D01*
X004215Y002133D02*
X005600Y002133D01*
X005600Y002035D02*
X004167Y002035D01*
X004120Y001936D02*
X005600Y001936D01*
X005600Y001838D02*
X004072Y001838D01*
X004025Y001739D02*
X005600Y001739D01*
X005600Y001641D02*
X003939Y001641D01*
X004018Y001726D02*
X004018Y001726D01*
X003848Y001542D02*
X005600Y001542D01*
X005600Y001443D02*
X003757Y001443D01*
X003684Y001365D02*
X003684Y001365D01*
X003649Y001345D02*
X005600Y001345D01*
X005684Y001246D02*
X003478Y001246D01*
X003308Y001148D02*
X005783Y001148D01*
X005881Y001049D02*
X002952Y001049D01*
X002281Y001049D02*
X001753Y001049D01*
X001597Y001148D02*
X002030Y001148D01*
X001957Y000951D02*
X018353Y000951D01*
X018258Y001119D02*
X018684Y001365D01*
X019018Y001726D01*
X019232Y002169D01*
X019305Y002655D01*
X019232Y003141D01*
X019018Y003585D01*
X018684Y003945D01*
X018684Y003945D01*
X018258Y004191D01*
X018258Y004191D01*
X017778Y004300D01*
X017288Y004264D01*
X016830Y004084D01*
X016446Y003777D01*
X016169Y003371D01*
X016024Y002901D01*
X016024Y002409D01*
X016169Y001939D01*
X016446Y001533D01*
X016830Y001226D01*
X017288Y001046D01*
X017778Y001010D01*
X017778Y001010D01*
X018258Y001119D01*
X018258Y001119D01*
X018308Y001148D02*
X018714Y001148D01*
X018837Y001246D02*
X018478Y001246D01*
X018649Y001345D02*
X018961Y001345D01*
X019040Y001443D02*
X018757Y001443D01*
X018684Y001365D02*
X018684Y001365D01*
X018848Y001542D02*
X019119Y001542D01*
X019197Y001641D02*
X018939Y001641D01*
X019018Y001726D02*
X019018Y001726D01*
X019025Y001739D02*
X019254Y001739D01*
X019302Y001838D02*
X019072Y001838D01*
X019120Y001936D02*
X019349Y001936D01*
X019397Y002035D02*
X019167Y002035D01*
X019215Y002133D02*
X019422Y002133D01*
X019444Y002232D02*
X019241Y002232D01*
X019232Y002169D02*
X019232Y002169D01*
X019256Y002330D02*
X019467Y002330D01*
X019489Y002429D02*
X019271Y002429D01*
X019286Y002527D02*
X019498Y002527D01*
X019504Y002626D02*
X019301Y002626D01*
X019295Y002725D02*
X019505Y002725D01*
X019505Y002823D02*
X019280Y002823D01*
X019265Y002922D02*
X019505Y002922D01*
X019505Y003020D02*
X019250Y003020D01*
X019235Y003119D02*
X019505Y003119D01*
X019505Y003217D02*
X019195Y003217D01*
X019148Y003316D02*
X019505Y003316D01*
X019505Y003414D02*
X019100Y003414D01*
X019053Y003513D02*
X019505Y003513D01*
X019505Y003611D02*
X018993Y003611D01*
X019018Y003585D02*
X019018Y003585D01*
X018902Y003710D02*
X019505Y003710D01*
X019505Y003809D02*
X018811Y003809D01*
X018719Y003907D02*
X019505Y003907D01*
X019505Y004006D02*
X018579Y004006D01*
X018408Y004104D02*
X019505Y004104D01*
X019505Y004203D02*
X018207Y004203D01*
X017778Y004300D02*
X017778Y004300D01*
X017288Y004264D02*
X017288Y004264D01*
X017132Y004203D02*
X009705Y004203D01*
X009705Y004301D02*
X019505Y004301D01*
X019505Y004400D02*
X009705Y004400D01*
X009705Y004498D02*
X019505Y004498D01*
X019505Y004597D02*
X009705Y004597D01*
X009705Y004695D02*
X019505Y004695D01*
X019505Y004794D02*
X009705Y004794D01*
X009705Y004892D02*
X009983Y004892D01*
X009889Y004991D02*
X009705Y004991D01*
X009705Y005090D02*
X009848Y005090D01*
X009847Y005188D02*
X009705Y005188D01*
X009705Y005287D02*
X009769Y005287D01*
X009840Y005470D02*
X010155Y005155D01*
X010434Y005287D02*
X019505Y005287D01*
X019505Y005385D02*
X010809Y005385D01*
X010918Y005484D02*
X019505Y005484D01*
X019505Y005582D02*
X010959Y005582D01*
X010964Y005681D02*
X019505Y005681D01*
X019505Y005779D02*
X010937Y005779D01*
X010868Y005878D02*
X019505Y005878D01*
X019505Y005976D02*
X016896Y005976D01*
X016995Y006075D02*
X019505Y006075D01*
X019505Y006174D02*
X017093Y006174D01*
X017192Y006272D02*
X019505Y006272D01*
X019505Y006371D02*
X017290Y006371D01*
X017389Y006469D02*
X019505Y006469D01*
X019505Y006568D02*
X017488Y006568D01*
X017586Y006666D02*
X019505Y006666D01*
X019505Y006765D02*
X017685Y006765D01*
X017471Y007060D02*
X016815Y007060D01*
X016914Y007159D02*
X017494Y007159D01*
X017494Y007258D02*
X017012Y007258D01*
X017111Y007356D02*
X017494Y007356D01*
X017523Y007455D02*
X017209Y007455D01*
X017308Y007553D02*
X017640Y007553D01*
X017640Y007652D02*
X017335Y007652D01*
X017335Y007750D02*
X017640Y007750D01*
X017561Y007849D02*
X017335Y007849D01*
X017335Y007947D02*
X017482Y007947D01*
X017441Y008046D02*
X017335Y008046D01*
X017335Y008144D02*
X017431Y008144D01*
X017433Y008243D02*
X017335Y008243D01*
X017335Y008341D02*
X017473Y008341D01*
X017540Y008440D02*
X017335Y008440D01*
X017335Y008539D02*
X017669Y008539D01*
X017754Y008719D02*
X017823Y008708D01*
X018107Y008708D01*
X018107Y009106D01*
X018204Y009106D01*
X018204Y008708D01*
X018487Y008708D01*
X018557Y008719D01*
X018624Y008741D01*
X018686Y008773D01*
X018743Y008814D01*
X018793Y008864D01*
X018834Y008921D01*
X018866Y008984D01*
X018888Y009050D01*
X018897Y009107D01*
X018204Y009107D01*
X018204Y009204D01*
X018107Y009204D01*
X018107Y009602D01*
X017823Y009602D01*
X017754Y009591D01*
X017687Y009569D01*
X017624Y009537D01*
X017567Y009496D01*
X017517Y009446D01*
X017476Y009389D01*
X017444Y009327D01*
X017335Y009327D01*
X017335Y009228D02*
X017417Y009228D01*
X017414Y009204D02*
X018106Y009204D01*
X018106Y009107D01*
X017414Y009107D01*
X017422Y009050D01*
X017444Y008984D01*
X017476Y008921D01*
X017517Y008864D01*
X017567Y008814D01*
X017624Y008773D01*
X017687Y008741D01*
X017754Y008719D01*
X017703Y008736D02*
X017335Y008736D01*
X017335Y008834D02*
X017547Y008834D01*
X017470Y008933D02*
X017335Y008933D01*
X017335Y009031D02*
X017429Y009031D01*
X017335Y009130D02*
X018106Y009130D01*
X018204Y009130D02*
X018975Y009130D01*
X018975Y009228D02*
X018893Y009228D01*
X018897Y009204D02*
X018888Y009260D01*
X018866Y009327D01*
X018975Y009327D01*
X018975Y009425D02*
X018808Y009425D01*
X018793Y009446D02*
X018743Y009496D01*
X018686Y009537D01*
X018624Y009569D01*
X018557Y009591D01*
X018487Y009602D01*
X018204Y009602D01*
X018204Y009204D01*
X018897Y009204D01*
X018866Y009327D02*
X018834Y009389D01*
X018793Y009446D01*
X018704Y009524D02*
X018975Y009524D01*
X018975Y009623D02*
X017542Y009623D01*
X017606Y009524D02*
X017444Y009524D01*
X017502Y009425D02*
X017345Y009425D01*
X017444Y009327D02*
X017422Y009260D01*
X017414Y009204D01*
X017155Y009490D02*
X017820Y010155D01*
X017820Y010820D01*
X018155Y011155D01*
X018000Y010707D02*
X019505Y010707D01*
X019505Y010805D02*
X018706Y010805D01*
X018804Y010904D02*
X019505Y010904D01*
X019505Y011002D02*
X018851Y011002D01*
X018879Y011101D02*
X019505Y011101D01*
X019505Y011199D02*
X018879Y011199D01*
X018855Y011298D02*
X019505Y011298D01*
X019505Y011396D02*
X018814Y011396D01*
X018716Y011495D02*
X019505Y011495D01*
X019505Y011593D02*
X016335Y011593D01*
X016335Y011495D02*
X017594Y011495D01*
X017496Y011396D02*
X016335Y011396D01*
X016335Y011298D02*
X017455Y011298D01*
X017431Y011199D02*
X016335Y011199D01*
X016335Y011101D02*
X017431Y011101D01*
X017460Y011002D02*
X016335Y011002D01*
X016335Y010904D02*
X017506Y010904D01*
X017605Y010805D02*
X016335Y010805D01*
X016335Y010707D02*
X017640Y010707D01*
X017640Y010608D02*
X016335Y010608D01*
X016335Y010509D02*
X017640Y010509D01*
X017494Y010411D02*
X016335Y010411D01*
X016317Y010312D02*
X017494Y010312D01*
X017494Y010214D02*
X016218Y010214D01*
X016120Y010115D02*
X017494Y010115D01*
X017428Y010017D02*
X016021Y010017D01*
X016043Y009918D02*
X017329Y009918D01*
X017231Y009820D02*
X016085Y009820D01*
X016115Y009721D02*
X017132Y009721D01*
X017033Y009623D02*
X016115Y009623D01*
X016099Y009524D02*
X016975Y009524D01*
X016975Y009425D02*
X016058Y009425D01*
X015977Y009327D02*
X016975Y009327D01*
X016975Y009228D02*
X015827Y009228D01*
X015768Y009123D02*
X015704Y009133D01*
X015704Y008704D01*
X015607Y008704D01*
X015607Y009133D01*
X015543Y009123D01*
X015471Y009100D01*
X015404Y009066D01*
X015342Y009021D01*
X015289Y008968D01*
X015245Y008907D01*
X015210Y008839D01*
X015187Y008768D01*
X015177Y008704D01*
X015606Y008704D01*
X015606Y008607D01*
X015177Y008607D01*
X015187Y008543D01*
X015210Y008471D01*
X015245Y008404D01*
X015289Y008342D01*
X015342Y008289D01*
X015404Y008245D01*
X015471Y008210D01*
X015543Y008187D01*
X015607Y008177D01*
X015607Y008606D01*
X015704Y008606D01*
X015704Y008177D01*
X015768Y008187D01*
X015839Y008210D01*
X015907Y008245D01*
X015968Y008289D01*
X016021Y008342D01*
X016066Y008404D01*
X016100Y008471D01*
X016123Y008543D01*
X016133Y008607D01*
X015704Y008607D01*
X015704Y008704D01*
X016133Y008704D01*
X016123Y008768D01*
X016100Y008839D01*
X016066Y008907D01*
X016021Y008968D01*
X015968Y009021D01*
X015907Y009066D01*
X015839Y009100D01*
X015768Y009123D01*
X015726Y009130D02*
X016975Y009130D01*
X016975Y009031D02*
X015954Y009031D01*
X016047Y008933D02*
X016975Y008933D01*
X016975Y008834D02*
X016102Y008834D01*
X016128Y008736D02*
X016975Y008736D01*
X016975Y008637D02*
X015704Y008637D01*
X015606Y008637D02*
X014538Y008637D01*
X014538Y008704D02*
X014856Y008704D01*
X014856Y008872D01*
X014846Y008910D01*
X014826Y008944D01*
X014798Y008972D01*
X014764Y008992D01*
X014726Y009002D01*
X014538Y009002D01*
X014538Y008704D01*
X014538Y008736D02*
X014441Y008736D01*
X014441Y008834D02*
X014538Y008834D01*
X014538Y008933D02*
X014441Y008933D01*
X014441Y008539D02*
X014538Y008539D01*
X014538Y008440D02*
X014441Y008440D01*
X014441Y008341D02*
X014538Y008341D01*
X014802Y008341D02*
X015290Y008341D01*
X015226Y008440D02*
X014856Y008440D01*
X014856Y008539D02*
X015188Y008539D01*
X015182Y008736D02*
X014856Y008736D01*
X014856Y008834D02*
X015209Y008834D01*
X015264Y008933D02*
X014833Y008933D01*
X015356Y009031D02*
X012879Y009031D01*
X012884Y008933D02*
X013501Y008933D01*
X013474Y008834D02*
X012884Y008834D01*
X012864Y009130D02*
X015584Y009130D01*
X015607Y009130D02*
X015704Y009130D01*
X015704Y009031D02*
X015607Y009031D01*
X015607Y008933D02*
X015704Y008933D01*
X015704Y008834D02*
X015607Y008834D01*
X015607Y008736D02*
X015704Y008736D01*
X015704Y008539D02*
X015607Y008539D01*
X015607Y008440D02*
X015704Y008440D01*
X015704Y008341D02*
X015607Y008341D01*
X015607Y008243D02*
X015704Y008243D01*
X015903Y008243D02*
X016975Y008243D01*
X016975Y008341D02*
X016020Y008341D01*
X016084Y008440D02*
X016975Y008440D01*
X016975Y008539D02*
X016122Y008539D01*
X015914Y008046D02*
X016975Y008046D01*
X016975Y008144D02*
X011958Y008144D01*
X011958Y008046D02*
X015397Y008046D01*
X015297Y007947D02*
X011958Y007947D01*
X011958Y007849D02*
X015237Y007849D01*
X015197Y007750D02*
X011958Y007750D01*
X011958Y007652D02*
X015195Y007652D01*
X015199Y007553D02*
X011958Y007553D01*
X011890Y007455D02*
X015240Y007455D01*
X015304Y007356D02*
X011209Y007356D01*
X011155Y007155D02*
X016655Y007155D01*
X017155Y007655D01*
X017155Y009490D01*
X017641Y009721D02*
X018975Y009721D01*
X018975Y009820D02*
X018751Y009820D01*
X018740Y009809D02*
X018817Y009885D01*
X018817Y009975D01*
X018831Y009975D01*
X018975Y009831D01*
X018975Y007411D01*
X018899Y007335D01*
X018817Y007335D01*
X018817Y007425D01*
X018740Y007502D01*
X018239Y007502D01*
X018163Y007425D01*
X018163Y006885D01*
X018239Y006809D01*
X018740Y006809D01*
X018817Y006885D01*
X018817Y006975D01*
X018899Y006975D01*
X018980Y006894D01*
X019094Y006847D01*
X019216Y006847D01*
X019330Y006894D01*
X019417Y006980D01*
X019464Y007094D01*
X019464Y007216D01*
X019417Y007330D01*
X019335Y007411D01*
X019335Y009831D01*
X019335Y009980D01*
X018980Y010335D01*
X018831Y010335D01*
X018817Y010335D01*
X018817Y010425D01*
X018740Y010502D01*
X018239Y010502D01*
X018163Y010425D01*
X018163Y009885D01*
X018239Y009809D01*
X018740Y009809D01*
X018817Y009918D02*
X018887Y009918D01*
X018905Y010155D02*
X019155Y009905D01*
X019155Y007155D01*
X018490Y007155D01*
X018817Y006962D02*
X018912Y006962D01*
X018795Y006863D02*
X019054Y006863D01*
X019257Y006863D02*
X019505Y006863D01*
X019505Y006962D02*
X019398Y006962D01*
X019450Y007060D02*
X019505Y007060D01*
X019505Y007159D02*
X019464Y007159D01*
X019446Y007258D02*
X019505Y007258D01*
X019505Y007356D02*
X019390Y007356D01*
X019335Y007455D02*
X019505Y007455D01*
X019505Y007553D02*
X019335Y007553D01*
X019335Y007652D02*
X019505Y007652D01*
X019505Y007750D02*
X019335Y007750D01*
X019335Y007849D02*
X019505Y007849D01*
X019505Y007947D02*
X019335Y007947D01*
X019335Y008046D02*
X019505Y008046D01*
X019505Y008144D02*
X019335Y008144D01*
X019335Y008243D02*
X019505Y008243D01*
X019505Y008341D02*
X019335Y008341D01*
X019335Y008440D02*
X019505Y008440D01*
X019505Y008539D02*
X019335Y008539D01*
X019335Y008637D02*
X019505Y008637D01*
X019505Y008736D02*
X019335Y008736D01*
X019335Y008834D02*
X019505Y008834D01*
X019505Y008933D02*
X019335Y008933D01*
X019335Y009031D02*
X019505Y009031D01*
X019505Y009130D02*
X019335Y009130D01*
X019335Y009228D02*
X019505Y009228D01*
X019505Y009327D02*
X019335Y009327D01*
X019335Y009425D02*
X019505Y009425D01*
X019505Y009524D02*
X019335Y009524D01*
X019335Y009623D02*
X019505Y009623D01*
X019505Y009721D02*
X019335Y009721D01*
X019335Y009820D02*
X019505Y009820D01*
X019505Y009918D02*
X019335Y009918D01*
X019298Y010017D02*
X019505Y010017D01*
X019505Y010115D02*
X019199Y010115D01*
X019101Y010214D02*
X019505Y010214D01*
X019505Y010312D02*
X019002Y010312D01*
X018905Y010155D02*
X018490Y010155D01*
X018817Y010411D02*
X019505Y010411D01*
X019505Y010509D02*
X018000Y010509D01*
X018000Y010608D02*
X019505Y010608D01*
X019505Y011692D02*
X016335Y011692D01*
X016335Y011791D02*
X017600Y011791D01*
X017624Y011773D02*
X017567Y011814D01*
X017517Y011864D01*
X017476Y011921D01*
X017444Y011984D01*
X017422Y012050D01*
X017414Y012107D01*
X018106Y012107D01*
X018106Y012204D01*
X017414Y012204D01*
X017422Y012260D01*
X017444Y012327D01*
X017476Y012389D01*
X017517Y012446D01*
X017567Y012496D01*
X017624Y012537D01*
X017687Y012569D01*
X017754Y012591D01*
X017823Y012602D01*
X018107Y012602D01*
X018107Y012204D01*
X018204Y012204D01*
X018204Y012602D01*
X018487Y012602D01*
X018557Y012591D01*
X018624Y012569D01*
X018686Y012537D01*
X018743Y012496D01*
X018793Y012446D01*
X018834Y012389D01*
X018866Y012327D01*
X018888Y012260D01*
X018897Y012204D01*
X018204Y012204D01*
X018204Y012107D01*
X018897Y012107D01*
X018888Y012050D01*
X018866Y011984D01*
X018834Y011921D01*
X018793Y011864D01*
X018743Y011814D01*
X018686Y011773D01*
X018624Y011741D01*
X018557Y011719D01*
X018487Y011708D01*
X018204Y011708D01*
X018204Y012106D01*
X018107Y012106D01*
X018107Y011708D01*
X017823Y011708D01*
X017754Y011719D01*
X017687Y011741D01*
X017624Y011773D01*
X017499Y011889D02*
X016335Y011889D01*
X016335Y011988D02*
X017443Y011988D01*
X017417Y012086D02*
X016335Y012086D01*
X016335Y012185D02*
X018106Y012185D01*
X018204Y012185D02*
X019505Y012185D01*
X019505Y012283D02*
X018880Y012283D01*
X018838Y012382D02*
X019505Y012382D01*
X019505Y012480D02*
X018759Y012480D01*
X018594Y012579D02*
X019505Y012579D01*
X019505Y012677D02*
X016115Y012677D01*
X016115Y012579D02*
X017716Y012579D01*
X017552Y012480D02*
X016084Y012480D01*
X016183Y012382D02*
X017472Y012382D01*
X017430Y012283D02*
X016281Y012283D01*
X016155Y012155D02*
X015655Y012655D01*
X015988Y012973D02*
X019505Y012973D01*
X019505Y012874D02*
X016062Y012874D01*
X016103Y012776D02*
X019505Y012776D01*
X019505Y013072D02*
X015852Y013072D01*
X015919Y013269D02*
X019505Y013269D01*
X019505Y013367D02*
X016018Y013367D01*
X016115Y013663D02*
X019505Y013663D01*
X019505Y013761D02*
X016109Y013761D01*
X016068Y013860D02*
X019505Y013860D01*
X019505Y013958D02*
X016002Y013958D01*
X015655Y013655D02*
X014905Y012905D01*
X014905Y010155D01*
X014655Y009905D01*
X013780Y009905D01*
X013405Y010280D01*
X013405Y010405D01*
X013025Y010785D01*
X012439Y010785D01*
X012439Y011100D02*
X013376Y011100D01*
X013820Y010655D01*
X014144Y010382D02*
X014153Y010366D01*
X014181Y010338D01*
X014215Y010319D01*
X014253Y010308D01*
X014441Y010308D01*
X014441Y010606D01*
X014538Y010606D01*
X014538Y010308D01*
X014725Y010308D01*
X014725Y010230D01*
X014581Y010085D01*
X013855Y010085D01*
X013611Y010328D01*
X014091Y010328D01*
X014144Y010382D01*
X014238Y010312D02*
X013627Y010312D01*
X013726Y010214D02*
X014709Y010214D01*
X014611Y010115D02*
X013824Y010115D01*
X013655Y009655D02*
X014905Y009655D01*
X015405Y010155D01*
X015905Y010155D01*
X016155Y010405D01*
X016155Y012155D01*
X015970Y012086D02*
X015816Y012086D01*
X015871Y012185D02*
X015085Y012185D01*
X015085Y012283D02*
X015376Y012283D01*
X015278Y012382D02*
X015085Y012382D01*
X015085Y012480D02*
X015230Y012480D01*
X015195Y012579D02*
X015085Y012579D01*
X015085Y012677D02*
X015195Y012677D01*
X015207Y012776D02*
X015085Y012776D01*
X015129Y012874D02*
X015248Y012874D01*
X015228Y012973D02*
X015323Y012973D01*
X015326Y013072D02*
X015459Y013072D01*
X015425Y013170D02*
X019505Y013170D01*
X019505Y012086D02*
X018893Y012086D01*
X018867Y011988D02*
X019505Y011988D01*
X019505Y011889D02*
X018811Y011889D01*
X018710Y011791D02*
X019505Y011791D01*
X018204Y011791D02*
X018107Y011791D01*
X018107Y011889D02*
X018204Y011889D01*
X018204Y011988D02*
X018107Y011988D01*
X018107Y012086D02*
X018204Y012086D01*
X018204Y012283D02*
X018107Y012283D01*
X018107Y012382D02*
X018204Y012382D01*
X018204Y012480D02*
X018107Y012480D01*
X018107Y012579D02*
X018204Y012579D01*
X018147Y010411D02*
X018163Y010411D01*
X018163Y010312D02*
X018147Y010312D01*
X018147Y010214D02*
X018163Y010214D01*
X018163Y010115D02*
X018147Y010115D01*
X018147Y010017D02*
X018163Y010017D01*
X018163Y009918D02*
X018147Y009918D01*
X018082Y009820D02*
X018228Y009820D01*
X018204Y009524D02*
X018107Y009524D01*
X018107Y009425D02*
X018204Y009425D01*
X018204Y009327D02*
X018107Y009327D01*
X018107Y009228D02*
X018204Y009228D01*
X018204Y009031D02*
X018107Y009031D01*
X018107Y008933D02*
X018204Y008933D01*
X018204Y008834D02*
X018107Y008834D01*
X018107Y008736D02*
X018204Y008736D01*
X018607Y008736D02*
X018975Y008736D01*
X018975Y008834D02*
X018763Y008834D01*
X018840Y008933D02*
X018975Y008933D01*
X018975Y009031D02*
X018882Y009031D01*
X018975Y008637D02*
X017335Y008637D01*
X016975Y007947D02*
X016013Y007947D01*
X016073Y007849D02*
X016975Y007849D01*
X016975Y007750D02*
X016114Y007750D01*
X016115Y007652D02*
X016897Y007652D01*
X016799Y007553D02*
X016111Y007553D01*
X016070Y007455D02*
X016700Y007455D01*
X016602Y007356D02*
X016007Y007356D01*
X015999Y006962D02*
X017373Y006962D01*
X017274Y006863D02*
X016067Y006863D01*
X016108Y006765D02*
X017176Y006765D01*
X017077Y006666D02*
X016115Y006666D01*
X016115Y006568D02*
X016979Y006568D01*
X016880Y006469D02*
X016076Y006469D01*
X016021Y006371D02*
X016781Y006371D01*
X016820Y006155D02*
X017820Y007155D01*
X017820Y007820D01*
X018155Y008155D01*
X018590Y007750D02*
X018975Y007750D01*
X018975Y007652D02*
X018000Y007652D01*
X018000Y007553D02*
X018975Y007553D01*
X018975Y007455D02*
X018787Y007455D01*
X018817Y007356D02*
X018920Y007356D01*
X018975Y007849D02*
X018749Y007849D01*
X018828Y007947D02*
X018975Y007947D01*
X018975Y008046D02*
X018869Y008046D01*
X018879Y008144D02*
X018975Y008144D01*
X018975Y008243D02*
X018878Y008243D01*
X018837Y008341D02*
X018975Y008341D01*
X018975Y008440D02*
X018771Y008440D01*
X018642Y008539D02*
X018975Y008539D01*
X018192Y007455D02*
X018118Y007455D01*
X018147Y007356D02*
X018163Y007356D01*
X018163Y007258D02*
X018147Y007258D01*
X018147Y007159D02*
X018163Y007159D01*
X018163Y007060D02*
X018147Y007060D01*
X018147Y006962D02*
X018163Y006962D01*
X018184Y006863D02*
X018126Y006863D01*
X016820Y006155D02*
X011655Y006155D01*
X010470Y007340D01*
X010470Y007872D01*
X010155Y007872D02*
X010155Y006155D01*
X010655Y005655D01*
X010501Y005385D02*
X010361Y005385D01*
X010392Y005484D02*
X010081Y005484D01*
X010020Y005582D02*
X010351Y005582D01*
X010347Y005681D02*
X010020Y005681D01*
X010020Y005779D02*
X010276Y005779D01*
X010178Y005878D02*
X010020Y005878D01*
X010020Y005976D02*
X010079Y005976D01*
X010335Y006272D02*
X011284Y006272D01*
X011382Y006174D02*
X010391Y006174D01*
X010490Y006075D02*
X011481Y006075D01*
X011579Y005976D02*
X010588Y005976D01*
X010335Y006371D02*
X011185Y006371D01*
X011086Y006469D02*
X010335Y006469D01*
X010335Y006568D02*
X010988Y006568D01*
X010889Y006666D02*
X010335Y006666D01*
X010335Y006765D02*
X010791Y006765D01*
X010692Y006863D02*
X010335Y006863D01*
X010335Y006962D02*
X010594Y006962D01*
X010495Y007060D02*
X010335Y007060D01*
X010335Y007159D02*
X010397Y007159D01*
X010785Y007525D02*
X011155Y007155D01*
X010785Y007525D02*
X010785Y007872D01*
X011517Y008539D02*
X009075Y008539D01*
X009075Y008637D02*
X011419Y008637D01*
X011320Y008736D02*
X009075Y008736D01*
X009089Y008834D02*
X011221Y008834D01*
X011464Y009101D02*
X011464Y009216D01*
X011417Y009330D01*
X011330Y009417D01*
X011216Y009464D01*
X011101Y009464D01*
X010410Y010155D01*
X011101Y010847D01*
X011216Y010847D01*
X011330Y010894D01*
X011417Y010980D01*
X011464Y011094D01*
X011464Y011209D01*
X011595Y011340D01*
X011595Y011489D01*
X011595Y011550D01*
X011998Y011550D01*
X011993Y011533D01*
X011993Y011415D01*
X012438Y011415D01*
X012438Y011415D01*
X011993Y011415D01*
X011993Y011297D01*
X012004Y011259D01*
X012013Y011242D01*
X012013Y010948D01*
X012019Y010942D01*
X012013Y010937D01*
X012013Y010633D01*
X012019Y010628D01*
X012013Y010622D01*
X012013Y010318D01*
X012019Y010313D01*
X012013Y010307D01*
X012013Y010003D01*
X012019Y009998D01*
X012013Y009992D01*
X012013Y009688D01*
X012019Y009683D01*
X012013Y009677D01*
X012013Y009373D01*
X012019Y009368D01*
X012013Y009362D01*
X012013Y009069D01*
X012004Y009052D01*
X011993Y009013D01*
X011993Y008895D01*
X011993Y008777D01*
X011998Y008760D01*
X011804Y008760D01*
X011464Y009101D01*
X011464Y009130D02*
X012013Y009130D01*
X012013Y009228D02*
X011459Y009228D01*
X011418Y009327D02*
X012013Y009327D01*
X012013Y009425D02*
X011308Y009425D01*
X011041Y009524D02*
X012013Y009524D01*
X012013Y009623D02*
X010942Y009623D01*
X010844Y009721D02*
X012013Y009721D01*
X012013Y009820D02*
X010745Y009820D01*
X010647Y009918D02*
X012013Y009918D01*
X012013Y010017D02*
X010548Y010017D01*
X010449Y010115D02*
X012013Y010115D01*
X012013Y010214D02*
X010468Y010214D01*
X010567Y010312D02*
X012018Y010312D01*
X012013Y010411D02*
X010665Y010411D01*
X010764Y010509D02*
X012013Y010509D01*
X012013Y010608D02*
X010863Y010608D01*
X010961Y010707D02*
X012013Y010707D01*
X012013Y010805D02*
X011060Y010805D01*
X011340Y010904D02*
X012013Y010904D01*
X012013Y011002D02*
X011426Y011002D01*
X011464Y011101D02*
X012013Y011101D01*
X012013Y011199D02*
X011464Y011199D01*
X011552Y011298D02*
X011993Y011298D01*
X011993Y011396D02*
X011595Y011396D01*
X011595Y011495D02*
X011993Y011495D01*
X012439Y011415D02*
X012884Y011415D01*
X012884Y011533D01*
X012879Y011550D01*
X013474Y011550D01*
X013474Y011404D01*
X013550Y011328D01*
X014091Y011328D01*
X014144Y011382D01*
X014153Y011366D01*
X014181Y011338D01*
X014215Y011319D01*
X014253Y011308D01*
X014441Y011308D01*
X014441Y011606D01*
X014538Y011606D01*
X014538Y011308D01*
X014725Y011308D01*
X014725Y011002D01*
X014538Y011002D01*
X014538Y010704D01*
X014441Y010704D01*
X014441Y011002D01*
X014253Y011002D01*
X014215Y010992D01*
X014181Y010972D01*
X014153Y010944D01*
X014144Y010928D01*
X014091Y010982D01*
X013748Y010982D01*
X013450Y011280D01*
X013301Y011280D01*
X012879Y011280D01*
X012884Y011297D01*
X012884Y011415D01*
X012439Y011415D01*
X012439Y011415D01*
X012439Y011730D02*
X013746Y011730D01*
X013820Y011655D01*
X013474Y011495D02*
X012884Y011495D01*
X012884Y011396D02*
X013482Y011396D01*
X013531Y011199D02*
X014725Y011199D01*
X014725Y011101D02*
X013629Y011101D01*
X013728Y011002D02*
X014725Y011002D01*
X014538Y010904D02*
X014441Y010904D01*
X014441Y010805D02*
X014538Y010805D01*
X014538Y010707D02*
X014441Y010707D01*
X014441Y010509D02*
X014538Y010509D01*
X014538Y010411D02*
X014441Y010411D01*
X014441Y010312D02*
X014538Y010312D01*
X015085Y010312D02*
X015308Y010312D01*
X015258Y010411D02*
X015085Y010411D01*
X015085Y010509D02*
X015218Y010509D01*
X015195Y010608D02*
X015085Y010608D01*
X015085Y010707D02*
X015195Y010707D01*
X015219Y010805D02*
X015085Y010805D01*
X015085Y010904D02*
X015260Y010904D01*
X015352Y011002D02*
X015085Y011002D01*
X015085Y011101D02*
X015529Y011101D01*
X015554Y011199D02*
X015085Y011199D01*
X015085Y011298D02*
X015362Y011298D01*
X015264Y011396D02*
X015085Y011396D01*
X015085Y011495D02*
X015224Y011495D01*
X015195Y011593D02*
X015085Y011593D01*
X015085Y011692D02*
X015195Y011692D01*
X015213Y011791D02*
X015085Y011791D01*
X015085Y011889D02*
X015254Y011889D01*
X015337Y011988D02*
X015085Y011988D01*
X015085Y012086D02*
X015494Y012086D01*
X015973Y011988D02*
X015975Y011988D01*
X015948Y011298D02*
X015975Y011298D01*
X015975Y011199D02*
X015757Y011199D01*
X015781Y011101D02*
X015975Y011101D01*
X015975Y011002D02*
X015959Y011002D01*
X015209Y010214D02*
X015085Y010214D01*
X015085Y010115D02*
X015111Y010115D01*
X015127Y009623D02*
X015195Y009623D01*
X015211Y009524D02*
X015029Y009524D01*
X015252Y009425D02*
X012864Y009425D01*
X012864Y009327D02*
X015333Y009327D01*
X015483Y009228D02*
X012864Y009228D01*
X012864Y009524D02*
X013532Y009524D01*
X013433Y009623D02*
X012864Y009623D01*
X012864Y009721D02*
X013335Y009721D01*
X013236Y009820D02*
X012864Y009820D01*
X012864Y009918D02*
X013137Y009918D01*
X013039Y010017D02*
X012864Y010017D01*
X012864Y010115D02*
X012940Y010115D01*
X012840Y010470D02*
X012439Y010470D01*
X012840Y010470D02*
X013655Y009655D01*
X014140Y008933D02*
X014147Y008933D01*
X013820Y008655D02*
X013746Y008580D01*
X012439Y008580D01*
X011730Y008580D01*
X011155Y009155D01*
X010155Y010155D01*
X011155Y011155D01*
X011415Y011415D01*
X011415Y011655D01*
X011490Y011730D01*
X012439Y011730D01*
X012884Y011298D02*
X014725Y011298D01*
X014538Y011396D02*
X014441Y011396D01*
X014441Y011495D02*
X014538Y011495D01*
X014538Y011593D02*
X014441Y011593D01*
X014441Y011791D02*
X014538Y011791D01*
X014538Y011889D02*
X014441Y011889D01*
X014441Y011988D02*
X014538Y011988D01*
X014725Y012086D02*
X011955Y012086D01*
X011958Y012185D02*
X014725Y012185D01*
X014725Y012283D02*
X011958Y012283D01*
X011958Y012382D02*
X014725Y012382D01*
X014725Y012480D02*
X011958Y012480D01*
X011958Y012579D02*
X014725Y012579D01*
X014725Y012677D02*
X011958Y012677D01*
X011958Y012776D02*
X014725Y012776D01*
X014725Y012874D02*
X011280Y012874D01*
X011280Y012973D02*
X014725Y012973D01*
X014817Y013072D02*
X011280Y013072D01*
X011280Y013170D02*
X014916Y013170D01*
X015014Y013269D02*
X011280Y013269D01*
X011280Y013367D02*
X015113Y013367D01*
X015229Y013483D02*
X015195Y013564D01*
X015195Y013663D02*
X011280Y013663D01*
X011280Y013761D02*
X015201Y013761D01*
X015242Y013860D02*
X011280Y013860D01*
X011280Y013958D02*
X015308Y013958D01*
X015423Y014057D02*
X011280Y014057D01*
X011100Y014210D02*
X010655Y014655D01*
X010655Y015320D01*
X010371Y015634D02*
X009939Y015634D01*
X009995Y015732D02*
X010315Y015732D01*
X010309Y015831D02*
X010002Y015831D01*
X010002Y015929D02*
X010309Y015929D01*
X010309Y016028D02*
X010002Y016028D01*
X010046Y016126D02*
X010264Y016126D01*
X010231Y016225D02*
X010145Y016225D01*
X010155Y016490D02*
X010155Y017629D01*
X010411Y017629D02*
X010411Y016234D01*
X010655Y015990D01*
X010309Y015535D02*
X010002Y015535D01*
X010002Y015437D02*
X010309Y015437D01*
X010309Y015338D02*
X010002Y015338D01*
X010002Y015240D02*
X010309Y015240D01*
X010309Y015141D02*
X010089Y015141D01*
X010188Y015042D02*
X010336Y015042D01*
X010286Y014944D02*
X010475Y014944D01*
X010475Y014845D02*
X010385Y014845D01*
X010171Y014550D02*
X010002Y014550D01*
X010002Y014648D02*
X010073Y014648D01*
X010270Y014451D02*
X009704Y014451D01*
X009606Y014451D02*
X008704Y014451D01*
X008606Y014451D02*
X008002Y014451D01*
X008002Y014353D02*
X008308Y014353D01*
X008308Y014254D02*
X008002Y014254D01*
X008002Y014057D02*
X008328Y014057D01*
X008364Y014156D02*
X007085Y014156D01*
X007085Y014254D02*
X007309Y014254D01*
X007309Y014353D02*
X007085Y014353D01*
X007085Y014451D02*
X007309Y014451D01*
X007309Y014550D02*
X007085Y014550D01*
X007085Y014648D02*
X007309Y014648D01*
X007315Y014747D02*
X007085Y014747D01*
X007085Y014845D02*
X007475Y014845D01*
X007475Y014944D02*
X007085Y014944D01*
X007085Y015042D02*
X007475Y015042D01*
X007475Y015141D02*
X007085Y015141D01*
X007085Y015240D02*
X007475Y015240D01*
X007475Y015338D02*
X007085Y015338D01*
X007085Y015437D02*
X007475Y015437D01*
X007475Y015535D02*
X007085Y015535D01*
X007085Y015634D02*
X007475Y015634D01*
X007475Y015732D02*
X007085Y015732D01*
X007085Y015831D02*
X007475Y015831D01*
X007475Y015929D02*
X007085Y015929D01*
X007085Y016028D02*
X007475Y016028D01*
X007475Y016126D02*
X007085Y016126D01*
X007085Y016225D02*
X007475Y016225D01*
X007475Y016324D02*
X007085Y016324D01*
X007085Y016422D02*
X007475Y016422D01*
X007475Y016521D02*
X007044Y016521D01*
X006946Y016619D02*
X007437Y016619D01*
X007338Y016718D02*
X006847Y016718D01*
X006886Y016816D02*
X006749Y016816D01*
X006787Y016915D02*
X006650Y016915D01*
X006585Y017013D02*
X006725Y017013D01*
X006725Y017112D02*
X006585Y017112D01*
X006585Y017210D02*
X006725Y017210D01*
X006725Y017309D02*
X006585Y017309D01*
X006511Y017407D02*
X006799Y017407D01*
X006898Y017506D02*
X006412Y017506D01*
X006410Y017802D02*
X006872Y017802D01*
X006774Y017900D02*
X006508Y017900D01*
X006585Y017999D02*
X006705Y017999D01*
X006705Y018097D02*
X006585Y018097D01*
X006155Y018155D02*
X005655Y017655D01*
X005655Y016655D01*
X006655Y015655D01*
X006655Y013530D01*
X007030Y013155D01*
X008530Y013155D01*
X008895Y012790D01*
X008895Y012439D01*
X009210Y012439D02*
X009210Y012850D01*
X008655Y013405D01*
X007155Y013405D01*
X006905Y013655D01*
X006905Y016405D01*
X006155Y017155D01*
X005898Y017506D02*
X005835Y017506D01*
X005859Y017605D02*
X009415Y017605D01*
X009415Y017506D02*
X007412Y017506D01*
X007511Y017407D02*
X009415Y017407D01*
X009415Y017309D02*
X007585Y017309D01*
X007585Y017210D02*
X009415Y017210D01*
X009434Y017112D02*
X007585Y017112D01*
X007155Y017155D02*
X007655Y016655D01*
X007655Y014490D01*
X008002Y014550D02*
X008308Y014550D01*
X008308Y014648D02*
X008002Y014648D01*
X007995Y014747D02*
X008314Y014747D01*
X008399Y014845D02*
X007835Y014845D01*
X007835Y014944D02*
X009777Y014944D01*
X009704Y014845D02*
X009607Y014845D01*
X009607Y014747D02*
X009704Y014747D01*
X009704Y014648D02*
X009607Y014648D01*
X009607Y014550D02*
X009704Y014550D01*
X010002Y014353D02*
X010368Y014353D01*
X010467Y014254D02*
X010002Y014254D01*
X009946Y014156D02*
X010565Y014156D01*
X010605Y014057D02*
X009982Y014057D01*
X009982Y013958D02*
X010605Y013958D01*
X010605Y013860D02*
X009982Y013860D01*
X009982Y013761D02*
X010605Y013761D01*
X010605Y013663D02*
X010067Y013663D01*
X010166Y013564D02*
X010605Y013564D01*
X010605Y013466D02*
X010264Y013466D01*
X010335Y013367D02*
X010605Y013367D01*
X010605Y013269D02*
X010335Y013269D01*
X010335Y013170D02*
X010605Y013170D01*
X010605Y013072D02*
X010335Y013072D01*
X010335Y012973D02*
X010605Y012973D01*
X010470Y012884D02*
X010470Y012439D01*
X010470Y012884D01*
X010470Y012874D02*
X010470Y012874D01*
X010470Y012776D02*
X010470Y012776D01*
X010470Y012677D02*
X010470Y012677D01*
X010470Y012579D02*
X010470Y012579D01*
X010470Y012480D02*
X010470Y012480D01*
X010470Y012439D02*
X010470Y012439D01*
X010470Y012438D02*
X010470Y011993D01*
X010470Y012438D01*
X010470Y012438D01*
X010470Y012382D02*
X010470Y012382D01*
X010470Y012283D02*
X010470Y012283D01*
X010470Y012185D02*
X010470Y012185D01*
X010470Y012086D02*
X010470Y012086D01*
X010470Y011993D02*
X010588Y011993D01*
X010626Y012004D01*
X010643Y012013D01*
X010937Y012013D01*
X010943Y012019D01*
X010948Y012013D01*
X011235Y012013D01*
X011235Y011730D01*
X011235Y011581D01*
X011235Y011489D01*
X011209Y011464D01*
X011094Y011464D01*
X010980Y011417D01*
X010894Y011330D01*
X010847Y011216D01*
X010847Y011101D01*
X010155Y010410D01*
X010020Y010545D01*
X010020Y011081D01*
X010020Y011230D01*
X010020Y012013D01*
X010297Y012013D01*
X010314Y012004D01*
X010352Y011993D01*
X010470Y011993D01*
X010020Y011988D02*
X011235Y011988D01*
X011235Y011889D02*
X010020Y011889D01*
X010020Y011791D02*
X011235Y011791D01*
X011235Y011692D02*
X010020Y011692D01*
X010020Y011593D02*
X011235Y011593D01*
X011235Y011495D02*
X010020Y011495D01*
X010020Y011396D02*
X010960Y011396D01*
X010880Y011298D02*
X010020Y011298D01*
X010020Y011199D02*
X010847Y011199D01*
X010846Y011101D02*
X010020Y011101D01*
X010020Y011002D02*
X010748Y011002D01*
X010649Y010904D02*
X010020Y010904D01*
X010020Y010805D02*
X010551Y010805D01*
X010452Y010707D02*
X010020Y010707D01*
X010020Y010608D02*
X010353Y010608D01*
X010255Y010509D02*
X010055Y010509D01*
X010154Y010411D02*
X010156Y010411D01*
X010155Y010155D02*
X009155Y009155D01*
X008895Y008895D01*
X008895Y007872D01*
X009210Y007872D02*
X009210Y003710D01*
X009155Y003655D01*
X008960Y003414D02*
X006669Y003414D01*
X006767Y003513D02*
X008880Y003513D01*
X008847Y003611D02*
X006866Y003611D01*
X006964Y003710D02*
X008847Y003710D01*
X008885Y003809D02*
X007063Y003809D01*
X007162Y003907D02*
X008971Y003907D01*
X009030Y004006D02*
X007260Y004006D01*
X007359Y004104D02*
X009030Y004104D01*
X009030Y004203D02*
X007457Y004203D01*
X007556Y004301D02*
X009030Y004301D01*
X009030Y004400D02*
X007654Y004400D01*
X007753Y004498D02*
X009030Y004498D01*
X009030Y004597D02*
X007835Y004597D01*
X007835Y004695D02*
X009030Y004695D01*
X009030Y004794D02*
X007835Y004794D01*
X007835Y004892D02*
X009030Y004892D01*
X009030Y004991D02*
X007835Y004991D01*
X007835Y005090D02*
X009030Y005090D01*
X009030Y005188D02*
X007835Y005188D01*
X007835Y005287D02*
X009030Y005287D01*
X009030Y005385D02*
X007835Y005385D01*
X007835Y005484D02*
X008366Y005484D01*
X008309Y005582D02*
X007835Y005582D01*
X007835Y005681D02*
X008308Y005681D01*
X008308Y005878D02*
X007835Y005878D01*
X007835Y005976D02*
X008308Y005976D01*
X008313Y006075D02*
X007835Y006075D01*
X007928Y006174D02*
X008374Y006174D01*
X008328Y006272D02*
X008027Y006272D01*
X007813Y006568D02*
X005982Y006568D01*
X005982Y006666D02*
X007912Y006666D01*
X007715Y006469D02*
X005982Y006469D01*
X005982Y006371D02*
X007616Y006371D01*
X007518Y006272D02*
X005982Y006272D01*
X005936Y006174D02*
X007475Y006174D01*
X007475Y006075D02*
X005997Y006075D01*
X006002Y005976D02*
X007475Y005976D01*
X007475Y005878D02*
X006002Y005878D01*
X006002Y005772D02*
X005704Y005772D01*
X005704Y005454D01*
X005872Y005454D01*
X005910Y005464D01*
X005944Y005484D01*
X005972Y005512D01*
X005992Y005546D01*
X006002Y005584D01*
X006002Y005772D01*
X006002Y005681D02*
X007475Y005681D01*
X007475Y005779D02*
X005704Y005779D01*
X005606Y005779D02*
X003937Y005779D01*
X003964Y005681D02*
X005308Y005681D01*
X005309Y005582D02*
X003959Y005582D01*
X003918Y005484D02*
X005366Y005484D01*
X005607Y005484D02*
X005704Y005484D01*
X005704Y005582D02*
X005607Y005582D01*
X005607Y005681D02*
X005704Y005681D01*
X005944Y005484D02*
X007475Y005484D01*
X007475Y005582D02*
X006001Y005582D01*
X005308Y005878D02*
X003868Y005878D01*
X003835Y005976D02*
X005308Y005976D01*
X005313Y006075D02*
X003835Y006075D01*
X003835Y006174D02*
X005374Y006174D01*
X005328Y006272D02*
X003835Y006272D01*
X003835Y006371D02*
X005328Y006371D01*
X005328Y006469D02*
X003835Y006469D01*
X003835Y006568D02*
X005328Y006568D01*
X005328Y006666D02*
X003835Y006666D01*
X003835Y006765D02*
X005333Y006765D01*
X005475Y006863D02*
X003835Y006863D01*
X003835Y006962D02*
X005475Y006962D01*
X005475Y007060D02*
X003835Y007060D01*
X003835Y007159D02*
X005145Y007159D01*
X005145Y007258D02*
X003835Y007258D01*
X003835Y007356D02*
X005145Y007356D01*
X005145Y007455D02*
X003835Y007455D01*
X003835Y007553D02*
X005145Y007553D01*
X005145Y007652D02*
X003835Y007652D01*
X003835Y007750D02*
X005145Y007750D01*
X005145Y007849D02*
X003835Y007849D01*
X003835Y007947D02*
X005145Y007947D01*
X005145Y008046D02*
X003835Y008046D01*
X003835Y008144D02*
X005145Y008144D01*
X005145Y008243D02*
X003835Y008243D01*
X003835Y008341D02*
X005145Y008341D01*
X005145Y008440D02*
X003835Y008440D01*
X003835Y008539D02*
X005145Y008539D01*
X005145Y008637D02*
X003835Y008637D01*
X003835Y008736D02*
X005145Y008736D01*
X005145Y008834D02*
X003835Y008834D01*
X003835Y008933D02*
X005145Y008933D01*
X005145Y009031D02*
X003835Y009031D01*
X003835Y009130D02*
X005145Y009130D01*
X005145Y009228D02*
X003835Y009228D01*
X003835Y009327D02*
X005145Y009327D01*
X005212Y009425D02*
X003835Y009425D01*
X003835Y009524D02*
X005475Y009524D01*
X005475Y009623D02*
X003835Y009623D01*
X003835Y009721D02*
X005475Y009721D01*
X005475Y009820D02*
X003835Y009820D01*
X003835Y009918D02*
X005475Y009918D01*
X005512Y010017D02*
X003835Y010017D01*
X003835Y010115D02*
X005611Y010115D01*
X005709Y010214D02*
X003835Y010214D01*
X003835Y010312D02*
X005743Y010312D01*
X005645Y010411D02*
X003835Y010411D01*
X003835Y010509D02*
X005546Y010509D01*
X005475Y010608D02*
X003835Y010608D01*
X003835Y010707D02*
X005475Y010707D01*
X005475Y010805D02*
X003835Y010805D01*
X003835Y010904D02*
X005193Y010904D01*
X005145Y011002D02*
X003835Y011002D01*
X003835Y011101D02*
X005145Y011101D01*
X005145Y011199D02*
X003835Y011199D01*
X003767Y011298D02*
X005145Y011298D01*
X005145Y011396D02*
X003668Y011396D01*
X003570Y011495D02*
X005145Y011495D01*
X005145Y011593D02*
X003471Y011593D01*
X003373Y011692D02*
X005145Y011692D01*
X005145Y011791D02*
X003274Y011791D01*
X003176Y011889D02*
X005145Y011889D01*
X005145Y011988D02*
X003077Y011988D01*
X002979Y012086D02*
X005145Y012086D01*
X005145Y012185D02*
X002880Y012185D01*
X002861Y012283D02*
X005145Y012283D01*
X005145Y012382D02*
X002820Y012382D01*
X002730Y012480D02*
X005145Y012480D01*
X005145Y012579D02*
X002670Y012579D01*
X002670Y012677D02*
X005145Y012677D01*
X005145Y012776D02*
X002670Y012776D01*
X002806Y012874D02*
X005145Y012874D01*
X005145Y012973D02*
X002817Y012973D01*
X002817Y013072D02*
X005145Y013072D01*
X005156Y013170D02*
X002817Y013170D01*
X002817Y013269D02*
X005475Y013269D01*
X005475Y013367D02*
X002817Y013367D01*
X002776Y013466D02*
X005475Y013466D01*
X005328Y013564D02*
X001335Y013564D01*
X001335Y013466D02*
X001534Y013466D01*
X001494Y013367D02*
X001335Y013367D01*
X001155Y013155D02*
X001155Y010155D01*
X001820Y010155D01*
X002147Y010115D02*
X002163Y010115D01*
X002163Y010017D02*
X002147Y010017D01*
X002147Y009918D02*
X002163Y009918D01*
X002228Y009820D02*
X002082Y009820D01*
X002310Y009721D02*
X000805Y009721D01*
X000805Y009623D02*
X002310Y009623D01*
X002490Y009490D02*
X002155Y009155D01*
X002655Y009155D01*
X003155Y008655D01*
X003155Y005155D01*
X002876Y005287D02*
X000805Y005287D01*
X000805Y005385D02*
X002949Y005385D01*
X002975Y005484D02*
X000805Y005484D01*
X000805Y005582D02*
X002975Y005582D01*
X002975Y005681D02*
X000805Y005681D01*
X000805Y005779D02*
X002975Y005779D01*
X002975Y005878D02*
X000805Y005878D01*
X000805Y005976D02*
X002975Y005976D01*
X002975Y006075D02*
X000805Y006075D01*
X000805Y006174D02*
X002975Y006174D01*
X002975Y006272D02*
X000805Y006272D01*
X000805Y006371D02*
X002975Y006371D01*
X002975Y006469D02*
X000805Y006469D01*
X000805Y006568D02*
X002975Y006568D01*
X002975Y006666D02*
X000805Y006666D01*
X000805Y006765D02*
X002975Y006765D01*
X002975Y006863D02*
X000805Y006863D01*
X000805Y006962D02*
X002975Y006962D01*
X002975Y007060D02*
X000805Y007060D01*
X000805Y007159D02*
X002975Y007159D01*
X002975Y007258D02*
X000805Y007258D01*
X000805Y007356D02*
X002975Y007356D01*
X002975Y007455D02*
X000805Y007455D01*
X000805Y007553D02*
X002975Y007553D01*
X002975Y007652D02*
X000805Y007652D01*
X000805Y007750D02*
X001669Y007750D01*
X001687Y007741D02*
X001754Y007719D01*
X001823Y007708D01*
X002107Y007708D01*
X002107Y008106D01*
X002204Y008106D01*
X002204Y007708D01*
X002487Y007708D01*
X002557Y007719D01*
X002624Y007741D01*
X002686Y007773D01*
X002743Y007814D01*
X002793Y007864D01*
X002834Y007921D01*
X002866Y007984D01*
X002888Y008050D01*
X002897Y008107D01*
X002204Y008107D01*
X002204Y008204D01*
X002107Y008204D01*
X002107Y008602D01*
X001823Y008602D01*
X001754Y008591D01*
X001687Y008569D01*
X001624Y008537D01*
X001567Y008496D01*
X001517Y008446D01*
X001476Y008389D01*
X001444Y008327D01*
X001422Y008260D01*
X001414Y008204D01*
X002106Y008204D01*
X002106Y008107D01*
X001414Y008107D01*
X001422Y008050D01*
X001444Y007984D01*
X001476Y007921D01*
X001517Y007864D01*
X001567Y007814D01*
X001624Y007773D01*
X001687Y007741D01*
X001533Y007849D02*
X000805Y007849D01*
X000805Y007947D02*
X001463Y007947D01*
X001424Y008046D02*
X000805Y008046D01*
X000805Y008144D02*
X002106Y008144D01*
X002204Y008144D02*
X002975Y008144D01*
X002975Y008046D02*
X002886Y008046D01*
X002848Y007947D02*
X002975Y007947D01*
X002975Y007849D02*
X002778Y007849D01*
X002642Y007750D02*
X002975Y007750D01*
X002897Y008204D02*
X002888Y008260D01*
X002866Y008327D01*
X002834Y008389D01*
X002793Y008446D01*
X002743Y008496D01*
X002686Y008537D01*
X002624Y008569D01*
X002557Y008591D01*
X002487Y008602D01*
X002204Y008602D01*
X002204Y008204D01*
X002897Y008204D01*
X002890Y008243D02*
X002975Y008243D01*
X002975Y008341D02*
X002859Y008341D01*
X002797Y008440D02*
X002975Y008440D01*
X002975Y008539D02*
X002684Y008539D01*
X002555Y008736D02*
X002820Y008736D01*
X002919Y008637D02*
X000805Y008637D01*
X000805Y008539D02*
X001627Y008539D01*
X001513Y008440D02*
X000805Y008440D01*
X000805Y008341D02*
X001452Y008341D01*
X001420Y008243D02*
X000805Y008243D01*
X000805Y008736D02*
X001755Y008736D01*
X001575Y008834D02*
X000805Y008834D01*
X000805Y008933D02*
X001488Y008933D01*
X001448Y009031D02*
X000805Y009031D01*
X000805Y009130D02*
X001431Y009130D01*
X001431Y009228D02*
X000805Y009228D01*
X000805Y009327D02*
X001467Y009327D01*
X001525Y009425D02*
X000805Y009425D01*
X000805Y009524D02*
X001634Y009524D01*
X001559Y009820D02*
X000805Y009820D01*
X000805Y009918D02*
X000956Y009918D01*
X000879Y010017D02*
X000805Y010017D01*
X000805Y010115D02*
X000847Y010115D01*
X000847Y010214D02*
X000805Y010214D01*
X000805Y010312D02*
X000886Y010312D01*
X000805Y010608D02*
X000975Y010608D01*
X000975Y010707D02*
X000805Y010707D01*
X000805Y010805D02*
X000975Y010805D01*
X000975Y010904D02*
X000805Y010904D01*
X000805Y011002D02*
X000975Y011002D01*
X000975Y011101D02*
X000805Y011101D01*
X000805Y011199D02*
X000975Y011199D01*
X000975Y011298D02*
X000805Y011298D01*
X000805Y011396D02*
X000975Y011396D01*
X000975Y011495D02*
X000805Y011495D01*
X000805Y011593D02*
X000975Y011593D01*
X000975Y011692D02*
X000805Y011692D01*
X000805Y011791D02*
X000975Y011791D01*
X000975Y011889D02*
X000805Y011889D01*
X000805Y011988D02*
X000975Y011988D01*
X000975Y012086D02*
X000805Y012086D01*
X000805Y012185D02*
X000975Y012185D01*
X000975Y012283D02*
X000805Y012283D01*
X000805Y012382D02*
X000975Y012382D01*
X000975Y012480D02*
X000805Y012480D01*
X000805Y012579D02*
X000975Y012579D01*
X000975Y012677D02*
X000805Y012677D01*
X000805Y012776D02*
X000975Y012776D01*
X000975Y012874D02*
X000805Y012874D01*
X000805Y012973D02*
X000975Y012973D01*
X000975Y013072D02*
X000805Y013072D01*
X000805Y013170D02*
X000975Y013170D01*
X000975Y013269D02*
X000805Y013269D01*
X000805Y013367D02*
X000975Y013367D01*
X000975Y013466D02*
X000805Y013466D01*
X000805Y013564D02*
X000975Y013564D01*
X000975Y013663D02*
X000805Y013663D01*
X000805Y013761D02*
X001007Y013761D01*
X001105Y013860D02*
X000805Y013860D01*
X000805Y013958D02*
X001204Y013958D01*
X001302Y014057D02*
X000805Y014057D01*
X000805Y014156D02*
X001401Y014156D01*
X001500Y014254D02*
X000805Y014254D01*
X000805Y014353D02*
X002098Y014353D01*
X002197Y014451D02*
X000805Y014451D01*
X000805Y014550D02*
X002295Y014550D01*
X002394Y014648D02*
X000805Y014648D01*
X000805Y014747D02*
X002492Y014747D01*
X002591Y014845D02*
X000805Y014845D01*
X000805Y014944D02*
X002689Y014944D01*
X002788Y015042D02*
X000805Y015042D01*
X000805Y015141D02*
X002886Y015141D01*
X002985Y015240D02*
X000805Y015240D01*
X000805Y015338D02*
X003084Y015338D01*
X003182Y015437D02*
X000805Y015437D01*
X000805Y015535D02*
X003281Y015535D01*
X003379Y015634D02*
X000805Y015634D01*
X000805Y015732D02*
X003478Y015732D01*
X003576Y015831D02*
X000805Y015831D01*
X000805Y015929D02*
X003675Y015929D01*
X003987Y015732D02*
X005823Y015732D01*
X005725Y015831D02*
X004085Y015831D01*
X004184Y015929D02*
X005626Y015929D01*
X005528Y016028D02*
X004282Y016028D01*
X004381Y016126D02*
X005429Y016126D01*
X005331Y016225D02*
X004479Y016225D01*
X004578Y016324D02*
X005232Y016324D01*
X005134Y016422D02*
X004677Y016422D01*
X004775Y016521D02*
X005035Y016521D01*
X004975Y016619D02*
X004835Y016619D01*
X004835Y016718D02*
X004975Y016718D01*
X005410Y017802D02*
X005547Y017802D01*
X005508Y017900D02*
X005646Y017900D01*
X005585Y017999D02*
X005725Y017999D01*
X005725Y018097D02*
X005585Y018097D01*
X005585Y018196D02*
X005725Y018196D01*
X005725Y018294D02*
X005585Y018294D01*
X005525Y018393D02*
X005785Y018393D01*
X005883Y018491D02*
X005427Y018491D01*
X005958Y017703D02*
X009249Y017703D01*
X009143Y017802D02*
X007438Y017802D01*
X007537Y017900D02*
X009109Y017900D01*
X009115Y017999D02*
X007605Y017999D01*
X007605Y018097D02*
X009166Y018097D01*
X009091Y018393D02*
X008994Y018393D01*
X008994Y018491D02*
X009091Y018491D01*
X009091Y018590D02*
X008994Y018590D01*
X008994Y018689D02*
X009091Y018689D01*
X009091Y018886D02*
X008994Y018886D01*
X008994Y018984D02*
X009091Y018984D01*
X009091Y019083D02*
X008994Y019083D01*
X008994Y019181D02*
X009091Y019181D01*
X009240Y019181D02*
X009651Y019181D01*
X009651Y019083D02*
X009372Y019083D01*
X009440Y018984D02*
X009651Y018984D01*
X009651Y018886D02*
X009478Y018886D01*
X009723Y019280D02*
X002869Y019280D01*
X002778Y019300D02*
X002778Y019300D01*
X002375Y019477D02*
X017935Y019477D01*
X017869Y019280D02*
X018518Y019280D01*
X017778Y019300D02*
X017778Y019300D01*
X016830Y019084D02*
X016830Y019084D01*
X016828Y019083D02*
X011597Y019083D01*
X011665Y018984D02*
X016705Y018984D01*
X016581Y018886D02*
X011703Y018886D01*
X008846Y019181D02*
X003275Y019181D01*
X003446Y019083D02*
X008714Y019083D01*
X008645Y018984D02*
X003616Y018984D01*
X003684Y018945D02*
X003684Y018945D01*
X003739Y018886D02*
X008607Y018886D01*
X007205Y018590D02*
X007105Y018590D01*
X007105Y018491D02*
X007205Y018491D01*
X007205Y018393D02*
X007105Y018393D01*
X007105Y018097D02*
X007205Y018097D01*
X007205Y017999D02*
X007105Y017999D01*
X007105Y017900D02*
X007205Y017900D01*
X007205Y017802D02*
X007105Y017802D01*
X007835Y016225D02*
X009309Y016225D01*
X009309Y016126D02*
X007835Y016126D01*
X007835Y016028D02*
X009309Y016028D01*
X009309Y015929D02*
X007835Y015929D01*
X007835Y015831D02*
X009309Y015831D01*
X009315Y015732D02*
X007835Y015732D01*
X007835Y015634D02*
X009371Y015634D01*
X009309Y015535D02*
X007835Y015535D01*
X007835Y015437D02*
X009309Y015437D01*
X009309Y015338D02*
X007835Y015338D01*
X007835Y015240D02*
X009309Y015240D01*
X009309Y015141D02*
X007835Y015141D01*
X007835Y015042D02*
X009336Y015042D01*
X009399Y014845D02*
X008911Y014845D01*
X008996Y014747D02*
X009314Y014747D01*
X009308Y014648D02*
X009002Y014648D01*
X009002Y014550D02*
X009308Y014550D01*
X009308Y014353D02*
X009002Y014353D01*
X009002Y014254D02*
X009308Y014254D01*
X009364Y014156D02*
X008946Y014156D01*
X008982Y014057D02*
X009328Y014057D01*
X009328Y013958D02*
X008982Y013958D01*
X008982Y013860D02*
X009328Y013860D01*
X009328Y013761D02*
X008982Y013761D01*
X009067Y013663D02*
X009328Y013663D01*
X009070Y013405D02*
X008655Y013820D01*
X007655Y013820D01*
X007309Y013860D02*
X007085Y013860D01*
X007085Y013958D02*
X007309Y013958D01*
X007309Y014057D02*
X007085Y014057D01*
X007085Y013761D02*
X007309Y013761D01*
X007309Y013663D02*
X007152Y013663D01*
X006484Y013072D02*
X006165Y013072D01*
X006154Y013170D02*
X006386Y013170D01*
X006287Y013269D02*
X005835Y013269D01*
X005835Y013367D02*
X006225Y013367D01*
X006225Y013466D02*
X005835Y013466D01*
X005982Y013564D02*
X006225Y013564D01*
X006225Y013663D02*
X005982Y013663D01*
X005982Y013761D02*
X006225Y013761D01*
X006225Y013860D02*
X005982Y013860D01*
X005982Y013958D02*
X006225Y013958D01*
X006225Y014057D02*
X005982Y014057D01*
X005946Y014156D02*
X006225Y014156D01*
X006225Y014254D02*
X006002Y014254D01*
X006002Y014353D02*
X006225Y014353D01*
X006225Y014451D02*
X005704Y014451D01*
X005606Y014451D02*
X002706Y014451D01*
X002804Y014550D02*
X005308Y014550D01*
X005308Y014648D02*
X002903Y014648D01*
X003001Y014747D02*
X005314Y014747D01*
X005399Y014845D02*
X003100Y014845D01*
X003198Y014944D02*
X006225Y014944D01*
X006225Y015042D02*
X003297Y015042D01*
X003396Y015141D02*
X006225Y015141D01*
X006225Y015240D02*
X003494Y015240D01*
X003593Y015338D02*
X006218Y015338D01*
X006119Y015437D02*
X003691Y015437D01*
X003790Y015535D02*
X006021Y015535D01*
X005922Y015634D02*
X003888Y015634D01*
X003258Y016119D02*
X003258Y016119D01*
X002607Y014353D02*
X005308Y014353D01*
X005308Y014254D02*
X002509Y014254D01*
X002410Y014156D02*
X005364Y014156D01*
X005328Y014057D02*
X002312Y014057D01*
X002203Y013466D02*
X002107Y013466D01*
X002147Y013367D02*
X002163Y013367D01*
X002163Y013269D02*
X002147Y013269D01*
X002147Y013170D02*
X002163Y013170D01*
X002163Y013072D02*
X002147Y013072D01*
X002147Y012973D02*
X002163Y012973D01*
X002173Y012874D02*
X002137Y012874D01*
X002490Y013155D02*
X002490Y012490D01*
X002155Y012155D01*
X002655Y012155D01*
X003655Y011155D01*
X003655Y005655D01*
X003809Y005385D02*
X007475Y005385D01*
X007835Y005779D02*
X008606Y005779D01*
X008704Y005779D02*
X009030Y005779D01*
X009002Y005772D02*
X008704Y005772D01*
X008704Y005454D01*
X008872Y005454D01*
X008910Y005464D01*
X008944Y005484D01*
X008972Y005512D01*
X008992Y005546D01*
X009002Y005584D01*
X009002Y005772D01*
X009002Y005681D02*
X009030Y005681D01*
X009030Y005582D02*
X009001Y005582D01*
X009030Y005484D02*
X008944Y005484D01*
X009002Y005878D02*
X009030Y005878D01*
X009030Y005976D02*
X009002Y005976D01*
X008997Y006075D02*
X009030Y006075D01*
X009030Y006174D02*
X008936Y006174D01*
X008982Y006272D02*
X009030Y006272D01*
X009030Y006371D02*
X008982Y006371D01*
X008982Y006469D02*
X009030Y006469D01*
X009030Y006568D02*
X008988Y006568D01*
X008715Y006863D02*
X005835Y006863D01*
X005835Y006962D02*
X008715Y006962D01*
X008715Y007060D02*
X005835Y007060D01*
X005977Y006765D02*
X008333Y006765D01*
X008715Y007159D02*
X006165Y007159D01*
X006165Y007258D02*
X008715Y007258D01*
X008715Y007356D02*
X006165Y007356D01*
X005655Y008155D02*
X005655Y008255D01*
X005655Y006490D01*
X005655Y008255D02*
X005655Y009905D01*
X005905Y010155D01*
X007872Y010155D01*
X007872Y010470D02*
X005840Y010470D01*
X005655Y010655D01*
X005655Y012055D01*
X005655Y013820D01*
X005328Y013860D02*
X001614Y013860D01*
X001516Y013761D02*
X005328Y013761D01*
X005328Y013663D02*
X001417Y013663D01*
X001713Y013958D02*
X005328Y013958D01*
X005607Y014550D02*
X005704Y014550D01*
X005704Y014648D02*
X005607Y014648D01*
X005607Y014747D02*
X005704Y014747D01*
X005704Y014845D02*
X005607Y014845D01*
X005911Y014845D02*
X006225Y014845D01*
X006225Y014747D02*
X005996Y014747D01*
X006002Y014648D02*
X006225Y014648D01*
X006225Y014550D02*
X006002Y014550D01*
X006165Y012973D02*
X006583Y012973D01*
X006681Y012874D02*
X006165Y012874D01*
X006165Y012776D02*
X006780Y012776D01*
X006165Y012677D02*
X008352Y012677D01*
X008352Y012579D02*
X006165Y012579D01*
X006165Y011889D02*
X006953Y011889D01*
X006877Y011791D02*
X006165Y011791D01*
X006165Y011692D02*
X006847Y011692D01*
X006847Y011593D02*
X006165Y011593D01*
X006165Y011495D02*
X006888Y011495D01*
X006978Y011396D02*
X006165Y011396D01*
X006165Y011298D02*
X007258Y011298D01*
X007395Y011415D02*
X007155Y011655D01*
X007433Y011791D02*
X007446Y011791D01*
X007453Y011889D02*
X007357Y011889D01*
X007395Y011415D02*
X007872Y011415D01*
X007872Y011100D02*
X009785Y011100D01*
X009840Y011155D01*
X009840Y012439D01*
X009840Y013220D01*
X009655Y013405D01*
X009070Y013405D01*
X008655Y013655D02*
X008655Y013820D01*
X008607Y014550D02*
X008704Y014550D01*
X008704Y014648D02*
X008607Y014648D01*
X008607Y014747D02*
X008704Y014747D01*
X008704Y014845D02*
X008607Y014845D01*
X009655Y015320D02*
X010785Y014191D01*
X010785Y012439D01*
X011100Y012439D02*
X011100Y014210D01*
X011704Y014954D02*
X011872Y014954D01*
X011910Y014964D01*
X011944Y014984D01*
X011972Y015012D01*
X011992Y015046D01*
X012002Y015084D01*
X012002Y015272D01*
X011704Y015272D01*
X011704Y014954D01*
X011704Y015042D02*
X011607Y015042D01*
X011607Y015141D02*
X011704Y015141D01*
X011704Y015240D02*
X011607Y015240D01*
X011606Y015338D02*
X011002Y015338D01*
X011704Y015338D02*
X019505Y015338D01*
X019505Y015240D02*
X012002Y015240D01*
X012002Y015141D02*
X019505Y015141D01*
X019505Y015042D02*
X011990Y015042D01*
X012002Y015437D02*
X019505Y015437D01*
X019505Y015535D02*
X012002Y015535D01*
X012004Y015634D02*
X011967Y015634D01*
X012306Y015634D02*
X019505Y015634D01*
X019505Y015732D02*
X012417Y015732D01*
X012458Y015831D02*
X019505Y015831D01*
X014208Y011988D02*
X011595Y011988D01*
X011415Y011655D02*
X011415Y012439D01*
X010155Y012439D02*
X010155Y013320D01*
X009655Y013820D01*
X007446Y011199D02*
X006165Y011199D01*
X006165Y011101D02*
X007446Y011101D01*
X007446Y011002D02*
X006165Y011002D01*
X006117Y010904D02*
X007426Y010904D01*
X007426Y010805D02*
X005835Y010805D01*
X005858Y010707D02*
X007426Y010707D01*
X007426Y010785D02*
X007871Y010785D01*
X007871Y010785D01*
X007426Y010785D01*
X007446Y009918D02*
X005923Y009918D01*
X005835Y009820D02*
X007446Y009820D01*
X007446Y009721D02*
X005835Y009721D01*
X005835Y009623D02*
X007446Y009623D01*
X007446Y009524D02*
X005835Y009524D01*
X006099Y009425D02*
X007446Y009425D01*
X007446Y009327D02*
X006165Y009327D01*
X006165Y009228D02*
X007446Y009228D01*
X007446Y009130D02*
X006165Y009130D01*
X006165Y009031D02*
X007446Y009031D01*
X007446Y008933D02*
X006165Y008933D01*
X006165Y008834D02*
X007446Y008834D01*
X007449Y008736D02*
X006165Y008736D01*
X006165Y008637D02*
X007446Y008637D01*
X007446Y008539D02*
X006165Y008539D01*
X006165Y008440D02*
X007446Y008440D01*
X008297Y009130D02*
X008347Y009130D01*
X008327Y009228D02*
X008297Y009228D01*
X009075Y008440D02*
X011616Y008440D01*
X011936Y008243D02*
X015407Y008243D01*
X014178Y008341D02*
X014104Y008341D01*
X013537Y008341D02*
X009075Y008341D01*
X009369Y008933D02*
X010941Y008933D01*
X010873Y009031D02*
X009438Y009031D01*
X009464Y009130D02*
X010847Y009130D01*
X010827Y009228D02*
X009483Y009228D01*
X009581Y009327D02*
X010729Y009327D01*
X010630Y009425D02*
X009680Y009425D01*
X009779Y009524D02*
X010532Y009524D01*
X010433Y009623D02*
X009877Y009623D01*
X009976Y009721D02*
X010335Y009721D01*
X010236Y009820D02*
X010074Y009820D01*
X010155Y010155D02*
X009840Y010470D01*
X009840Y011155D01*
X009664Y009918D02*
X009326Y009918D01*
X009421Y009820D02*
X009565Y009820D01*
X009467Y009721D02*
X009462Y009721D01*
X009525Y007872D02*
X009525Y003525D01*
X009155Y003155D01*
X008155Y003155D01*
X008176Y002922D02*
X016030Y002922D01*
X016024Y002901D02*
X016024Y002901D01*
X016024Y002823D02*
X012875Y002823D01*
X012897Y002814D02*
X012740Y002879D01*
X012570Y002879D01*
X012413Y002814D01*
X012293Y002694D01*
X012228Y002537D01*
X012228Y001773D01*
X012293Y001616D01*
X012413Y001496D01*
X012570Y001431D01*
X012740Y001431D01*
X012897Y001496D01*
X013017Y001616D01*
X013082Y001773D01*
X013082Y002310D01*
X013309Y002310D01*
X013309Y002239D01*
X013385Y002163D01*
X013925Y002163D01*
X014002Y002239D01*
X014002Y002740D01*
X013925Y002817D01*
X013385Y002817D01*
X013309Y002740D01*
X013309Y002670D01*
X013064Y002670D01*
X013027Y002670D01*
X013017Y002694D01*
X012897Y002814D01*
X012986Y002725D02*
X013309Y002725D01*
X012990Y002490D02*
X012655Y002155D01*
X012228Y002133D02*
X011704Y002133D01*
X011704Y002107D02*
X011704Y002204D01*
X012102Y002204D01*
X012102Y002487D01*
X012091Y002557D01*
X012069Y002624D01*
X012037Y002686D01*
X011996Y002743D01*
X011946Y002793D01*
X011889Y002834D01*
X011827Y002866D01*
X011760Y002888D01*
X011704Y002897D01*
X011704Y002204D01*
X011607Y002204D01*
X011607Y002897D01*
X011550Y002888D01*
X011484Y002866D01*
X011421Y002834D01*
X011364Y002793D01*
X011314Y002743D01*
X011273Y002686D01*
X011241Y002624D01*
X011219Y002557D01*
X011208Y002487D01*
X011208Y002204D01*
X011606Y002204D01*
X011606Y002107D01*
X011208Y002107D01*
X011208Y001823D01*
X011219Y001754D01*
X011241Y001687D01*
X011273Y001624D01*
X011314Y001567D01*
X011364Y001517D01*
X011421Y001476D01*
X011484Y001444D01*
X011550Y001422D01*
X011607Y001414D01*
X011607Y002106D01*
X011704Y002106D01*
X011704Y001414D01*
X011760Y001422D01*
X011827Y001444D01*
X011889Y001476D01*
X011946Y001517D01*
X011996Y001567D01*
X012037Y001624D01*
X012069Y001687D01*
X012091Y001754D01*
X012102Y001823D01*
X012102Y002107D01*
X011704Y002107D01*
X011704Y002035D02*
X011607Y002035D01*
X011606Y002133D02*
X011082Y002133D01*
X011082Y002035D02*
X011208Y002035D01*
X011208Y001936D02*
X011082Y001936D01*
X011082Y001838D02*
X011208Y001838D01*
X011224Y001739D02*
X011068Y001739D01*
X011027Y001641D02*
X011264Y001641D01*
X011339Y001542D02*
X010943Y001542D01*
X010835Y001443D02*
X011486Y001443D01*
X011607Y001443D02*
X011704Y001443D01*
X011704Y001542D02*
X011607Y001542D01*
X011607Y001641D02*
X011704Y001641D01*
X011704Y001739D02*
X011607Y001739D01*
X011607Y001838D02*
X011704Y001838D01*
X011704Y001936D02*
X011607Y001936D01*
X011607Y002232D02*
X011704Y002232D01*
X011704Y002330D02*
X011607Y002330D01*
X011607Y002429D02*
X011704Y002429D01*
X011704Y002527D02*
X011607Y002527D01*
X011607Y002626D02*
X011704Y002626D01*
X011704Y002725D02*
X011607Y002725D01*
X011607Y002823D02*
X011704Y002823D01*
X011905Y002823D02*
X012436Y002823D01*
X012324Y002725D02*
X012009Y002725D01*
X012068Y002626D02*
X012265Y002626D01*
X012228Y002527D02*
X012096Y002527D01*
X012102Y002429D02*
X012228Y002429D01*
X012228Y002330D02*
X012102Y002330D01*
X012102Y002232D02*
X012228Y002232D01*
X012228Y002035D02*
X012102Y002035D01*
X012102Y001936D02*
X012228Y001936D01*
X012228Y001838D02*
X012102Y001838D01*
X012086Y001739D02*
X012242Y001739D01*
X012283Y001641D02*
X012046Y001641D01*
X011971Y001542D02*
X012368Y001542D01*
X012541Y001443D02*
X011825Y001443D01*
X011208Y002232D02*
X011082Y002232D01*
X011082Y002330D02*
X011208Y002330D01*
X011208Y002429D02*
X011082Y002429D01*
X011082Y002527D02*
X011215Y002527D01*
X011242Y002626D02*
X011045Y002626D01*
X010986Y002725D02*
X011301Y002725D01*
X011406Y002823D02*
X010875Y002823D01*
X010436Y002823D02*
X008905Y002823D01*
X008889Y002834D02*
X008827Y002866D01*
X008760Y002888D01*
X008704Y002897D01*
X008704Y002204D01*
X009102Y002204D01*
X009102Y002487D01*
X009091Y002557D01*
X009069Y002624D01*
X009037Y002686D01*
X008996Y002743D01*
X008946Y002793D01*
X008889Y002834D01*
X009009Y002725D02*
X010324Y002725D01*
X010265Y002626D02*
X009068Y002626D01*
X009096Y002527D02*
X010228Y002527D01*
X010228Y002429D02*
X009102Y002429D01*
X009102Y002330D02*
X010228Y002330D01*
X010228Y002232D02*
X009102Y002232D01*
X009102Y002107D02*
X008704Y002107D01*
X008704Y002204D01*
X008607Y002204D01*
X008607Y002897D01*
X008550Y002888D01*
X008484Y002866D01*
X008421Y002834D01*
X008364Y002793D01*
X008314Y002743D01*
X008273Y002686D01*
X008241Y002624D01*
X008219Y002557D01*
X008208Y002487D01*
X008208Y002204D01*
X008606Y002204D01*
X008606Y002107D01*
X008208Y002107D01*
X008208Y001823D01*
X008219Y001754D01*
X008241Y001687D01*
X008273Y001624D01*
X008314Y001567D01*
X008364Y001517D01*
X008421Y001476D01*
X008484Y001444D01*
X008550Y001422D01*
X008607Y001414D01*
X008607Y002106D01*
X008704Y002106D01*
X008704Y001414D01*
X008760Y001422D01*
X008827Y001444D01*
X008889Y001476D01*
X008946Y001517D01*
X008996Y001567D01*
X009037Y001624D01*
X009069Y001687D01*
X009091Y001754D01*
X009102Y001823D01*
X009102Y002107D01*
X009102Y002035D02*
X010228Y002035D01*
X010228Y002133D02*
X008704Y002133D01*
X008606Y002133D02*
X008082Y002133D01*
X008082Y002035D02*
X008208Y002035D01*
X008208Y001936D02*
X008082Y001936D01*
X008082Y001838D02*
X008208Y001838D01*
X008224Y001739D02*
X008068Y001739D01*
X008027Y001641D02*
X008264Y001641D01*
X008339Y001542D02*
X007943Y001542D01*
X007769Y001443D02*
X008486Y001443D01*
X008607Y001443D02*
X008704Y001443D01*
X008704Y001542D02*
X008607Y001542D01*
X008607Y001641D02*
X008704Y001641D01*
X008704Y001739D02*
X008607Y001739D01*
X008607Y001838D02*
X008704Y001838D01*
X008704Y001936D02*
X008607Y001936D01*
X008607Y002035D02*
X008704Y002035D01*
X008704Y002232D02*
X008607Y002232D01*
X008607Y002330D02*
X008704Y002330D01*
X008704Y002429D02*
X008607Y002429D01*
X008607Y002527D02*
X008704Y002527D01*
X008704Y002626D02*
X008607Y002626D01*
X008607Y002725D02*
X008704Y002725D01*
X008704Y002823D02*
X008607Y002823D01*
X008406Y002823D02*
X008078Y002823D01*
X007986Y002725D02*
X008301Y002725D01*
X008242Y002626D02*
X008045Y002626D01*
X008082Y002527D02*
X008215Y002527D01*
X008208Y002429D02*
X008082Y002429D01*
X008082Y002330D02*
X008208Y002330D01*
X008208Y002232D02*
X008082Y002232D01*
X007541Y001443D02*
X006835Y001443D01*
X006835Y001345D02*
X010475Y001345D01*
X010475Y001443D02*
X008825Y001443D01*
X008971Y001542D02*
X010368Y001542D01*
X010283Y001641D02*
X009046Y001641D01*
X009086Y001739D02*
X010242Y001739D01*
X010228Y001838D02*
X009102Y001838D01*
X009102Y001936D02*
X010228Y001936D01*
X010655Y002155D02*
X010655Y001155D01*
X006655Y001155D01*
X006475Y001345D02*
X006095Y001345D01*
X005996Y001443D02*
X006475Y001443D01*
X006336Y001542D02*
X005960Y001542D01*
X005960Y001641D02*
X006309Y001641D01*
X006309Y001739D02*
X005960Y001739D01*
X006974Y001542D02*
X007368Y001542D01*
X007283Y001641D02*
X007002Y001641D01*
X007002Y001739D02*
X007242Y001739D01*
X007228Y001838D02*
X007002Y001838D01*
X007002Y001936D02*
X007228Y001936D01*
X007228Y002035D02*
X007002Y002035D01*
X006939Y002133D02*
X007228Y002133D01*
X007228Y002232D02*
X006994Y002232D01*
X005963Y003217D02*
X004195Y003217D01*
X004235Y003119D02*
X005864Y003119D01*
X006061Y003316D02*
X004148Y003316D01*
X004100Y003414D02*
X006160Y003414D01*
X006258Y003513D02*
X004053Y003513D01*
X004018Y003585D02*
X004018Y003585D01*
X003994Y003611D02*
X006357Y003611D01*
X006455Y003710D02*
X003902Y003710D01*
X003811Y003809D02*
X006554Y003809D01*
X006653Y003907D02*
X003719Y003907D01*
X003684Y003945D02*
X003684Y003945D01*
X003579Y004006D02*
X006751Y004006D01*
X006850Y004104D02*
X003408Y004104D01*
X002983Y004892D02*
X000805Y004892D01*
X000805Y004991D02*
X002889Y004991D01*
X002848Y005090D02*
X000805Y005090D01*
X000805Y005188D02*
X002847Y005188D01*
X002204Y007750D02*
X002107Y007750D01*
X002107Y007849D02*
X002204Y007849D01*
X002204Y007947D02*
X002107Y007947D01*
X002107Y008046D02*
X002204Y008046D01*
X002204Y008243D02*
X002107Y008243D01*
X002107Y008341D02*
X002204Y008341D01*
X002204Y008440D02*
X002107Y008440D01*
X002107Y008539D02*
X002204Y008539D01*
X002490Y009490D02*
X002490Y010155D01*
X002163Y010214D02*
X002147Y010214D01*
X002147Y010312D02*
X002163Y010312D01*
X002163Y010411D02*
X002147Y010411D01*
X002107Y010805D02*
X002204Y010805D01*
X002204Y010904D02*
X002107Y010904D01*
X002107Y011002D02*
X002204Y011002D01*
X002204Y011101D02*
X002107Y011101D01*
X002107Y011298D02*
X002204Y011298D01*
X002204Y011396D02*
X002107Y011396D01*
X002107Y011495D02*
X002204Y011495D01*
X002204Y011593D02*
X002107Y011593D01*
X001769Y011593D02*
X001335Y011593D01*
X001335Y011495D02*
X001566Y011495D01*
X001481Y011396D02*
X001335Y011396D01*
X001335Y011298D02*
X001435Y011298D01*
X002687Y011791D02*
X002765Y011791D01*
X002896Y011101D02*
X003455Y011101D01*
X003475Y011002D02*
X002872Y011002D01*
X002822Y010904D02*
X003475Y010904D01*
X003475Y010805D02*
X002730Y010805D01*
X001494Y009918D02*
X001354Y009918D01*
X008607Y005681D02*
X008704Y005681D01*
X008704Y005582D02*
X008607Y005582D01*
X008607Y005484D02*
X008704Y005484D01*
X009840Y005470D02*
X009840Y007872D01*
X011533Y009031D02*
X011998Y009031D01*
X011993Y008933D02*
X011632Y008933D01*
X011731Y008834D02*
X011993Y008834D01*
X011993Y008895D02*
X012438Y008895D01*
X012438Y008895D01*
X011993Y008895D01*
X010464Y005188D02*
X019505Y005188D01*
X019505Y005090D02*
X010462Y005090D01*
X010421Y004991D02*
X019505Y004991D01*
X019505Y004892D02*
X010327Y004892D01*
X009705Y004104D02*
X016881Y004104D01*
X016830Y004084D02*
X016830Y004084D01*
X016732Y004006D02*
X009705Y004006D01*
X009705Y003907D02*
X016608Y003907D01*
X016485Y003809D02*
X009705Y003809D01*
X009705Y003710D02*
X016400Y003710D01*
X016446Y003777D02*
X016446Y003777D01*
X016446Y003777D01*
X016332Y003611D02*
X009705Y003611D01*
X009705Y003513D02*
X016265Y003513D01*
X016198Y003414D02*
X009669Y003414D01*
X009600Y003345D02*
X009600Y003345D01*
X009570Y003316D02*
X016151Y003316D01*
X016169Y003371D02*
X016169Y003371D01*
X016121Y003217D02*
X009472Y003217D01*
X009373Y003119D02*
X016091Y003119D01*
X016060Y003020D02*
X009275Y003020D01*
X009335Y003081D02*
X009335Y003081D01*
X010835Y001345D02*
X013340Y001345D01*
X013439Y001443D02*
X012769Y001443D01*
X012943Y001542D02*
X013336Y001542D01*
X013309Y001641D02*
X013027Y001641D01*
X013068Y001739D02*
X013309Y001739D01*
X013309Y001838D02*
X013082Y001838D01*
X013082Y001936D02*
X013309Y001936D01*
X013309Y002035D02*
X013082Y002035D01*
X013082Y002133D02*
X013371Y002133D01*
X013316Y002232D02*
X013082Y002232D01*
X012990Y002490D02*
X013655Y002490D01*
X014002Y002527D02*
X016024Y002527D01*
X016024Y002429D02*
X014002Y002429D01*
X014002Y002330D02*
X016048Y002330D01*
X016024Y002409D02*
X016024Y002409D01*
X016078Y002232D02*
X013994Y002232D01*
X013939Y002133D02*
X016109Y002133D01*
X016139Y002035D02*
X014002Y002035D01*
X014002Y001936D02*
X016171Y001936D01*
X016169Y001939D02*
X016169Y001939D01*
X016238Y001838D02*
X014002Y001838D01*
X014002Y001739D02*
X016305Y001739D01*
X016372Y001641D02*
X014002Y001641D01*
X013974Y001542D02*
X016439Y001542D01*
X016446Y001533D02*
X016446Y001533D01*
X016446Y001533D01*
X016558Y001443D02*
X013835Y001443D01*
X013835Y001345D02*
X016681Y001345D01*
X016805Y001246D02*
X013751Y001246D01*
X013652Y001148D02*
X017030Y001148D01*
X016830Y001226D02*
X016830Y001226D01*
X017281Y001049D02*
X013554Y001049D01*
X013405Y001155D02*
X010655Y001155D01*
X013405Y001155D02*
X013655Y001405D01*
X013655Y001820D01*
X014002Y002626D02*
X016024Y002626D01*
X016024Y002725D02*
X014002Y002725D01*
X017288Y001046D02*
X017288Y001046D01*
X017952Y001049D02*
X018558Y001049D01*
X018018Y000852D02*
X002292Y000852D01*
X001805Y001246D02*
X001473Y001246D01*
X001349Y001345D02*
X001681Y001345D01*
X001558Y001443D02*
X001270Y001443D01*
X001191Y001542D02*
X001439Y001542D01*
X001446Y001533D02*
X001446Y001533D01*
D24*
X004655Y004155D03*
X005655Y004155D03*
X003655Y005655D03*
X003155Y005155D03*
X001155Y010155D03*
X004655Y014155D03*
X004655Y014655D03*
X007155Y011655D03*
X008655Y010655D03*
X009155Y009655D03*
X009155Y009155D03*
X008655Y009155D03*
X008155Y007655D03*
X010155Y005155D03*
X010655Y005655D03*
X009155Y003655D03*
X011155Y009155D03*
X011655Y009155D03*
X011655Y011155D03*
X011155Y011155D03*
X010655Y011655D03*
X008655Y015155D03*
X008155Y015155D03*
X009155Y017405D03*
X012155Y015905D03*
X019155Y007155D03*
M02*
